<svg width="32" height="30" viewBox="0 0 32 30" fill="none" xmlns="http://www.w3.org/2000/svg">
<path d="M16.612 2.07562C16.4346 1.94592 16.216 1.87549 15.991 1.87549C15.766 1.87549 15.5474 1.94592 15.37 2.07562L1 12.5803L2.243 14.0541L4 12.7697V24.375C4.00106 24.872 4.21211 25.3483 4.58695 25.6997C4.9618 26.0511 5.46989 26.249 6 26.25H26C26.5301 26.249 27.0382 26.0511 27.413 25.6997C27.7879 25.3483 27.9989 24.872 28 24.375V12.7781L29.757 14.0625L31 12.5887L16.612 2.07562ZM18 24.375H14V16.875H18V24.375ZM20 24.375V16.875C20 16.3777 19.7893 15.9008 19.4142 15.5492C19.0391 15.1975 18.5304 15 18 15H14C13.4696 15 12.9609 15.1975 12.5858 15.5492C12.2107 15.9008 12 16.3777 12 16.875V24.375H6V11.3081L16 4.00499L26 11.3175V24.375H20Z" fill="black"/>
</svg>
