<svg width="51" height="51" viewBox="0 0 51 51" fill="none" xmlns="http://www.w3.org/2000/svg">
<g clip-path="url(#clip0_128_14)">
<g clip-path="url(#clip1_128_14)">
<g clip-path="url(#clip2_128_14)">
<path d="M49.3999 46.6373H43.0755V20.6182C43.0755 20.1802 42.6878 19.825 42.2097 19.825H37.6435L32.0515 15.1268C32.1353 14.9946 32.177 14.842 32.1681 14.6867C31.9951 11.7158 29.521 9.33676 26.379 8.96275V6.40146L32.6313 4.54072C32.9854 4.43535 33.2263 4.13417 33.2296 3.79307C33.2327 3.45184 32.9975 3.1471 32.6453 3.03604L25.7949 0.877316C25.5302 0.794024 25.2382 0.832893 25.0103 0.981762C24.7827 1.13063 24.6475 1.37112 24.6475 1.62747V2.10594L24.6473 8.96275C21.5053 9.33666 19.0313 11.7156 18.8582 14.6867C18.8491 14.8419 18.8909 14.9943 18.9747 15.1265L13.3829 19.825H8.81673C8.33866 19.825 7.95094 20.1802 7.95094 20.6182V46.6373H1.62651C1.14846 46.6373 0.760742 46.9925 0.760742 47.4306V49.5459C0.760742 49.9839 1.14846 50.339 1.62651 50.339H49.3999C49.878 50.339 50.2657 49.9839 50.2657 49.5459V47.4306C50.2657 46.9924 49.878 46.6373 49.3999 46.6373ZM26.379 4.73335V2.73923L29.6337 3.76478L26.379 4.73335ZM25.5132 10.4965C27.8219 10.4965 29.7751 11.9519 30.3048 13.9357H20.7218C21.2513 11.9519 23.2045 10.4965 25.5132 10.4965ZM20.6519 15.5222H30.3745L35.8642 19.825H15.1625L20.6519 15.5222ZM9.68248 21.4115H14.0676H36.9591H36.962H41.3441V46.6373H32.043V31.9701C32.043 28.6712 29.1138 25.9873 25.5134 25.9873C21.9131 25.9873 18.9839 28.6712 18.9839 31.9701V46.6371H9.68262L9.68248 21.4115ZM30.3113 46.6373H20.7152V31.9701C20.7152 29.546 22.8676 27.5738 25.5132 27.5738C28.1589 27.5738 30.3113 29.546 30.3113 31.9701V46.6373ZM48.5342 48.7526H2.49228V48.2238H8.81673H19.8495H31.1771H42.2097H48.5342V48.7526Z" fill="#9A0000"/>
</g>
</g>
</g>
<defs>
<clipPath id="clip0_128_14">
<rect width="50" height="50" fill="white" transform="translate(0.389648 0.5)"/>
</clipPath>
<clipPath id="clip1_128_14">
<rect width="50" height="50" fill="white" transform="translate(0.389648 0.5)"/>
</clipPath>
<clipPath id="clip2_128_14">
<rect width="50" height="50" fill="white" transform="translate(0.389648 0.5)"/>
</clipPath>
</defs>
</svg>
