<svg width="127" height="122" viewBox="0 0 127 122" fill="none" xmlns="http://www.w3.org/2000/svg">
<g clip-path="url(#clip0_128_37)">
<g clip-path="url(#clip1_128_37)">
<g clip-path="url(#clip2_128_37)">
<path fill-rule="evenodd" clip-rule="evenodd" d="M90.9445 12.8321C90.9217 12.7012 90.9214 12.5674 90.9435 12.4363C90.9941 12.1119 91.1488 11.8202 91.2024 11.4968C91.3125 10.8282 91.1081 10.3927 90.7857 9.81134C90.4306 9.17444 89.9167 8.64469 89.3691 8.17446C88.8899 7.76177 88.3125 7.36891 88.0645 6.7598C87.8493 6.23203 87.7689 5.7112 87.4296 5.23204C87.0546 4.70229 86.5447 4.35705 85.9832 4.05646C84.9912 3.52373 83.9227 3.0783 82.8007 2.92553C82.0358 2.82136 81.2382 2.90965 80.4952 3.11402C79.7521 3.31838 78.9813 3.40469 78.2512 3.66758C77.4139 3.96817 76.5627 4.53761 76.0746 5.29752C73.6709 9.03357 74.9834 12.4274 75.2383 13.1387C75.526 13.9452 75.5776 14.5831 75.4863 15.4432C75.3951 16.3112 75.28 17.4342 76.1838 17.9134C76.4278 18.0444 76.6956 18.1257 76.9427 18.2517C77.3048 18.4362 77.6113 18.713 77.9694 18.9045C78.6401 19.2636 79.5131 19.3102 80.2015 18.9689C80.8315 18.6574 81.3206 18.0017 82.0974 18.1267C83.4475 18.3469 85.2491 18.6922 86.5903 18.0821C86.8294 18.0453 87.0685 17.9948 87.2788 17.9372C87.9792 17.7497 88.38 17.3638 88.9732 17.0057C89.4167 16.7428 89.9226 16.9075 90.3671 16.6783C91.379 16.1525 91.6131 14.7656 91.2996 13.7795C91.1855 13.4224 91 13.1615 90.9445 12.8321Z" fill="#222222"/>
<path fill-rule="evenodd" clip-rule="evenodd" d="M74.7691 118.497L74.779 118.458C75.0667 117.275 75.0965 116.043 75.1997 114.834C75.2513 114.24 75.658 113.185 75.1114 112.729C74.9358 112.581 74.7056 112.513 74.4785 112.494C73.162 112.387 72.7295 113.471 72.6561 114.604C72.5936 115.558 72.663 116.512 72.66 117.467C72.659 118.24 72.6144 119.181 73.6402 119.299C74.1848 119.362 74.6302 118.993 74.7691 118.497Z" fill="#E7C59B"/>
<path fill-rule="evenodd" clip-rule="evenodd" d="M74.7491 117.314C74.3691 117.251 73.9039 117.418 73.519 117.461L69.7462 118.079C69.0319 118.193 67.9407 118.657 67.9308 119.593C67.9179 120.554 69.2879 120.462 69.9277 120.487C71.399 120.545 72.8593 120.544 74.3255 120.397C75.5199 120.279 75.4297 119.54 75.4822 118.853C75.51 118.482 75.4654 118.083 75.3037 117.745C75.1727 117.469 74.9763 117.351 74.7491 117.314Z" fill="#191919"/>
<path fill-rule="evenodd" clip-rule="evenodd" d="M94.0234 118.497L94.0344 118.458C94.322 117.275 94.3518 116.043 94.455 114.834C94.5066 114.24 94.9123 113.185 94.3657 112.729C94.1911 112.581 90.705 112.513 90.4779 112.494C89.1624 112.387 91.9848 113.471 91.9114 114.604C91.8489 115.558 91.9183 116.512 91.9163 117.467C91.9134 118.24 91.8697 119.181 92.8955 119.299C93.4401 119.362 93.8846 118.993 94.0234 118.497Z" fill="#E7C59B"/>
<path fill-rule="evenodd" clip-rule="evenodd" d="M93.9969 117.314C93.6169 117.251 93.1388 117.351 92.7668 117.462C91.9354 117.707 91.1646 118.293 90.8025 118.613C90.0178 119.306 89.8938 119.601 89.9692 120.062C90.0783 120.729 90.3968 120.93 91.0366 120.956C92.5068 121.013 93.0108 120.923 93.5723 120.865C94.0068 120.821 94.4483 120.668 94.613 120.224C94.8372 119.624 94.8312 118.329 94.5515 117.745C94.4195 117.469 94.2231 117.35 93.9969 117.314Z" fill="#191919"/>
<mask id="mask0_128_37" style="mask-type:alpha" maskUnits="userSpaceOnUse" x="64" y="49" width="38" height="67">
<path d="M100.979 102.474L98.1883 79.1567C97.9552 76.5059 96.357 60.4407 95.8004 57.2433C95.2439 54.046 93.8481 50.0391 93.8481 50.0391L81.5239 51.8625L81.5368 52.6115L72.6351 49.679C72.6351 49.679 71.7135 52.2136 70.905 56.7761C70.272 60.3445 67.9338 71.2025 66.7185 83.6804C66.0459 90.598 64.5489 99.9005 64.3942 103.488C64.2394 107.075 63.541 111.583 64.7037 112.487C65.8664 113.39 72.0528 115.31 74.6103 115.387C77.1678 115.465 80.2828 114.952 80.5159 114.172C80.7491 113.392 80.9683 94.9878 81.634 90.7766L82.6042 84.4225L83.5695 97.2497C84.004 101.694 84.004 112.768 84.9335 113.626C85.8631 114.485 90.5922 114.718 93.0723 114.562C95.5524 114.406 100.591 112.908 101.288 112.487C101.986 112.065 101.443 106.608 100.979 102.474Z" fill="white"/>
</mask>
<g mask="url(#mask0_128_37)">
<path fill-rule="evenodd" clip-rule="evenodd" d="M72.6333 49.679C72.6333 49.679 71.7127 52.2136 70.9022 56.7761C70.2702 60.3445 67.932 71.2025 66.7167 83.6804C66.0441 90.599 64.5471 99.9005 64.3914 103.488C64.2356 107.075 63.5382 111.583 64.7019 112.487C65.8655 113.39 72.051 115.31 74.6095 115.387C77.168 115.465 80.281 114.952 80.5141 114.172C80.7473 113.392 80.9665 94.9878 81.6322 90.7766L84.9317 68.8632L84.4675 53.5777L72.6333 49.679Z" fill="#666666"/>
<path fill-rule="evenodd" clip-rule="evenodd" d="M81.9098 74.1657L83.5686 97.2497C84.0031 101.694 84.0031 112.768 84.9326 113.626C85.8622 114.485 90.5913 114.718 93.0714 114.562C95.5515 114.406 100.59 112.908 101.288 112.487C101.985 112.065 101.442 106.608 100.978 102.474L98.1874 79.1567C97.9552 76.5059 96.3561 60.4407 95.7995 57.2433C95.243 54.046 93.8472 50.0391 93.8472 50.0391L81.5229 51.8625L81.9098 74.1657Z" fill="#666666"/>
<path fill-rule="evenodd" clip-rule="evenodd" d="M66.059 114.628L65.5957 114.586L68.2713 88.3312C69.307 79.7658 75.2057 48.9548 75.2652 48.6453L75.7215 48.7336C75.662 49.0431 69.7663 79.8383 68.7316 88.3877C67.6969 96.9372 66.0749 114.453 66.059 114.628ZM70.6929 116.462L70.2316 116.404L74.2533 84.4682C75.288 76.7222 78.2493 50.4448 78.2791 50.181L78.7413 50.2335L74.7136 84.5297L70.6929 116.462ZM77.1977 118.927L76.7334 118.896C77.2344 110.94 77.6703 102.979 78.041 95.0156C78.6223 82.4057 81.654 51.2176 81.6848 50.9042L82.148 50.9498C82.1173 51.2633 79.0866 82.4394 78.5052 95.0365C78.134 103.003 77.6981 110.967 77.1977 118.927ZM87.6232 119.636C87.5994 119.399 85.2442 95.7527 85.2442 86.7221L84.7016 49.6839L85.1659 49.674L85.7085 86.7221C85.7085 95.7299 88.0616 119.353 88.0855 119.59L87.6232 119.636ZM92.6648 119.337C92.6459 119.223 90.8136 107.789 89.895 96.3311C88.9763 84.8729 88.5021 50.3893 88.4962 50.0421L88.9624 50.0361C88.9664 50.3833 89.4416 84.8541 90.3582 96.2954C91.2749 107.737 93.1062 119.148 93.1231 119.262L92.6648 119.337ZM97.5685 116.458L93.8483 75.7401C93.1588 64.4208 90.9168 50.6184 90.8949 50.4806L91.3533 50.4042C91.3761 50.5431 93.6211 64.3673 94.3116 75.7113C95.001 87.0386 98.002 116.117 98.0317 116.409L97.5685 116.458Z" fill="white"/>
</g>
<path fill-rule="evenodd" clip-rule="evenodd" d="M57.0924 25.1423C57.0924 25.1423 54.9575 25.2753 55.3266 26.057L57.4962 30.4746L59.892 28.5838L57.0924 25.1423Z" fill="#E7C59B"/>
<path fill-rule="evenodd" clip-rule="evenodd" d="M57.0905 25.1425C57.0905 25.1425 55.8703 23.4947 55.4179 23.3012C54.3723 22.8528 52.4437 23.2615 52.4537 23.9242C52.4636 24.5165 55.3246 26.0571 55.3246 26.0571L56.7264 25.7476L57.0905 25.1425ZM86.7557 19.464C87.7835 20.8231 85.1982 22.4818 84.1566 22.704C83.349 22.8806 82.3064 22.5869 81.5832 22.2556C81.0822 22.0344 79.8074 21.0592 80.4513 20.3548C80.5113 20.294 80.5905 20.2558 80.6755 20.2467C80.7605 20.2377 80.846 20.2584 80.9175 20.3052L80.7509 19.5959C80.642 19.1156 80.5566 18.6302 80.4949 18.1416C80.4949 18.1376 80.4899 18.1326 80.4939 18.1217L80.481 18.0116L80.4681 17.9045C80.4679 17.8902 80.4653 17.8761 80.4602 17.8628C79.7925 17.7805 79.1586 17.5315 78.6398 17.0592C77.4434 15.9977 77.0406 14.7656 76.6884 13.2478C76.4652 12.3113 76.3233 11.3887 76.3412 10.4631L76.3452 10.2091C76.3462 10.097 76.3561 9.97799 76.367 9.8649L76.3839 9.72303C76.42 9.35653 76.4874 8.99378 76.5852 8.63872C76.8343 7.45223 77.4215 6.48002 78.6457 5.80741C79.8868 5.12984 81.9254 4.81536 83.2816 5.38083C84.2062 5.76773 85.0941 6.62685 85.5008 7.54449L86.0891 8.9036C86.0891 8.9036 86.8371 8.7419 87.0633 9.28256C87.6059 10.5851 85.975 12.849 85.975 12.849L86.2865 16.2795L86.6188 19.2437L86.6377 19.3777C86.6853 19.3836 86.725 19.4183 86.7557 19.463V19.464Z" fill="#E7C59B"/>
<path fill-rule="evenodd" clip-rule="evenodd" d="M82.4038 18.9849C81.8971 19.2935 81.3355 19.5013 80.75 19.597C80.6407 19.116 80.5546 18.63 80.4921 18.1407C80.5 18.1365 80.5083 18.1332 80.5169 18.1307C80.507 18.1298 80.5 18.1228 80.4901 18.1218L80.4762 18.0097C80.4782 17.977 80.4703 17.9383 80.4663 17.9046C80.7173 17.7954 80.9207 17.846 81.2342 17.8103C81.7612 17.7603 82.2633 17.5622 82.6825 17.2389C83.001 16.981 83.6399 16.3183 83.8036 17.0921C83.9623 17.8381 82.9464 18.6575 82.4038 18.9849Z" fill="#D3AE7F"/>
<path fill-rule="evenodd" clip-rule="evenodd" d="M86.5962 19.095L80.759 19.6416C80.759 19.6416 77.3969 19.8896 74.4515 21.333C71.5061 22.7765 71.7879 40.9885 71.7105 42.4309C71.6331 43.8734 70.5815 46.7553 72.3712 51.0528C72.9039 52.3326 77.0904 52.777 82.7381 52.7393C90.1914 52.6917 93.3659 52.3822 94.0742 51.6282C96.1675 49.4011 94.9215 40.2693 94.6109 38.2802C94.3004 36.2912 96.5524 24.2159 95.5216 22.6872C94.4175 21.0503 86.5952 19.096 86.5952 19.096L86.5962 19.095Z" fill="#FAC73D"/>
<path fill-rule="evenodd" clip-rule="evenodd" d="M106.86 59.5032C106.86 59.5032 106.953 60.9267 107.957 62.2928C108.907 63.5825 110.457 62.7938 109.934 60.889C109.704 60.0537 108.707 58.769 108.707 58.769L106.987 54.156C106.128 54.7011 105.271 55.2481 104.415 55.7969L106.86 59.5032Z" fill="#E7C59B"/>
<path fill-rule="evenodd" clip-rule="evenodd" d="M95.5245 22.6873C95.5245 22.6873 97.4094 24.6466 99.1158 28.5453L104.231 40.7108C105.083 42.8169 109.218 52.6223 109.296 53.5578C109.375 54.4933 107.746 55.7413 106.816 56.2096C105.886 56.6778 104.08 57.3008 102.812 57.0677C101.544 56.8346 96.3539 42.1929 95.7974 40.8675C95.2408 39.5422 93.224 37.8259 92.7587 37.3577C92.2934 36.8894 90.5891 34.7724 91.2865 32.7893C91.9839 30.8062 93.1466 26.9074 93.1466 26.9074L95.5245 22.6873Z" fill="#FAC73D"/>
<path fill-rule="evenodd" clip-rule="evenodd" d="M80.7642 19.6416C80.7642 19.6416 81.6064 28.6434 82.277 28.6722C82.9477 28.701 86.6014 19.095 86.6014 19.095C86.6014 19.095 84.4586 18.5245 84.3137 18.5533C84.1689 18.5821 80.7642 19.6416 80.7642 19.6416Z" fill="#E7C59B"/>
<path fill-rule="evenodd" clip-rule="evenodd" d="M74.4533 21.333C74.4533 21.333 72.6022 22.4441 71.3343 24.0225C70.0665 25.6008 63.5547 38.0599 63.5547 38.3526C63.5547 38.6453 64.5428 43.3377 65.008 43.8863C65.4733 44.4349 66.9267 44.6204 67.508 44.4398C68.0893 44.2593 75.124 36.4806 75.124 36.4806L75.3561 21.5493L74.4533 21.333Z" fill="#FAC73D"/>
<path fill-rule="evenodd" clip-rule="evenodd" d="M66.9287 37.4161L60.7661 27.1226C59.8911 26.3617 55.417 29.9489 55.4189 31.3219C55.4189 31.9866 61.8127 45.2602 64.0408 45.7801C65.7928 46.1868 67.51 44.4408 67.51 44.4408L66.9287 37.4161Z" fill="#FAC73D"/>
<path fill-rule="evenodd" clip-rule="evenodd" d="M87.6875 8.25585C87.6699 8.26099 87.6532 8.26868 87.6379 8.27866C87.3283 7.54653 86.9563 6.91261 86.3541 6.38881C85.626 5.75291 84.6806 4.80054 83.7252 4.56542C82.4355 4.25293 80.6072 4.1944 79.3324 4.86998C78.9525 4.84221 78.514 5.09915 78.2144 5.27176C77.507 5.67553 76.8096 6.2152 76.3721 6.92849C75.896 7.69931 75.8384 8.82032 75.9535 9.69432C75.9743 9.86098 76.1172 10.0197 76.3007 9.99193C76.8285 9.92943 77.4932 9.26575 77.7967 8.82628C77.9614 8.58422 78.0765 8.2985 78.1479 8.00684C78.2402 7.99097 78.3324 7.9751 78.4227 7.93541C78.766 7.78363 79.0983 7.55248 79.385 7.31638C79.6032 7.13582 79.8195 6.82333 79.9128 6.49794C80.0616 6.67452 80.2352 6.83126 80.4157 6.94833C80.8026 7.19634 81.0725 7.25189 81.507 7.32332C82.1488 7.4255 82.5367 7.88978 83.1607 8.06934C83.6984 8.22212 83.9316 8.28462 84.3532 8.69433C84.755 9.08718 85.0903 9.40067 85.6607 9.48896C86.4434 9.60999 87.6121 9.32726 87.9166 8.5118C87.9662 8.36696 87.8511 8.19335 87.6885 8.25585H87.6875Z" fill="#222222"/>
<path fill-rule="evenodd" clip-rule="evenodd" d="M125.017 72.7389L106.159 81.0275C106.026 81.0859 105.883 81.1175 105.738 81.1203C105.593 81.1232 105.448 81.0972 105.313 81.044C105.178 80.9908 105.055 80.9114 104.95 80.8103C104.846 80.7092 104.763 80.5885 104.705 80.4551L103.096 76.7488C100.964 71.8401 103.191 66.1209 108.071 63.9761L111.281 62.5644C116.161 60.4186 121.846 62.6607 123.978 67.5693L125.587 71.2756C125.704 71.5453 125.71 71.8505 125.604 72.1246C125.497 72.3988 125.286 72.6196 125.017 72.7389Z" fill="#191919"/>
<path fill-rule="evenodd" clip-rule="evenodd" d="M110.814 60.7729C110.747 60.7728 110.681 60.7867 110.62 60.8136L107.098 62.3612C106.98 62.4133 106.887 62.5102 106.84 62.6305C106.794 62.7508 106.796 62.8847 106.848 63.003L107.437 64.3592C107.462 64.4177 107.499 64.4708 107.545 64.5152C107.59 64.5595 107.645 64.5944 107.704 64.6178C107.763 64.6411 107.827 64.6524 107.89 64.6511C107.954 64.6498 108.017 64.6359 108.075 64.6101L111.597 63.0625C111.715 63.0102 111.807 62.9133 111.854 62.7931C111.901 62.6729 111.898 62.539 111.847 62.4207L111.258 61.0646C111.221 60.9777 111.159 60.9038 111.08 60.8519C111.001 60.8 110.909 60.7725 110.814 60.7729ZM107.882 65.5873C107.606 65.5877 107.336 65.5071 107.105 65.3554C106.875 65.2037 106.694 64.9877 106.585 64.7341L105.996 63.378C105.846 63.0324 105.838 62.6414 105.975 62.2902C106.112 61.939 106.382 61.6561 106.726 61.503L110.248 59.9554C110.594 59.8027 110.979 59.7967 111.33 59.9356C111.682 60.0745 111.959 60.3423 112.11 60.6896L112.699 62.0457C112.849 62.3912 112.856 62.782 112.72 63.1329C112.583 63.4839 112.313 63.7667 111.969 63.9197L108.447 65.4673C108.266 65.5476 108.074 65.5873 107.882 65.5873Z" fill="#191919"/>
<path fill-rule="evenodd" clip-rule="evenodd" d="M25.4014 4.59522C26.206 3.27778 27.6792 2.08038 29.3061 2.0645C29.9906 2.05954 30.7327 2.42362 30.8805 3.13393C31.5204 2.86608 32.3785 2.91271 32.9628 3.06647C33.6334 3.23512 34.0322 3.74801 34.7237 3.90475C35.2693 4.02876 35.8179 4.04066 36.3328 4.2738C36.927 4.54363 36.2544 5.83131 36.559 6.41662C37.7752 8.75587 35.4459 10.7578 34.6334 11.0297C32.938 11.5981 31.7525 13.2151 30.076 13.8818C28.8002 14.3907 27.07 14.4988 25.6812 14.4254L25.6732 14.604C25.6494 14.7002 25.5413 14.7826 25.452 14.6923C24.8994 14.1635 24.8994 13.0792 24.7705 12.3709C24.575 11.3084 24.5602 10.2023 24.4133 9.1269C24.336 8.53762 24.2377 7.96224 24.2715 7.36105C24.333 6.24401 24.836 5.52378 25.4014 4.59522Z" fill="#371005"/>
<path fill-rule="evenodd" clip-rule="evenodd" d="M24.2342 19.9183C23.1022 21.1931 25.5357 23.0572 26.5556 23.3707C27.3462 23.6097 28.4107 23.4044 29.1637 23.1355C29.6766 22.957 31.0257 22.0959 30.4434 21.335C30.3373 21.2001 30.1379 20.7894 30.2083 20.5542C30.3558 20.0843 30.4806 19.6076 30.5823 19.1257L30.6081 18.9977C30.6121 18.965 30.624 18.9243 30.6279 18.8916C30.6309 18.8787 30.6379 18.8697 30.6388 18.8558C31.3124 18.8251 31.9652 18.6297 32.5257 18.2031C33.8015 17.2448 34.3035 16.0553 34.7816 14.5682C35.0802 13.6535 35.2975 12.7458 35.357 11.8222C35.3764 11.6789 35.3833 11.5342 35.3779 11.3897C35.3828 11.3331 35.3818 11.2806 35.3808 11.224L35.3729 10.9433C35.3593 10.621 35.3231 10.3002 35.2648 9.98296C35.114 8.78456 34.61 7.76275 33.4454 6.99491C32.2648 6.2102 30.2589 5.73104 28.8601 6.17647C27.9077 6.48499 26.9524 7.26673 26.4712 8.14668L25.7719 9.45221C25.7719 9.45221 25.0377 9.23198 24.7699 9.74784C24.1201 11.0048 25.5586 13.3926 25.5586 13.3926L24.9703 16.7854L24.3889 19.711L24.3592 19.8439C24.3116 19.8459 24.2689 19.8767 24.2342 19.9183Z" fill="#E7C59B"/>
<path fill-rule="evenodd" clip-rule="evenodd" d="M28.608 19.8063C29.0871 20.1568 29.6295 20.4115 30.2052 20.5563L30.5832 19.1268C30.5759 19.1217 30.5678 19.1176 30.5593 19.1149C30.5683 19.1139 30.5762 19.1079 30.5861 19.1069L30.6089 18.9978C30.6109 18.9641 30.6209 18.9254 30.6278 18.8917C30.3877 18.7637 30.1814 18.7964 29.8709 18.7349C29.3495 18.6407 28.8655 18.4006 28.475 18.0425C28.1784 17.7597 27.5971 17.0465 27.3709 17.8044C27.1497 18.5335 28.0941 19.4353 28.608 19.8063Z" fill="#D3AE7F"/>
<path fill-rule="evenodd" clip-rule="evenodd" d="M26.6426 6.5823C27.5553 5.56247 28.7447 5.15375 30.0949 5.13192C30.8886 5.11506 31.5007 5.47319 32.2576 5.63588C32.9034 5.77576 33.5403 5.94838 34.1326 6.25492C34.6722 6.53567 35.6306 7.11801 35.823 7.81641C35.8766 7.8303 35.9242 7.86204 35.9421 7.92157C36.1246 8.50489 35.8667 8.97909 35.1841 9.03663C33.8191 9.15667 33.5046 7.16959 32.0354 7.49498C31.5731 7.59717 31.204 7.97018 30.708 8.03764C30.2447 8.10708 29.8886 7.94537 29.4431 7.81839C28.9977 7.69141 28.4729 7.5684 28.0364 7.79756C27.1991 8.23803 27.1198 9.30547 27.0394 10.1418C27.0245 10.2955 27.0305 10.4711 26.8837 10.5713C26.5364 10.8055 26.22 10.2955 26.0801 10.0455C25.9898 9.88682 25.8777 9.73801 25.8122 9.56638C25.7111 9.30845 25.597 9.13187 25.5871 8.84417C25.5839 8.55662 25.6368 8.27121 25.7428 8.00391C25.9382 7.47614 26.2686 6.99896 26.6426 6.5823Z" fill="#371005"/>
<path fill-rule="evenodd" clip-rule="evenodd" d="M36.9363 3.59819C36.5613 3.42656 36.1506 3.35811 35.73 3.34422C35.7142 3.33325 35.6987 3.322 35.6834 3.31049C35.5147 2.84621 35.1992 2.54066 34.6705 1.92162C33.6983 0.787711 32.4294 0.262917 30.9691 0.0625233C26.5912 -0.537666 22.4613 3.26883 23.4841 7.80447C23.5288 8.00288 23.6399 8.23403 23.752 8.46716L23.6379 8.61895C23.394 8.97733 23.2144 9.37547 23.1072 9.79552C22.9702 10.2479 22.9246 10.732 23.2103 11.0356C23.2877 11.1179 23.4087 11.1447 23.5159 11.1169C23.5268 11.114 23.5377 11.107 23.5486 11.103C23.6032 11.113 23.6577 11.106 23.7113 11.0931C24.4028 10.9265 24.878 10.3074 25.4603 9.94333C26.2844 9.4352 27.1452 8.9892 28.0356 8.60903C29.615 7.92551 31.2499 7.39178 32.8927 6.88881L35.3143 6.15668C35.9681 5.95827 36.8143 5.82732 37.3589 5.38983C38.1357 4.76682 37.7151 3.95532 36.9363 3.59819Z" fill="#FAC73D"/>
<path fill-rule="evenodd" clip-rule="evenodd" d="M24.7371 7.0098C24.6968 7.02805 24.6527 7.03624 24.6085 7.03365C24.5644 7.03106 24.5215 7.01776 24.4836 6.99492C24.4457 6.97207 24.414 6.94036 24.3911 6.90251C24.3682 6.86466 24.3548 6.82181 24.3522 6.77766C24.2996 5.97608 24.4177 4.12889 26.4434 3.26878C28.1021 2.56443 29.61 3.57632 30.243 4.10905C30.2785 4.13924 30.3059 4.17797 30.3224 4.22161C30.3389 4.26525 30.3441 4.31237 30.3375 4.35856C30.3309 4.40475 30.3126 4.4485 30.2844 4.48572C30.2563 4.52293 30.2191 4.55239 30.1765 4.57134L24.7371 7.0098Z" fill="#E7C59B"/>
<path fill-rule="evenodd" clip-rule="evenodd" d="M31.1266 21.1683C31.1266 21.1683 31.701 20.1742 29.4769 20.1742C27.2527 20.1742 25.2329 19.2645 24.5573 19.1643C23.8817 19.0641 23.3589 19.8528 23.3589 19.8528L29.2159 21.5492C29.5642 21.5492 31.1266 21.1683 31.1266 21.1683Z" fill="white"/>
<path fill-rule="evenodd" clip-rule="evenodd" d="M47.5538 43.1789C47.5538 43.1789 46.4785 47.534 43.2225 48.9863C39.9666 50.4387 35.7227 46.6381 35.7227 46.6381C35.7227 46.6381 39.5847 41.3396 40.8813 41.2097C42.1779 41.0797 47.5538 43.1789 47.5538 43.1789Z" fill="#555656"/>
<path fill-rule="evenodd" clip-rule="evenodd" d="M30.2774 20.9282C30.2774 20.9282 35.2862 20.9927 37.9102 23.9163C39.805 26.0293 42.8308 33.8596 42.8308 33.8596L39.8863 44.2701C39.8863 44.2701 37.9102 44.7771 37.4836 44.6213C37.057 44.4656 30.2774 20.9282 30.2774 20.9282Z" fill="#555656"/>
<path fill-rule="evenodd" clip-rule="evenodd" d="M31.4046 118.787L31.3947 118.748C31.1268 117.561 30.5852 113.057 30.5019 111.847C30.4602 111.252 33.7796 110.677 33.8351 111.813C33.8808 112.767 33.5435 116.839 33.5296 117.792C33.5187 118.566 33.5474 119.506 32.5197 119.608C31.9741 119.661 31.5356 119.286 31.4046 118.787Z" fill="#E7C59B"/>
<path fill-rule="evenodd" clip-rule="evenodd" d="M31.4403 117.604C31.8222 117.548 32.2835 117.723 32.6704 117.773L36.4313 118.455C37.1436 118.579 38.2259 119.062 38.2219 119.999C38.217 120.959 36.8489 120.844 36.2081 120.858C34.7378 120.892 33.2775 120.865 31.8143 120.695C30.6218 120.556 30.723 119.819 30.6833 119.132C30.6605 118.76 30.7121 118.362 30.8788 118.027C31.0157 117.753 31.2141 117.638 31.4403 117.604Z" fill="#191919"/>
<path fill-rule="evenodd" clip-rule="evenodd" d="M17.1538 118.469L17.1468 118.428C16.9355 117.229 16.6816 112.684 16.6568 111.472C16.6439 110.877 19.8909 110.767 19.8909 111.904C19.8909 112.861 19.3849 116.626 19.3254 117.579C19.2758 118.351 19.2589 119.292 18.2272 119.343C17.6816 119.369 17.2599 118.974 17.1538 118.469Z" fill="#E7C59B"/>
<path fill-rule="evenodd" clip-rule="evenodd" d="M17.2689 117.409C17.6479 117.339 18.129 117.43 18.503 117.532C19.3393 117.762 20.12 118.333 20.4901 118.645C21.2887 119.322 21.4176 119.614 21.3512 120.076C21.2559 120.746 20.9415 120.953 20.3016 120.99C18.8334 121.079 18.3274 120.998 17.7639 120.952C17.3294 120.916 16.886 120.771 16.7123 120.333C16.4752 119.735 16.4564 118.441 16.7233 117.852C16.8502 117.574 17.0437 117.451 17.2689 117.409ZM36.1873 52.5884C36.1873 52.5884 39.0384 57.5497 39.1118 67.1448C39.1684 74.5852 36.1357 113.779 35.9561 114.271C35.2002 116.346 30.0842 116.288 29.0961 114.241C28.738 113.498 26.1636 66.5496 26.1636 66.5496L25.6527 53.7888C25.6527 53.7888 26.5693 50.528 28.0118 50.0845C29.4542 49.6411 36.1873 52.5884 36.1873 52.5884Z" fill="#191919"/>
<path fill-rule="evenodd" clip-rule="evenodd" d="M16.7242 52.8979C16.7242 52.8979 13.6518 59.3582 13.6528 70.5902C13.6528 78.6456 14.4485 111.76 14.5229 112.779C14.7768 116.288 21.243 115.671 21.6755 113.286C21.9315 111.868 27.7171 67.746 27.7171 67.746L27.6516 53.0815L16.7242 52.8979Z" fill="#191919"/>
<path fill-rule="evenodd" clip-rule="evenodd" d="M23.6121 19.7408C28.9513 21.2656 29.7747 20.7596 30.7032 20.9927C33.5048 21.6941 35.5802 22.9411 36.7676 26.0998C38.339 30.2754 38.2061 46.1035 38.849 50.2145L40.1396 57.9178C41.1277 63.3701 35.3649 63.1211 27.4632 62.6003C20.0258 62.1102 14.263 64.263 13.1083 61.4267C11.6549 57.8593 13.9317 52.8207 13.9803 45.7523C14.0477 35.9241 13.8473 25.6623 16.014 22.1227C17.2937 20.0354 21.8165 19.2279 23.6121 19.7408Z" fill="#666666"/>
<path fill-rule="evenodd" clip-rule="evenodd" d="M31.5799 35.6224L2.04262 40.1948C0.870023 40.9547 1.29859 43.667 2.60016 43.8852C3.05948 43.9616 32.0144 39.5787 32.5263 39.3734C34.2693 38.675 33.8894 35.2663 31.5799 35.6224Z" fill="#D2D2D2"/>
<path fill-rule="evenodd" clip-rule="evenodd" d="M31.4978 40.9686L1.62521 40.0579C0.335545 40.5906 0.266101 43.3356 1.50616 43.788C1.94366 43.9467 31.2091 44.9387 31.7498 44.8296C33.59 44.4626 33.8331 41.042 31.4978 40.9686Z" fill="#D2D2D2"/>
<path fill-rule="evenodd" clip-rule="evenodd" d="M30.443 31.0719C30.2744 31.1493 4.09419 43.8455 3.59519 44.279C2.85909 44.9199 4.01383 47.0241 4.7668 46.7264C5.20032 46.5548 31.3041 33.8397 31.7436 33.5044C32.6513 32.8149 31.4986 30.5888 30.444 31.0719H30.443Z" fill="#D2D2D2"/>
<path fill-rule="evenodd" clip-rule="evenodd" d="M20.2975 43.9636C21.0336 43.8664 21.7221 44.2285 22.3689 44.5291L26.1427 46.1392L26.2935 46.034C26.3034 46.0241 26.3074 46.0112 26.3173 46.0013C27.3074 45.04 31.2488 45.7384 30.7845 47.5251C30.5008 48.6163 28.8014 48.7562 27.9036 48.6659C26.7052 48.5459 25.6318 47.9784 24.4612 47.7443L21.988 47.1888C21.3442 47.0479 20.6527 47.0082 20.0932 46.6372C19.9007 46.5082 20.0029 46.2443 20.2152 46.2305C20.486 46.2126 20.8878 46.409 21.1418 46.285C21.6487 46.035 20.8938 45.7205 20.9166 45.4279C20.9196 45.3981 21.0475 45.169 21.0634 45.1888C21.0016 45.1137 20.9597 45.0244 20.9414 44.9289C20.5872 44.7721 20.246 44.5916 20.1537 44.1928C20.1329 44.0985 20.1964 43.9765 20.2975 43.9636Z" fill="#E7C59B"/>
<path fill-rule="evenodd" clip-rule="evenodd" d="M23.8344 20.2508C24.9386 21.3044 22.4396 24.1694 20.4624 29.4342C18.4853 34.699 17.8464 38.6166 17.7303 39.0849C17.6143 39.5531 24.4733 42.9439 25.8106 43.9975C27.1479 45.051 25.3165 48.7048 23.636 50.0391C22.7005 50.7821 20.2303 48.8516 16.9168 48.3258C13.6034 47.8 8.1144 45.8953 8.77709 41.0144C10.0568 31.5979 13.2363 24.3787 15.2304 22.1228C17.6609 19.3748 22.7303 19.1982 23.8344 20.2508Z" fill="#555656"/>
<path fill-rule="evenodd" clip-rule="evenodd" d="M36.365 43.0223C36.8233 43.4181 47.6843 43.8556 48.091 43.2713C48.4978 42.687 54.4957 24.9144 53.8052 24.345C53.5503 24.1366 42.3738 23.2468 41.0544 23.7269C39.8382 24.1694 35.8591 42.5868 36.365 43.0223Z" fill="#D2D2D2"/>
<path fill-rule="evenodd" clip-rule="evenodd" d="M51.6495 35.6839C51.7884 35.2157 51.9501 34.5778 51.5602 34.2593C50.4719 33.3705 49.7964 35.6899 49.5989 36.3526C49.5044 36.7009 49.5433 37.072 49.7081 37.3932C49.7562 37.4886 49.828 37.57 49.9166 37.6297C50.0052 37.6894 50.1076 37.7254 50.2141 37.7343C50.3206 37.7431 50.4275 37.7245 50.5248 37.6803C50.622 37.636 50.7063 37.5676 50.7696 37.4815C51.1307 37.0004 51.4134 36.4795 51.583 35.8992L51.6495 35.6839Z" fill="#E7C59B"/>
<path fill-rule="evenodd" clip-rule="evenodd" d="M31.6317 36.0431C31.6684 35.9577 31.7408 35.8734 31.845 35.8814C31.8893 35.8845 31.9331 35.8921 31.9759 35.9042C31.9858 35.9042 31.9928 35.8992 32.0017 35.9022C32.4332 36.0232 32.7328 36.4101 32.9035 36.8079C33.1127 37.366 33.1253 37.9788 32.9392 38.545C32.839 38.8099 32.6178 38.9696 32.335 38.9498C31.7299 38.9071 31.595 38.1819 31.5553 37.6968C31.5067 37.1214 31.3966 36.6056 31.6317 36.0431ZM31.4769 43.1442C31.5007 43.4299 31.5136 44.6521 32.084 44.407C32.5255 44.2175 32.7834 43.4318 32.7854 43.0003C32.7894 42.5539 32.7309 42.0301 32.4749 41.6491C32.2438 41.3059 31.7497 41.171 31.5295 41.6025C31.3093 42.034 31.4382 42.6769 31.4769 43.1442ZM30.9382 31.3487C31.3222 31.4489 31.6188 32.0868 31.7339 32.4221C31.9055 32.9241 31.5672 33.5163 31.1168 32.8764C30.9541 32.6453 30.0107 31.1056 30.9382 31.3487Z" fill="#AEAEAE"/>
</g>
</g>
</g>
<defs>
<clipPath id="clip0_128_37">
<rect width="126" height="121.03" fill="white" transform="translate(0.610352)"/>
</clipPath>
<clipPath id="clip1_128_37">
<rect width="126" height="121.03" fill="white" transform="translate(0.610352)"/>
</clipPath>
<clipPath id="clip2_128_37">
<rect width="125.99" height="121.03" fill="white" transform="translate(0.615234)"/>
</clipPath>
</defs>
</svg>
