<svg width="85" height="74" viewBox="0 0 85 74" fill="none" xmlns="http://www.w3.org/2000/svg">
<g clip-path="url(#clip0_102_552)">
<path d="M5.55976 39.7749H4.43576L4.44276 39.0549H5.55976C5.88476 39.0549 6.15676 38.9849 6.37676 38.8419C6.59776 38.6999 6.76476 38.4969 6.87476 38.2319C6.99477 37.9309 7.0526 37.6088 7.04476 37.2849V36.9999C7.04889 36.7446 7.01622 36.4899 6.94776 36.2439C6.89378 36.0421 6.79767 35.8539 6.66576 35.6919C6.54376 35.5431 6.38721 35.4264 6.20976 35.3519C6.01389 35.2713 5.80354 35.2318 5.59176 35.2359H4.41376V34.5139H5.59176C5.94176 34.5139 6.26076 34.5729 6.54976 34.6909C6.83247 34.8022 7.08768 34.9734 7.29776 35.1929C7.50976 35.4129 7.67276 35.6749 7.78576 35.9809C7.89876 36.2869 7.95576 36.6289 7.95576 37.0069V37.2849C7.95576 37.6629 7.89876 38.0049 7.78576 38.3109C7.68008 38.6048 7.51382 38.8733 7.29776 39.0989C7.08272 39.3176 6.82413 39.4886 6.53876 39.6009C6.2261 39.7206 5.89451 39.7796 5.55976 39.7749ZM4.93776 34.5139V39.7739H4.03076V34.5139H4.93776ZM12.3098 39.0559V39.7749H9.51776V39.0549H12.3118L12.3098 39.0559ZM9.77376 34.5139V39.7739H8.86676V34.5139H9.77376ZM11.9458 36.7109V37.4189H9.51676V36.7109H11.9458ZM12.2928 34.5139V35.2359H9.51676V34.5139H12.2928ZM16.3468 39.0559V39.7749H13.7058V39.0549L16.3468 39.0559ZM13.9588 34.5139V39.7739H13.0518V34.5139H13.9588ZM18.0168 34.5139V39.7739H17.1098V34.5139H18.0168ZM22.5888 39.0559V39.7749H19.7948V39.0549L22.5888 39.0559ZM20.0518 34.5139V39.7739H19.1448V34.5139H20.0518ZM22.2238 36.7109V37.4189H19.7948V36.7109H22.2238ZM22.5698 34.5139V35.2359H19.7948V34.5139H22.5698ZM25.1328 38.8129L26.5168 34.5129H27.5178L25.6308 39.7749H24.9558L25.1328 38.8129ZM23.8528 34.5129L25.2268 38.8129L25.4148 39.7749H24.7348L22.8558 34.5139L23.8528 34.5129ZM28.1068 34.5139H29.9678C30.3678 34.5139 30.7088 34.5739 30.9908 34.6939C31.2728 34.8139 31.4878 34.9929 31.6378 35.2289C31.7898 35.4629 31.8648 35.7519 31.8648 36.0959C31.8648 36.3589 31.8168 36.5899 31.7208 36.7899C31.626 36.988 31.4863 37.1613 31.3128 37.2959C31.1368 37.4309 30.9268 37.5359 30.6828 37.6099L30.4088 37.7439H28.7358L28.7288 37.0239H29.9828C30.1988 37.0239 30.3798 36.9859 30.5248 36.9089C30.6619 36.8389 30.7751 36.7296 30.8498 36.5949C30.9256 36.4554 30.9641 36.2987 30.9618 36.1399C30.966 35.9744 30.9289 35.8104 30.8538 35.6629C30.7831 35.5246 30.6684 35.4138 30.5278 35.3479C30.3524 35.2673 30.1606 35.2289 29.9678 35.2359H29.0138V39.7749H28.1068V34.5139ZM31.1098 39.7739L29.8738 37.4109L30.8238 37.4079L32.0788 39.7279V39.7749H31.1098V39.7739ZM33.0978 34.5139L34.3188 37.0239L35.5408 34.5139H36.5458L34.7748 37.8379V39.7749H33.8598V37.8379L32.0898 34.5139H33.0978ZM41.0118 35.2149L39.4398 39.7749H38.4898L40.4698 34.5139H41.0768L41.0118 35.2149ZM42.3278 39.7749L40.7518 35.2149L40.6828 34.5139H41.2938L43.2818 39.7739H42.3278V39.7749ZM42.2518 37.8229V38.5429H39.3898V37.8229H42.2518ZM46.6398 38.4199C46.6415 38.3209 46.6242 38.2224 46.5888 38.1299C46.5528 38.0399 46.4942 37.9607 46.4188 37.8999C46.3134 37.8159 46.1966 37.7476 46.0718 37.6969C45.8884 37.616 45.7 37.5472 45.5078 37.4909C45.2716 37.419 45.0398 37.3332 44.8138 37.2339C44.6176 37.146 44.4329 37.0345 44.2638 36.9019C44.1142 36.7822 43.9904 36.6336 43.8998 36.4649C43.8102 36.2867 43.7656 36.0893 43.7698 35.8899C43.7698 35.6759 43.8138 35.4799 43.9028 35.3049C43.9948 35.1289 44.1228 34.9769 44.2898 34.8499C44.4588 34.7199 44.6568 34.6199 44.8858 34.5499C45.132 34.4748 45.3883 34.438 45.6458 34.4409C46.0358 34.4409 46.3718 34.5139 46.6538 34.6579C46.9378 34.8029 47.1558 34.9969 47.3078 35.2399C47.4618 35.4829 47.5388 35.7519 47.5388 36.0459H46.6388C46.6423 35.8854 46.6037 35.7268 46.5268 35.5859C46.4514 35.4485 46.3355 35.3378 46.1948 35.2689C46.0201 35.1857 45.828 35.146 45.6348 35.1529C45.4198 35.1529 45.2418 35.1859 45.0998 35.2509C44.97 35.3055 44.8593 35.3974 44.7818 35.5149C44.7115 35.6272 44.675 35.7574 44.6768 35.8899C44.6768 35.9899 44.6998 36.0799 44.7448 36.1609C44.7908 36.2409 44.8608 36.3149 44.9548 36.3849C45.0488 36.4529 45.1668 36.5169 45.3088 36.5769C45.4508 36.6369 45.6188 36.6949 45.8118 36.7499C46.1028 36.8369 46.3568 36.9329 46.5738 37.0399C46.7908 37.1429 46.9718 37.2609 47.1158 37.3939C47.2581 37.5216 47.3707 37.6789 47.4457 37.8547C47.5207 38.0306 47.5562 38.2208 47.5498 38.4119C47.5498 38.6339 47.5048 38.8339 47.4158 39.0119C47.3268 39.1879 47.1988 39.3389 47.0328 39.4639C46.8539 39.5939 46.653 39.6904 46.4398 39.7489C46.1902 39.8168 45.9324 39.8498 45.6738 39.8469C45.4208 39.8469 45.1718 39.8129 44.9258 39.7459C44.6885 39.6814 44.4638 39.5776 44.2608 39.4389C44.0608 39.2989 43.9018 39.1249 43.7838 38.9189C43.6619 38.6938 43.6008 38.4408 43.6068 38.1849H44.5138C44.5138 38.3549 44.5428 38.5009 44.6008 38.6219C44.6608 38.7419 44.7438 38.8419 44.8508 38.9179C44.9558 38.9929 45.0788 39.0479 45.2188 39.0839C45.3608 39.1209 45.5128 39.1389 45.6738 39.1389C45.8858 39.1389 46.0638 39.1089 46.2048 39.0489C46.3365 38.999 46.4501 38.9104 46.5308 38.7949C46.6037 38.6836 46.6423 38.5529 46.6398 38.4199ZM51.1198 38.4199C51.1218 38.3209 51.1048 38.2225 51.0698 38.1299C51.0337 38.0399 50.9752 37.9608 50.8998 37.8999C50.7944 37.8159 50.6776 37.7476 50.5528 37.6969C50.3694 37.616 50.181 37.5472 49.9888 37.4909C49.7526 37.419 49.5208 37.3332 49.2948 37.2339C49.099 37.1459 48.9146 37.0344 48.7458 36.9019C48.5959 36.7823 48.4717 36.6337 48.3808 36.4649C48.2912 36.2867 48.2466 36.0893 48.2508 35.8899C48.2508 35.6759 48.2948 35.4799 48.3848 35.3049C48.4758 35.1289 48.6048 34.9769 48.7708 34.8499C48.9398 34.7199 49.1388 34.6199 49.3678 34.5499C49.6134 34.475 49.869 34.4383 50.1258 34.4409C50.5158 34.4409 50.8528 34.5139 51.1348 34.6579C51.4188 34.8029 51.6368 34.9969 51.7888 35.2399C51.9428 35.4829 52.0198 35.7519 52.0198 36.0459H51.1198C51.1233 35.8854 51.0847 35.7268 51.0078 35.5859C50.9324 35.4485 50.8165 35.3378 50.6758 35.2689C50.5012 35.1857 50.3091 35.1459 50.1158 35.1529C49.9008 35.1529 49.7228 35.1859 49.5808 35.2509C49.451 35.3056 49.3404 35.3974 49.2628 35.5149C49.1925 35.6272 49.156 35.7574 49.1578 35.8899C49.1578 35.9899 49.1808 36.0799 49.2268 36.1609C49.2718 36.2409 49.3418 36.3149 49.4368 36.3849C49.5298 36.4529 49.6478 36.5169 49.7898 36.5769C49.9328 36.6369 50.0998 36.6949 50.2928 36.7499C50.5838 36.8369 50.8388 36.9329 51.0548 37.0399C51.2718 37.1429 51.4528 37.2609 51.5968 37.3939C51.7391 37.5216 51.8517 37.6789 51.9267 37.8547C52.0017 38.0306 52.0372 38.2208 52.0308 38.4119C52.0308 38.6339 51.9868 38.8339 51.8968 39.0119C51.8078 39.1879 51.6808 39.3389 51.5138 39.4639C51.3352 39.5938 51.1346 39.6903 50.9218 39.7489C50.6719 39.8169 50.4137 39.8499 50.1548 39.8469C49.9028 39.8469 49.6528 39.8129 49.4068 39.7459C49.1695 39.6814 48.9448 39.5776 48.7418 39.4389C48.5418 39.2989 48.3828 39.1249 48.2648 38.9189C48.1429 38.6938 48.0819 38.4408 48.0878 38.1849H48.9948C48.9948 38.3549 49.0248 38.5009 49.0818 38.6219C49.1418 38.7419 49.2248 38.8419 49.3318 38.9179C49.4368 38.9929 49.5598 39.0479 49.6998 39.0839C49.8418 39.1209 49.9938 39.1389 50.1548 39.1389C50.3668 39.1389 50.5448 39.1089 50.6868 39.0489C50.8181 38.9988 50.9314 38.9103 51.0118 38.7949C51.0847 38.6836 51.1223 38.5529 51.1198 38.4199ZM55.7858 34.5139H56.6888V38.0289C56.6888 38.4289 56.6028 38.7639 56.4288 39.0339C56.2558 39.3039 56.0188 39.5069 55.7208 39.6439C55.408 39.7825 55.0689 39.8517 54.7268 39.8469C54.3488 39.8469 54.0118 39.7789 53.7148 39.6439C53.4264 39.5136 53.1827 39.3015 53.0138 39.0339C52.8448 38.7639 52.7608 38.4289 52.7608 38.0289V34.5139H53.6638V38.0289C53.6638 38.2819 53.7078 38.4909 53.7938 38.6539C53.8808 38.8159 54.0038 38.9349 54.1638 39.0119C54.3218 39.0889 54.5098 39.1279 54.7268 39.1279C54.9438 39.1279 55.1308 39.0889 55.2868 39.0119C55.4452 38.9356 55.5747 38.81 55.6558 38.6539C55.7428 38.4909 55.7858 38.2819 55.7858 38.0289V34.5139ZM57.6758 34.5139H59.5368C59.9368 34.5139 60.2778 34.5739 60.5598 34.6939C60.8418 34.8139 61.0568 34.9929 61.2068 35.2289C61.3578 35.4629 61.4338 35.7519 61.4338 36.0959C61.4338 36.3589 61.3858 36.5899 61.2898 36.7899C61.195 36.988 61.0553 37.1613 60.8818 37.2959C60.7058 37.4309 60.4958 37.5359 60.2518 37.6099L59.9778 37.7439H58.3048L58.2968 37.0239H59.5518C59.7678 37.0239 59.9488 36.9859 60.0938 36.9089C60.2309 36.8389 60.3441 36.7296 60.4188 36.5949C60.4946 36.4554 60.5331 36.2987 60.5308 36.1399C60.535 35.9744 60.4979 35.8104 60.4228 35.6629C60.3522 35.5246 60.2374 35.4137 60.0968 35.3479C59.9214 35.2673 59.7296 35.2289 59.5368 35.2359H58.5828V39.7749H57.6758V34.5139ZM60.6788 39.7739L59.4428 37.4109L60.3928 37.4079L61.6478 39.7279V39.7749H60.6788V39.7739ZM64.3868 35.2149L62.8148 39.7749H61.8648L63.8448 34.5139H64.4518L64.3868 35.2149ZM65.7018 39.7749L64.1268 35.2149L64.0578 34.5139H64.6678L66.6568 39.7739H65.7018V39.7749ZM65.6268 37.8229V38.5429H62.7638V37.8229H65.6268ZM71.4198 34.5139V39.7739H70.5128L68.1528 36.0059V39.7749H67.2458V34.5139H68.1528L70.5198 38.2899V34.5139H71.4198ZM75.6078 38.0619H76.5118C76.4885 38.3874 76.3892 38.7028 76.2218 38.9829C76.0547 39.2537 75.8159 39.4728 75.5318 39.6159C75.2358 39.7699 74.8758 39.8459 74.4518 39.8459C74.1258 39.8459 73.8338 39.7889 73.5728 39.6729C73.3164 39.5577 73.0884 39.3877 72.9048 39.1749C72.7116 38.9446 72.5665 38.6781 72.4778 38.3909C72.3777 38.0582 72.3292 37.7122 72.3338 37.3649V36.9269C72.3338 36.5489 72.3838 36.2069 72.4818 35.9009C72.5828 35.5949 72.7278 35.3339 72.9158 35.1169C73.1038 34.8969 73.3288 34.7309 73.5918 34.6149C73.8738 34.4957 74.1776 34.4365 74.4838 34.4409C74.9038 34.4409 75.2578 34.5189 75.5468 34.6729C75.8358 34.8269 76.0598 35.0399 76.2188 35.3129C76.3798 35.5839 76.4788 35.8959 76.5148 36.2479H75.6118C75.5942 36.0458 75.54 35.8486 75.4518 35.6659C75.3763 35.5088 75.2526 35.3799 75.0988 35.2979C74.9418 35.2109 74.7368 35.1679 74.4838 35.1679C74.2768 35.1679 74.0958 35.2059 73.9418 35.2829C73.7878 35.3599 73.6588 35.4729 73.5548 35.6229C73.4518 35.7729 73.3738 35.9569 73.3198 36.1759C73.2698 36.3929 73.2448 36.6409 73.2448 36.9199V37.3649C73.2448 37.6289 73.2668 37.8699 73.3128 38.0869C73.3618 38.3019 73.4328 38.4859 73.5298 38.6399C73.6288 38.7939 73.7538 38.9129 73.9058 38.9979C74.0578 39.0819 74.2398 39.1239 74.4518 39.1239C74.7098 39.1239 74.9178 39.0839 75.0768 39.0009C75.2333 38.9238 75.3612 38.7987 75.4418 38.6439C75.5327 38.4619 75.589 38.2645 75.6078 38.0619ZM80.7798 39.0559V39.7749H77.9858V39.0549L80.7798 39.0559ZM78.2428 34.5139V39.7739H77.3358V34.5139H78.2428ZM80.4148 36.7109V37.4189H77.9858V36.7109H80.4148ZM80.7608 34.5139V35.2359H77.9858V34.5139H80.7608Z" fill="black"/>
<path fill-rule="evenodd" clip-rule="evenodd" d="M3.5 28.063V26.406H14.085V16.246L14.933 15.756L41.504 0.417L42.222 0L42.941 0.416L69.511 15.756L70.357 16.246V26.406H81.5V28.063H3.5ZM42.223 1.658L15.757 17.205V26.405H68.686V17.205L42.223 1.658ZM42.222 4.466L66.16 18.287V24.196H64.593V19.229L42.222 6.18L19.85 19.23V23.967H18.283V18.288L42.222 4.468V4.466Z" fill="black"/>
<path d="M42.403 11.6589L41.013 15.3589H37.5229L40.4729 17.5789L39.053 21.3089L42.403 18.7889L45.763 21.3089L44.333 17.5789L47.283 15.3589H43.783L42.403 11.6589Z" fill="black"/>
<path fill-rule="evenodd" clip-rule="evenodd" d="M3.5 45.937V47.594H14.085V57.754L14.933 58.244L41.504 73.584L42.222 74L42.941 73.584L69.511 58.244L70.357 57.754V47.594H81.5V45.937H3.5ZM42.223 72.342L15.757 56.795V47.595H68.686V56.795L42.223 72.342ZM42.222 69.534L66.16 55.713V49.804H64.593V54.771L42.222 67.818L19.85 54.772V50.035H18.283V55.714L42.222 69.534Z" fill="black"/>
<path d="M42.403 62.3419L41.013 58.6419H37.5229L40.4729 56.4219L39.053 52.6919L42.403 55.2119L45.763 52.6919L44.333 56.4219L47.283 58.6419H43.783L42.403 62.3419Z" fill="black"/>
</g>
<defs>
<clipPath id="clip0_102_552">
<rect width="78" height="74" fill="white" transform="translate(3.5)"/>
</clipPath>
</defs>
</svg>
