<svg width="46" height="45" viewBox="0 0 46 45" fill="none" xmlns="http://www.w3.org/2000/svg">
<g clip-path="url(#clip0_26_288)">
<g clip-path="url(#clip1_26_288)">
<g clip-path="url(#clip2_26_288)">
<path d="M45.184 4.79932H27.8502C27.6556 4.79932 27.469 4.87662 27.3314 5.01421C27.1938 5.15181 27.1165 5.33842 27.1165 5.53301V8.81703C27.1165 9.01162 27.1938 9.19824 27.3314 9.33584C27.469 9.47343 27.6556 9.55073 27.8502 9.55073C28.0448 9.55073 28.2314 9.47343 28.369 9.33584C28.5066 9.19824 28.5839 9.01162 28.5839 8.81703V6.26671H44.4503V43.0434H37.4802V14.759C37.4804 14.6006 37.4294 14.4464 37.3347 14.3195C37.24 14.1925 37.1068 14.0996 36.9549 14.0546L22.0051 9.64269C21.8958 9.61047 21.7805 9.60417 21.6683 9.62427C21.5562 9.64436 21.4502 9.69032 21.3589 9.75848C21.2676 9.82664 21.1934 9.91514 21.1422 10.017C21.091 10.1188 21.0643 10.2311 21.064 10.3451V12.959C21.064 13.1536 21.1413 13.3402 21.2789 13.4778C21.4165 13.6154 21.6031 13.6927 21.7977 13.6927C21.9923 13.6927 22.1789 13.6154 22.3165 13.4778C22.4541 13.3402 22.5314 13.1536 22.5314 12.959V11.3273L36.0128 15.3078V43.0434H32.3444V27.8188C32.3444 27.6242 32.2671 27.4376 32.1295 27.3C31.9919 27.1624 31.8053 27.0851 31.6107 27.0851H29.2726C29.078 27.0851 28.8914 27.1624 28.7538 27.3C28.6162 27.4376 28.5389 27.6242 28.5389 27.8188C28.5389 28.0134 28.6162 28.2 28.7538 28.3376C28.8914 28.4752 29.078 28.5525 29.2726 28.5525H30.877V43.0434H26.7497V16.8133C26.7497 16.6188 26.6724 16.4321 26.5348 16.2945C26.3972 16.1569 26.2106 16.0796 26.016 16.0796H8.22437C8.02978 16.0796 7.84316 16.1569 7.70556 16.2945C7.56797 16.4321 7.49067 16.6188 7.49067 16.8133V43.0434H3.36339V28.5525H4.99708C5.19167 28.5525 5.37829 28.4752 5.51588 28.3376C5.65348 28.2 5.73078 28.0134 5.73078 27.8188C5.73078 27.6242 5.65348 27.4376 5.51588 27.3C5.37829 27.1624 5.19167 27.0851 4.99708 27.0851H2.62969C2.4351 27.0851 2.24849 27.1624 2.11089 27.3C1.9733 27.4376 1.896 27.6242 1.896 27.8188V43.7771C1.896 44.1821 2.22469 44.5108 2.62969 44.5108H45.184C45.3786 44.5108 45.5652 44.4335 45.7028 44.2959C45.8404 44.1584 45.9177 43.9717 45.9177 43.7771V5.53301C45.9177 5.33842 45.8404 5.15181 45.7028 5.01421C45.5652 4.87662 45.3786 4.79932 45.184 4.79932ZM13.6351 43.0434V37.7237H20.6052V43.0434H13.6351ZM22.0726 43.0434V36.99C22.0726 36.7954 21.9953 36.6088 21.8577 36.4712C21.7201 36.3336 21.5335 36.2563 21.3389 36.2563H12.9014C12.7068 36.2563 12.5202 36.3336 12.3826 36.4712C12.245 36.6088 12.1677 36.7954 12.1677 36.99V43.0434H8.95806V17.547H25.2823V43.0434H22.0726Z" fill="#9A0000"/>
<path d="M41.3321 9.66031H34.8365C34.6419 9.66031 34.4553 9.73761 34.3177 9.87521C34.1801 10.0128 34.1028 10.1994 34.1028 10.394C34.1028 10.5886 34.1801 10.7752 34.3177 10.9128C34.4553 11.0504 34.6419 11.1277 34.8365 11.1277H41.3321C41.5267 11.1277 41.7133 11.0504 41.8509 10.9128C41.9885 10.7752 42.0658 10.5886 42.0658 10.394C42.0658 10.1994 41.9885 10.0128 41.8509 9.87521C41.7133 9.73761 41.5267 9.66031 41.3321 9.66031ZM41.3321 16.9973H39.9557C39.7611 16.9973 39.5745 17.0746 39.4369 17.2122C39.2993 17.3498 39.222 17.5364 39.222 17.731C39.222 17.9256 39.2993 18.1122 39.4369 18.2498C39.5745 18.3874 39.7611 18.4647 39.9557 18.4647H41.3321C41.5267 18.4647 41.7133 18.3874 41.8509 18.2498C41.9885 18.1122 42.0658 17.9256 42.0658 17.731C42.0658 17.5364 41.9885 17.3498 41.8509 17.2122C41.7133 17.0746 41.5267 16.9973 41.3321 16.9973ZM41.3321 23.4166H39.9557C39.7611 23.4166 39.5745 23.4939 39.4369 23.6315C39.2993 23.7691 39.222 23.9557 39.222 24.1503C39.222 24.3449 39.2993 24.5315 39.4369 24.6691C39.5745 24.8067 39.7611 24.884 39.9557 24.884H41.3321C41.5267 24.884 41.7133 24.8067 41.8509 24.6691C41.9885 24.5315 42.0658 24.3449 42.0658 24.1503C42.0658 23.9557 41.9885 23.7691 41.8509 23.6315C41.7133 23.4939 41.5267 23.4166 41.3321 23.4166ZM41.3321 29.8369H39.9557C39.7611 29.8369 39.5745 29.9142 39.4369 30.0518C39.2993 30.1894 39.222 30.376 39.222 30.5706C39.222 30.7652 39.2993 30.9518 39.4369 31.0894C39.5745 31.227 39.7611 31.3043 39.9557 31.3043H41.3321C41.5267 31.3043 41.7133 31.227 41.8509 31.0894C41.9885 30.9518 42.0658 30.7652 42.0658 30.5706C42.0658 30.376 41.9885 30.1894 41.8509 30.0518C41.7133 29.9142 41.5267 29.8369 41.3321 29.8369ZM41.3321 36.2573H39.9557C39.7611 36.2573 39.5745 36.3346 39.4369 36.4722C39.2993 36.6098 39.222 36.7964 39.222 36.991C39.222 37.1856 39.2993 37.3722 39.4369 37.5098C39.5745 37.6474 39.7611 37.7247 39.9557 37.7247H41.3321C41.5267 37.7247 41.7133 37.6474 41.8509 37.5098C41.9885 37.3722 42.0658 37.1856 42.0658 36.991C42.0658 36.7964 41.9885 36.6098 41.8509 36.4722C41.7133 36.3346 41.5267 36.2573 41.3321 36.2573ZM32.7097 20.7577C32.9043 20.7577 33.0909 20.6804 33.2285 20.5428C33.3661 20.4052 33.4434 20.2186 33.4434 20.024C33.4434 19.8294 33.3661 19.6428 33.2285 19.5052C33.0909 19.3676 32.9043 19.2903 32.7097 19.2903H31.0604C30.8658 19.2903 30.6792 19.3676 30.5416 19.5052C30.404 19.6428 30.3267 19.8294 30.3267 20.024C30.3267 20.2186 30.404 20.4052 30.5416 20.5428C30.6792 20.6804 30.8658 20.7577 31.0604 20.7577H32.7107H32.7097ZM17.1202 20.5738C16.9256 20.5738 16.7389 20.6511 16.6014 20.7887C16.4638 20.9263 16.3865 21.1129 16.3865 21.3075V33.2315C16.3865 33.4261 16.4638 33.6127 16.6014 33.7503C16.7389 33.8879 16.9256 33.9652 17.1202 33.9652C17.3147 33.9652 17.5014 33.8879 17.639 33.7503C17.7765 33.6127 17.8538 33.4261 17.8538 33.2315V21.3065C17.8538 21.1119 17.7765 20.9253 17.639 20.7877C17.5014 20.6501 17.3147 20.5738 17.1202 20.5738ZM12.5331 21.3994C12.3385 21.3994 12.1519 21.4767 12.0143 21.6143C11.8767 21.7519 11.7994 21.9385 11.7994 22.1331V32.4049C11.7994 32.5995 11.8767 32.7861 12.0143 32.9237C12.1519 33.0613 12.3385 33.1386 12.5331 33.1386C12.7277 33.1386 12.9143 33.0613 13.0519 32.9237C13.1895 32.7861 13.2668 32.5995 13.2668 32.4049V22.1331C13.2668 21.9385 13.1895 21.7519 13.0519 21.6143C12.9143 21.4767 12.7277 21.3994 12.5331 21.3994ZM21.7072 21.3994C21.5126 21.3994 21.326 21.4767 21.1884 21.6143C21.0508 21.7519 20.9735 21.9385 20.9735 22.1331V32.4049C20.9735 32.5995 21.0508 32.7861 21.1884 32.9237C21.326 33.0613 21.5126 33.1386 21.7072 33.1386C21.9018 33.1386 22.0884 33.0613 22.226 32.9237C22.3636 32.7861 22.4409 32.5995 22.4409 32.4049V22.1331C22.4409 21.9385 22.3636 21.7519 22.226 21.6143C22.0884 21.4767 21.9018 21.3994 21.7072 21.3994ZM6.37689 10.486H13.9046C14.761 10.4849 15.582 10.1443 16.1876 9.53871C16.7931 8.93315 17.1338 8.11214 17.1348 7.25575C17.1338 6.39936 16.7931 5.57834 16.1876 4.97278C15.582 4.36722 14.761 4.02656 13.9046 4.02553C12.8765 4.02553 11.9002 4.52249 11.2927 5.35401C11.178 5.51136 11.1305 5.70783 11.1607 5.90019C11.1909 6.09255 11.2962 6.26504 11.4536 6.37971C11.6109 6.49439 11.8074 6.54186 11.9998 6.51168C12.1921 6.4815 12.3646 6.37615 12.4793 6.21879C12.6988 5.91874 13.0074 5.69566 13.3612 5.58139C13.715 5.46712 14.0958 5.4675 14.4493 5.58245C14.8029 5.69741 15.1111 5.92108 15.33 6.22156C15.5489 6.52204 15.6674 6.88398 15.6684 7.25575C15.6684 8.22716 14.876 9.01857 13.9046 9.01857H6.37689C5.65591 9.01857 5.06896 8.43162 5.06896 7.71064C5.06896 7.0102 5.62461 6.38705 6.44439 6.40466C6.55636 6.40705 6.66739 6.38378 6.76898 6.33663C6.87056 6.28948 6.96 6.21969 7.03045 6.13263C7.10089 6.04556 7.15047 5.94353 7.17539 5.83434C7.2003 5.72515 7.19988 5.61171 7.17417 5.5027C7.04567 4.9586 7.07815 4.38888 7.26764 3.86291C7.45713 3.33693 7.79547 2.8774 8.24145 2.54027C8.68743 2.20314 9.22181 2.00296 9.77953 1.9641C10.3372 1.92524 10.8942 2.04938 11.3827 2.3214C11.5526 2.41636 11.7533 2.43992 11.9406 2.3869C12.1279 2.33388 12.2865 2.20862 12.3815 2.03868C12.4764 1.86874 12.5 1.66804 12.447 1.48073C12.3939 1.29341 12.2687 1.13484 12.0987 1.03988C11.4215 0.662741 10.6559 0.473303 9.88099 0.491143C9.10606 0.508984 8.34996 0.733456 7.69084 1.14136C7.03171 1.54926 6.49348 2.12579 6.13178 2.81135C5.77008 3.49692 5.59803 4.26664 5.63341 5.04096C5.04881 5.20182 4.53327 5.55035 4.16614 6.0329C3.79901 6.51545 3.60064 7.10528 3.60157 7.71162C3.6026 8.44727 3.89536 9.15248 4.41564 9.67258C4.93592 10.1927 5.64124 10.4852 6.37689 10.486Z" fill="#9A0000"/>
</g>
</g>
</g>
<defs>
<clipPath id="clip0_26_288">
<rect width="45" height="45" fill="white" transform="translate(0.919922)"/>
</clipPath>
<clipPath id="clip1_26_288">
<rect width="45" height="45" fill="white" transform="translate(0.919922)"/>
</clipPath>
<clipPath id="clip2_26_288">
<rect width="45" height="44.0217" fill="white" transform="translate(0.919922 0.489014)"/>
</clipPath>
</defs>
</svg>
