<svg width="90" height="121" viewBox="0 0 90 121" fill="none" xmlns="http://www.w3.org/2000/svg">
<g clip-path="url(#clip0_128_142)">
<g clip-path="url(#clip1_128_142)">
<g clip-path="url(#clip2_128_142)">
<path fill-rule="evenodd" clip-rule="evenodd" d="M34.1514 20.0303C34.1514 20.0303 36.6067 22.096 37.7073 26.5765C38.5775 30.1146 40.6254 39.6649 40.745 39.7816C40.8637 39.8973 42.8226 42.7412 43.7155 44.6398C44.6095 46.5384 46.8799 52.4182 46.8799 52.4182L45.1524 53.5454C45.1524 53.5454 38.7802 46.131 37.3503 42.6869C36.312 40.1851 35.3251 37.0524 35.3251 37.0524L34.1514 20.0303Z" fill="#E7C59B"/>
<path fill-rule="evenodd" clip-rule="evenodd" d="M47.5403 53.5127C47.5403 53.5127 49.696 54.4887 49.8275 55.9096C49.958 57.3306 49.4478 57.8834 48.4174 57.6896C47.0201 57.4246 45.8009 54.6864 45.8009 54.6864L43.0044 50.7646L46.32 50.9901L47.5403 53.5127Z" fill="#E7C59B"/>
<path fill-rule="evenodd" clip-rule="evenodd" d="M85.2917 82.8994L48.1623 101.319C45.5043 102.638 42.2757 101.559 40.9526 98.9109L28.762 74.5149C28.4474 73.8848 28.2603 73.1988 28.2116 72.4962C28.1628 71.7936 28.2533 71.0883 28.4779 70.4208C28.7024 69.7533 29.0566 69.1367 29.5201 68.6064C29.9836 68.0762 30.5473 67.6427 31.1788 67.3309L68.3092 48.9105C70.9672 47.5924 74.1948 48.6702 75.5179 51.3194L87.7085 75.7154C88.023 76.3455 88.2099 77.0315 88.2586 77.7341C88.3073 78.4366 88.2168 79.1419 87.9923 79.8093C87.7677 80.4768 87.4136 81.0934 86.9502 81.6236C86.4867 82.1539 85.9231 82.5875 85.2917 82.8994Z" fill="#FAC73D"/>
<path fill-rule="evenodd" clip-rule="evenodd" d="M52.7883 54.5749C52.4323 54.5749 52.0783 54.657 51.75 54.8201L45.8921 57.7263C45.6173 57.8614 45.3721 58.0496 45.1706 58.2801C44.9691 58.5107 44.8154 58.7789 44.7183 59.0692C44.6201 59.3586 44.5804 59.6647 44.6016 59.9696C44.6229 60.2745 44.7045 60.5722 44.8419 60.8452L45.2374 61.6363L55.2763 56.6564L54.8807 55.8653C54.7444 55.5911 54.5551 55.3467 54.3238 55.146C54.0924 54.9454 53.8237 54.7926 53.5329 54.6965C53.2929 54.6161 53.0415 54.575 52.7883 54.5749ZM44.5947 63.5457L43.5623 61.479C43.3411 61.0391 43.2096 60.5594 43.1754 60.0681C43.1413 59.5768 43.2053 59.0837 43.3636 58.6173C43.52 58.1492 43.7677 57.7167 44.0924 57.345C44.4171 56.9732 44.8124 56.6696 45.2552 56.4517L51.1132 53.5445C51.5556 53.3239 52.0371 53.1929 52.5303 53.159C53.0234 53.1251 53.5184 53.1889 53.9868 53.3467C54.4556 53.5015 54.8891 53.7476 55.2622 54.071C55.6352 54.3943 55.9405 54.7884 56.1603 55.2305L57.1927 57.2972L44.5947 63.5457Z" fill="#FAC73D"/>
<path fill-rule="evenodd" clip-rule="evenodd" d="M34.5674 10.0022C34.4616 8.93918 34.3053 7.91374 34.3004 6.84578C34.2905 5.73529 34.4487 4.40628 34.0186 3.35711C33.5617 2.24168 32.2377 1.17767 30.9927 1.20635C30.9426 1.07867 30.8568 0.968127 30.7455 0.88794C30.2323 0.494377 29.5124 0.309462 28.8924 0.180911C27.6019 -0.0752019 26.1829 -0.107834 24.9468 0.404392C22.4282 1.45258 21.3415 3.65574 20.7175 6.09029C20.4308 6.77062 20.0451 7.3402 19.6545 7.95725C18.988 9.01532 18.1396 9.9221 17.4444 10.9614C16.7433 12.0106 16.0818 13.4108 15.8385 14.8209C14.557 16.5217 13.3565 18.1731 13.2804 20.4652C13.2141 22.44 14.2376 24.5334 16.3577 24.8231C17.4869 24.9794 18.8446 24.8557 19.8879 24.3722C20.584 24.0538 21.293 23.6553 22.0416 23.4654C22.804 23.2756 23.6514 23.499 24.4188 23.5603C26.6674 23.7314 28.6115 23.1055 30.1027 21.5708C30.1265 21.6993 30.3222 21.7468 30.4221 21.6618C31.1746 21.0586 31.7324 20.0756 32.1516 19.2361C32.6322 18.272 33.1998 17.3039 33.6092 16.3121C34.4339 14.3363 34.776 12.1292 34.5674 10.0032V10.0022Z" fill="#222222"/>
<path fill-rule="evenodd" clip-rule="evenodd" d="M3.45259 115.879C3.45565 115.865 3.45895 115.852 3.46247 115.839C3.78978 114.647 5.46292 110.356 5.96823 109.234C6.21643 108.682 9.4925 109.767 8.99708 110.808C8.57979 111.684 6.32026 115.164 5.85055 116.011C5.46984 116.698 5.04266 117.554 4.06567 117.149C3.54751 116.935 3.33195 116.388 3.45259 115.879Z" fill="#E7C59B"/>
<path fill-rule="evenodd" clip-rule="evenodd" d="M4.05778 114.839C4.42959 114.972 4.76284 115.352 5.08718 115.582C6.16206 116.345 7.12026 117.194 8.15855 118.001C8.74198 118.457 9.48757 119.41 9.03369 120.244C8.56893 121.102 7.38923 120.341 6.80284 120.046C5.458 119.367 4.15074 118.641 2.9117 117.785C1.90011 117.086 2.34707 116.476 2.63977 115.841C2.79799 115.498 3.03531 115.167 3.34779 114.947C3.60192 114.768 3.83727 114.76 4.05778 114.839ZM27.7843 71.7609C27.3462 71.5246 26.04 83.1545 23.2969 89.9192C21.4626 94.4422 14.0699 113.915 13.1463 114.248C11.1281 114.976 3.14112 113.061 1.2356 108.433C0.683818 107.093 8.88437 87.4273 9.83861 85.0531C10.7909 82.6798 14.4951 60.6067 14.4951 60.6067C14.4951 60.6067 20.7773 56.3338 22.2161 57.0468C23.6539 57.7578 29.5207 63.2172 29.5059 63.9292C29.4901 64.6412 27.7843 71.7609 27.7843 71.7609Z" fill="#191919"/>
<path fill-rule="evenodd" clip-rule="evenodd" d="M33.1228 10.8379C32.8419 12.4003 32.4988 13.6631 31.3369 14.8022C30.8217 15.3105 30.1879 15.5943 29.5115 15.7179C29.5115 15.7327 29.5016 15.7416 29.5016 15.7565C29.5016 15.7901 29.4967 15.8326 29.4967 15.8652C29.4959 15.9037 29.4926 15.942 29.4868 15.98C29.4927 15.9898 29.4868 15.9938 29.4868 15.9987C29.4516 16.4965 29.3915 16.9922 29.3068 17.484C29.2682 17.7312 29.5263 18.1159 29.6549 18.2395C30.35 18.9218 29.0972 19.9769 28.6017 20.2271C27.873 20.5979 26.8248 20.9539 25.9862 20.8214C24.9094 20.6503 22.1791 19.1126 23.1561 17.6739C23.1848 17.6264 23.2224 17.5888 23.2708 17.5789C23.2708 17.5315 23.2807 17.4939 23.2847 17.4405C23.3331 16.4348 23.4132 15.4331 23.4706 14.4225C23.5368 13.1746 23.5991 10.9289 23.5991 10.9289C23.5991 10.9289 21.8123 8.72573 22.2988 7.37891C22.4985 6.81725 23.2748 6.94184 23.2748 6.94184C23.4419 6.46719 23.6189 5.9965 23.8038 5.53174C24.1707 4.58244 25.033 3.66083 25.9575 3.21881C27.3152 2.57803 29.4166 2.78273 30.7218 3.40867C32.0133 4.02176 32.6659 4.98095 32.9804 6.16262C33.0793 6.46719 33.1653 6.77571 33.2177 7.0783C33.2177 7.08819 33.2236 7.10203 33.2236 7.11192C33.2424 7.20685 33.2612 7.29684 33.2711 7.39177C33.281 7.44912 33.2899 7.50054 33.2899 7.5579C33.2998 7.59547 33.3037 7.63404 33.3037 7.6726C33.3235 7.78138 33.3275 7.89015 33.3275 7.99892C33.3947 8.93537 33.2988 9.87972 33.1228 10.8389V10.8379Z" fill="#E7C59B"/>
<path fill-rule="evenodd" clip-rule="evenodd" d="M27.5794 16.9569C28.0966 17.2278 28.6998 17.4315 29.305 17.4879C29.3871 16.9974 29.4553 16.504 29.4909 15.9997C29.4824 15.9956 29.4734 15.9926 29.4642 15.9908C29.4741 15.9888 29.482 15.9829 29.4909 15.9809C29.4909 15.9413 29.4978 15.9047 29.4988 15.8662C29.4958 15.8326 29.5018 15.792 29.5037 15.7574C29.2417 15.6615 29.036 15.7228 28.7136 15.704C28.1723 15.6815 27.6481 15.5074 27.2007 15.2017C26.8615 14.9584 26.1723 14.3216 26.0467 15.1146C25.9241 15.878 27.0059 16.6533 27.5794 16.9569Z" fill="#D3AE7F"/>
<path fill-rule="evenodd" clip-rule="evenodd" d="M43.128 117.242L43.1092 117.206C42.5634 116.096 40.9723 111.775 40.6054 110.6C40.4264 110.023 43.6017 108.677 43.922 109.785C44.191 110.717 44.8051 114.817 45.0147 115.762C45.1848 116.528 45.433 117.451 44.4313 117.791C43.9003 117.972 43.3742 117.704 43.128 117.242Z" fill="#E7C59B"/>
<path fill-rule="evenodd" clip-rule="evenodd" d="M42.8898 116.065C43.2566 115.919 43.76 115.984 44.1555 115.943C45.4677 115.807 46.7502 115.813 48.0644 115.734C48.8041 115.692 49.9967 115.915 50.2102 116.841C50.4298 117.791 49.0404 117.998 48.4046 118.162C46.9451 118.539 45.4825 118.855 43.9844 119.029C42.7622 119.171 42.693 118.419 42.4913 117.75C42.3825 117.388 42.34 116.983 42.429 116.612C42.5012 116.311 42.6712 116.151 42.8898 116.065ZM32.4376 50.7509C32.4376 50.7509 36.2388 50.915 38.7544 64.4405C40.1348 71.8639 46.6771 111.189 46.6128 111.716C46.3448 113.943 36.6323 115.965 35.1688 114.175C34.6368 113.525 24.3201 66.8968 24.3201 66.8968L22.2148 54.4027C22.2148 54.4027 22.3671 50.9684 23.7011 50.1932C25.0351 49.4169 32.4376 50.7509 32.4376 50.7509Z" fill="#191919"/>
<path fill-rule="evenodd" clip-rule="evenodd" d="M23.2728 17.5808C23.2728 17.5808 24.5227 18.4708 26.8148 18.3818C29.107 18.2928 29.371 17.8082 29.371 17.8082C29.371 17.8082 33.0199 18.6428 34.3726 20.2566C36.0398 22.2442 36.4868 28.0587 36.5165 30.1649C36.5788 34.6 36.5184 39.6302 36.6964 42.9043C36.8744 46.1794 38.3033 51.6458 38.8986 55.1463C39.4939 58.6488 40.9831 60.2508 36.2188 60.9628C31.4545 61.6747 31.8125 60.0135 27.2855 61.3187C22.7595 62.624 19.9008 62.802 17.1023 62.5647C14.3039 62.3274 11.4649 61.0419 11.2325 59.3806C10.5561 54.5352 14.471 43.7518 14.1733 40.1177C13.8767 36.4827 14.6233 23.8561 16.6653 20.85C18.2959 18.45 23.2728 17.5808 23.2728 17.5808Z" fill="#666666"/>
<path fill-rule="evenodd" clip-rule="evenodd" d="M33.3967 5.51778C33.3865 5.42664 33.3656 5.33702 33.3344 5.25079C33.463 4.55365 32.7104 3.97517 32.2674 3.52722C31.9955 3.25726 31.5624 3.06246 31.2143 2.92007C30.9434 2.81129 30.7426 2.66395 30.4954 2.71636C30.2185 2.55419 30.0237 2.2694 29.6845 2.15074C28.8045 1.84222 27.3647 1.88078 26.5173 2.25556C25.5784 2.67891 24.7427 3.30105 24.0679 4.079C23.5823 4.64759 23.2481 5.03819 22.5668 5.38923C22.3245 5.51284 21.9725 5.59689 21.8242 5.8441C21.7717 5.93508 21.8291 6.03396 21.9201 6.06264C23.082 7.70413 25.03 6.68957 26.3976 5.79664C27.427 5.12224 28.6176 5.00852 29.6282 4.32522C29.9763 4.0879 30.2334 3.88815 30.3856 3.60336C30.4806 3.95045 31.1243 4.29655 31.3478 4.42015C31.686 4.60507 32.0627 4.70989 32.4009 4.88986C32.7628 5.07972 32.8815 5.35462 33.0674 5.70171C33.0832 5.72956 33.1063 5.75262 33.1341 5.76845C33.162 5.78429 33.1936 5.79232 33.2256 5.79169C33.3918 5.78279 33.4056 5.66413 33.3967 5.51778Z" fill="#222222"/>
<path fill-rule="evenodd" clip-rule="evenodd" d="M29.9052 25.9574C29.7233 26.0128 1.16917 34.5377 0.660899 34.9817C-0.413983 35.9211 0.426541 38.5791 1.7783 38.6009C2.25493 38.6088 30.9386 29.8614 31.4261 29.5796C33.0873 28.6165 32.1914 25.2534 29.9052 25.9574Z" fill="#D2D2D2"/>
<path fill-rule="evenodd" clip-rule="evenodd" d="M30.0207 26.3726C30.0435 26.2807 30.1048 26.1848 30.2106 26.1769C30.2564 26.1735 30.3025 26.1748 30.3481 26.1808C30.3579 26.1808 30.3639 26.1729 30.3728 26.1749C30.8286 26.2312 31.1906 26.5744 31.4229 26.9492C31.7058 27.404 31.8363 28.1595 31.7196 28.6866C31.6573 28.9664 31.4575 29.1612 31.1678 29.183C30.5478 29.2314 30.3026 28.5244 30.1889 28.0428C30.0544 27.4713 29.8655 26.9729 30.0207 26.3726Z" fill="#AEAEAE"/>
<path fill-rule="evenodd" clip-rule="evenodd" d="M31.7523 35.4355C31.5645 35.4078 2.0927 30.9442 1.44401 31.1281C0.0695099 31.5197 -0.312187 34.2806 0.900146 34.8758C1.32832 35.0875 31.0097 39.4048 31.5724 39.3573C33.4868 39.1961 34.1206 35.7737 31.7523 35.4355Z" fill="#D2D2D2"/>
<path fill-rule="evenodd" clip-rule="evenodd" d="M31.4875 37.6259C31.4776 37.9176 31.354 39.1517 31.9621 38.9688C32.4328 38.8274 32.7839 38.065 32.8363 37.6299C32.8897 37.18 32.8897 36.645 32.6721 36.2316C32.4754 35.8588 31.9879 35.668 31.7149 36.0784C31.441 36.4917 31.5004 37.1503 31.4875 37.6259Z" fill="#AEAEAE"/>
<path fill-rule="evenodd" clip-rule="evenodd" d="M31.9858 30.5555C31.8018 30.603 3.12413 38.5731 2.54367 38.9163C1.68634 39.4236 2.47446 41.7325 3.28531 41.5704C3.75304 41.4774 32.3576 33.4736 32.8609 33.2185C33.8992 32.6924 33.1378 30.2618 31.9858 30.5555Z" fill="#D2D2D2"/>
<path fill-rule="evenodd" clip-rule="evenodd" d="M32.4325 30.9195C32.8024 31.0896 32.9863 31.7798 33.0417 32.1358C33.1257 32.6678 32.6768 33.1988 32.3376 32.4779C32.215 32.2179 31.5396 30.5101 32.4325 30.9195Z" fill="#AEAEAE"/>
<path fill-rule="evenodd" clip-rule="evenodd" d="M19.2314 19.6941C21.7787 20.228 21.0677 22.9859 20.1728 27.7334C19.2769 32.4799 17.9864 37.3372 17.9864 37.3372C17.9864 37.3372 19.2967 37.6427 21.7975 38.1767C24.2993 38.7107 29.5026 40.1178 29.5026 40.1178L29.1842 42.5682C29.1842 42.5682 18.026 42.766 15.8228 42.2251C13.6197 41.6832 12.9047 39.9566 13.2024 36.7864C13.4011 34.6781 14.7707 25.9129 15.1079 24.4692C15.4451 23.0255 16.6851 19.1601 19.2314 19.6941Z" fill="#E7C59B"/>
<path fill-rule="evenodd" clip-rule="evenodd" d="M23.7089 39.6312C24.4238 39.3681 29.5056 40.1177 29.5056 40.1177L30.1839 40.2848C30.1839 40.2848 34.4745 38.9587 34.9897 40.7812C35.5039 42.6027 33.2177 42.8884 32.2931 42.9033C30.8494 42.926 30.4084 42.5334 29.1862 42.5671C28.3179 42.5918 26.9949 42.4316 26.1276 42.4385C25.4513 42.4454 24.7531 42.5621 24.1104 42.3218C23.8889 42.2388 23.9304 41.954 24.14 41.8917C24.4051 41.8126 24.852 41.9174 25.0765 41.7364C25.5274 41.3745 24.7027 41.2341 24.6592 40.9394C24.6543 40.9097 24.7304 40.6526 24.7512 40.6695C24.6727 40.6093 24.6105 40.5304 24.5702 40.44C24.1826 40.3659 23.7999 40.262 23.6179 39.8893C23.5754 39.8022 23.61 39.6668 23.7099 39.6312H23.7089Z" fill="#E7C59B"/>
</g>
</g>
</g>
<defs>
<clipPath id="clip0_128_142">
<rect width="89" height="120.64" fill="white" transform="translate(0.169922)"/>
</clipPath>
<clipPath id="clip1_128_142">
<rect width="89" height="120.64" fill="white" transform="translate(0.169922)"/>
</clipPath>
<clipPath id="clip2_128_142">
<rect width="88.9967" height="120.64" fill="white" transform="translate(0.171387)"/>
</clipPath>
</defs>
</svg>
