<svg width="46" height="45" viewBox="0 0 46 45" fill="none" xmlns="http://www.w3.org/2000/svg">
<g clip-path="url(#clip0_26_296)">
<g clip-path="url(#clip1_26_296)">
<g clip-path="url(#clip2_26_296)">
<path d="M15.0613 27.177V7.18424C15.0613 5.9712 14.0743 4.98315 12.8602 4.98315H8.09122C6.87818 4.98315 5.89014 5.9712 5.89014 7.18424V8.72207C5.89014 8.91666 5.96744 9.10327 6.10503 9.24087C6.24263 9.37846 6.42924 9.45576 6.62383 9.45576C6.81842 9.45576 7.00504 9.37846 7.14263 9.24087C7.28023 9.10327 7.35753 8.91666 7.35753 8.72207V7.18424C7.35753 6.98965 7.43483 6.80303 7.57242 6.66544C7.71002 6.52785 7.89664 6.45055 8.09122 6.45055H12.8602C13.0548 6.45055 13.2415 6.52785 13.379 6.66544C13.5166 6.80303 13.5939 6.98965 13.5939 7.18424V20.9405H9.7934C9.59881 20.9405 9.41219 21.0178 9.2746 21.1554C9.137 21.293 9.0597 21.4797 9.0597 21.6742C9.0597 21.8688 9.137 22.0554 9.2746 22.193C9.41219 22.3306 9.59881 22.4079 9.7934 22.4079H13.5949V27.177C13.5949 27.3715 13.5176 27.5582 13.38 27.6958C13.2424 27.8334 13.0558 27.9107 12.8612 27.9107H8.09122C7.89664 27.9107 7.71002 27.8334 7.57242 27.6958C7.43483 27.5582 7.35753 27.3715 7.35753 27.177V13.4216H11.0319C11.2265 13.4216 11.4131 13.3443 11.5507 13.2067C11.6883 13.0691 11.7656 12.8825 11.7656 12.6879C11.7656 12.4933 11.6883 12.3067 11.5507 12.1691C11.4131 12.0315 11.2265 11.9542 11.0319 11.9542H6.62383C6.42924 11.9542 6.24263 12.0315 6.10503 12.1691C5.96744 12.3067 5.89014 12.4933 5.89014 12.6879V27.176C5.89014 28.39 6.87818 29.3771 8.09122 29.3771H12.8602C14.0733 29.3771 15.0613 28.391 15.0613 27.177Z" fill="#9A0000"/>
<path d="M44.8758 25.6088L40.0168 15.5298C39.6782 14.8292 39.0756 14.2915 38.3411 14.0347C37.6065 13.7779 36.8001 13.8231 36.0988 14.1602L34.3018 15.0269L35.3906 13.3551C35.601 13.0323 35.7458 12.6712 35.8166 12.2924C35.8875 11.9137 35.883 11.5247 35.8034 11.1476C35.7238 10.7706 35.5707 10.413 35.3528 10.0951C35.1349 9.7773 34.8566 9.50552 34.5336 9.29532L25.158 3.18804C24.5055 2.76427 23.7117 2.6165 22.9505 2.77714C22.1892 2.93779 21.5228 3.39373 21.0972 4.04499L20.6502 4.73075C20.5975 4.81149 20.5614 4.90181 20.5436 4.99653C20.5259 5.09126 20.5271 5.18855 20.547 5.28284C20.5669 5.37713 20.6051 5.46658 20.6596 5.54608C20.7141 5.62559 20.7836 5.69358 20.8644 5.74619C20.9451 5.79879 21.0354 5.83498 21.1302 5.85269C21.2249 5.87039 21.3222 5.86927 21.4165 5.84937C21.5108 5.82948 21.6002 5.79121 21.6797 5.73674C21.7592 5.68228 21.8272 5.61269 21.8798 5.53195L22.3269 4.84619C22.5397 4.52069 22.8728 4.29282 23.2533 4.2125C23.6338 4.13219 24.0306 4.20598 24.3568 4.41771L33.7324 10.524C34.4123 10.9662 34.6031 11.874 34.1609 12.5539L31.7495 16.2576C17.012 23.3617 17.9277 22.9127 17.8435 22.9734C17.6877 23.0853 17.5819 23.2539 17.5491 23.4429C17.5305 23.5456 17.5373 22.7151 17.5373 35.9813C17.5373 39.8748 14.3687 43.0434 10.4743 43.0434C6.5808 43.0434 3.41319 39.8758 3.41319 35.9813V3.4238C3.41319 2.61477 4.07156 1.9564 4.88058 1.9564H16.069C16.879 1.9564 17.5363 2.61477 17.5363 3.4238V18.7101C17.5363 18.9047 17.6136 19.0913 17.7512 19.2289C17.8888 19.3665 18.0755 19.4438 18.27 19.4438C18.4646 19.4438 18.6512 19.3665 18.7888 19.2289C18.9264 19.0913 19.0037 18.9047 19.0037 18.7101V17.1723L20.1757 15.3752L22.7876 17.0774C22.9071 17.1547 23.0465 17.1955 23.1887 17.1948C23.9166 17.1948 24.1993 16.2439 23.5898 15.8467L20.9759 14.1446L23.5791 10.1493C23.6316 10.0685 23.6995 9.99881 23.779 9.94425C23.8584 9.88968 23.9479 9.8513 24.0422 9.83132C24.1365 9.81133 24.2338 9.81012 24.3286 9.82776C24.4233 9.8454 24.5137 9.88154 24.5945 9.93412L28.5907 12.5373C28.6714 12.5899 28.741 12.6579 28.7955 12.7374C28.85 12.8169 28.8883 12.9063 28.9082 13.0006C28.9281 13.0949 28.9292 13.1922 28.9115 13.2869C28.8938 13.3817 28.8576 13.472 28.8049 13.5527L27.8922 14.9536C27.7905 15.1166 27.7568 15.313 27.7984 15.5006C27.84 15.6882 27.9535 15.852 28.1145 15.9568C28.2756 16.0617 28.4713 16.0991 28.6597 16.0611C28.8481 16.0232 29.014 15.9128 29.1219 15.7538L30.0346 14.3539C30.1926 14.1117 30.3012 13.8407 30.3544 13.5564C30.4075 13.2722 30.4041 12.9802 30.3443 12.6973C30.2845 12.4144 30.1695 12.146 30.0059 11.9076C29.8423 11.6691 29.6334 11.4652 29.3909 11.3076L25.3947 8.7064C25.1526 8.54856 24.8817 8.43997 24.5976 8.38684C24.3135 8.33371 24.0217 8.33709 23.7389 8.39677C23.4561 8.45646 23.1878 8.57129 22.9494 8.7347C22.711 8.89811 22.5071 9.10689 22.3494 9.34912L19.0037 14.485V3.4238C19.0037 1.80575 17.688 0.489014 16.069 0.489014H4.88058C3.26254 0.489014 1.9458 1.80575 1.9458 3.4238V35.9813C1.9458 40.6858 5.77178 44.5108 10.4753 44.5108C15.0183 44.5108 18.7416 40.9401 18.991 36.4587C19.4782 36.5604 19.9673 36.4959 20.3978 36.2894L38.4075 27.6074C38.668 27.482 38.9013 27.3065 39.0939 27.0909C39.2865 26.8753 39.4348 26.6238 39.5302 26.3509C39.6256 26.078 39.6663 25.789 39.6499 25.5003C39.6335 25.2117 39.5604 24.9291 39.4347 24.6687L37.3628 20.3722C37.1087 19.847 36.6568 19.444 36.1062 19.2515C35.5555 19.059 34.951 19.0926 34.425 19.345L21.3711 25.6381C21.1959 25.7226 21.0614 25.8732 20.9972 26.0569C20.933 26.2405 20.9443 26.4421 21.0287 26.6174L23.0322 30.773C23.1167 30.9484 23.2673 31.0831 23.4511 31.1474C23.6348 31.2117 23.8366 31.2004 24.0119 31.1159C24.1873 31.0315 24.322 30.8808 24.3863 30.6971C24.4506 30.5133 24.4393 30.3116 24.3548 30.1362L22.6693 26.6409L35.0619 20.6676C35.2372 20.5832 35.4388 20.5718 35.6224 20.6361C35.806 20.7003 35.9566 20.8348 36.0411 21.01L38.1121 25.3055C38.1965 25.4808 38.2079 25.6824 38.1437 25.866C38.0794 26.0497 37.9449 26.2003 37.7697 26.2848L33.4742 28.3558L32.0136 25.3261C31.9718 25.2392 31.9133 25.1615 31.8414 25.0972C31.7696 25.033 31.6858 24.9836 31.5948 24.9517C31.5038 24.9199 31.4074 24.9063 31.3112 24.9117C31.215 24.9171 31.1207 24.9414 31.0339 24.9832C30.9471 25.025 30.8693 25.0835 30.8051 25.1554C30.7408 25.2273 30.6914 25.3111 30.6596 25.4021C30.6277 25.493 30.6141 25.5894 30.6195 25.6856C30.6249 25.7819 30.6492 25.8761 30.691 25.9629L32.1525 28.9936L19.7599 34.9668C19.6394 35.0247 19.5055 35.0486 19.3724 35.036C19.2394 35.0234 19.1122 34.9748 19.0047 34.8954V24.0299L36.7367 15.4818C37.0873 15.3136 37.4903 15.2911 37.8574 15.4195C38.2245 15.5479 38.5258 15.8165 38.6951 16.1666L43.5542 26.2456C43.9063 26.9744 43.5982 27.8539 42.8694 28.2051L23.044 37.7627C22.8946 37.8351 22.7741 37.9559 22.7023 38.1056C22.6305 38.2553 22.6115 38.4248 22.6485 38.5867C22.6856 38.7485 22.7764 38.893 22.9061 38.9965C23.0358 39.1 23.1969 39.1565 23.3629 39.1567C23.6231 39.1567 22.321 39.7398 43.5062 29.5267C44.2067 29.188 44.7442 28.5853 45.0009 27.8509C45.2577 27.1164 45.2127 26.3101 44.8758 25.6088Z" fill="#9A0000"/>
<path d="M10.4733 37.9995C9.93825 37.999 9.42522 37.7862 9.04686 37.4079C8.66849 37.0295 8.4557 36.5165 8.45518 35.9814C8.45518 35.7868 8.37788 35.6002 8.24029 35.4626C8.1027 35.325 7.91608 35.2477 7.72149 35.2477C7.5269 35.2477 7.34028 35.325 7.20269 35.4626C7.06509 35.6002 6.98779 35.7868 6.98779 35.9814C6.98883 36.9055 7.35639 37.7915 8.00983 38.4449C8.66327 39.0983 9.54923 39.4659 10.4733 39.4669C11.3973 39.4656 12.283 39.098 12.9362 38.4446C13.5894 37.7911 13.9569 36.9053 13.9579 35.9814C13.9569 35.0575 13.5894 34.1718 12.9362 33.5186C12.2829 32.8653 11.3972 32.4979 10.4733 32.4968C10.2787 32.4968 10.0921 32.5741 9.95453 32.7117C9.81694 32.8493 9.73964 33.0359 9.73964 33.2305C9.73964 33.4251 9.81694 33.6117 9.95453 33.7493C10.0921 33.8869 10.2787 33.9642 10.4733 33.9642C11.5856 33.9642 12.4905 34.8691 12.4905 35.9814C12.49 36.5163 12.2773 37.0292 11.8992 37.4075C11.521 37.7859 11.0083 37.9988 10.4733 37.9995Z" fill="#9A0000"/>
</g>
</g>
</g>
<defs>
<clipPath id="clip0_26_296">
<rect width="45" height="45" fill="white" transform="translate(0.969727)"/>
</clipPath>
<clipPath id="clip1_26_296">
<rect width="45" height="45" fill="white" transform="translate(0.969727)"/>
</clipPath>
<clipPath id="clip2_26_296">
<rect width="45" height="44.0217" fill="white" transform="translate(0.969727 0.489014)"/>
</clipPath>
</defs>
</svg>
