<svg width="46" height="45" viewBox="0 0 46 45" fill="none" xmlns="http://www.w3.org/2000/svg">
<g clip-path="url(#clip0_26_280)">
<g clip-path="url(#clip1_26_280)">
<g clip-path="url(#clip2_26_280)">
<path d="M29.3869 24.14C29.4968 23.9735 29.5366 23.7702 29.4974 23.5745C29.4583 23.3788 29.3434 23.2065 29.1779 23.095C29.0959 23.0401 29.0039 23.0019 28.9072 22.9828C28.8104 22.9636 28.7108 22.9638 28.6141 22.9833C28.5174 23.0028 28.4256 23.0413 28.3438 23.0965C28.2621 23.1517 28.1921 23.2226 28.1379 23.305C27.4218 24.3914 26.3591 25.2034 25.1228 25.609C23.8865 26.0146 22.5494 25.99 21.3289 25.539C21.2235 25.4574 21.0981 25.4056 20.9659 25.389C18.9459 24.471 17.5679 22.405 17.5679 20.025V16.92C18.5865 16.4979 19.4399 15.7555 19.9989 14.805C22.6715 16.6168 25.8796 17.4682 29.0989 17.22C29.0989 20.046 29.0769 19.954 29.1589 20.148C29.2749 20.425 29.5469 20.608 29.8489 20.608C30.4952 20.6062 31.1145 20.348 31.5708 19.8902C32.0271 19.4325 32.2832 18.8124 32.2829 18.166V11.994C32.2849 8.69102 29.6159 6.00202 26.3329 6.00002H21.9039C20.7896 5.99725 19.6971 6.30903 18.7521 6.89953C17.8071 7.49003 17.0479 8.33526 16.5619 9.33802C15.9937 9.45816 15.484 9.7699 15.1183 10.221C14.7525 10.6722 14.5529 11.2353 14.5529 11.816V14.31C14.5529 14.726 14.8879 15.064 15.3019 15.064C15.7159 15.064 16.0519 14.727 16.0529 14.311V11.817C16.0529 11.253 16.5099 10.794 17.0709 10.794C17.2211 10.794 17.3678 10.7489 17.4921 10.6646C17.6163 10.5803 17.7124 10.4606 17.7679 10.321C18.0942 9.49022 18.6637 8.77724 19.4018 8.27535C20.1399 7.77346 21.0123 7.50602 21.9049 7.50802H26.3319C28.7879 7.51002 30.7849 9.52202 30.7829 11.994V18.165C30.7829 18.3648 30.7187 18.5594 30.5999 18.72V16.384C30.6002 16.2769 30.5776 16.1709 30.5337 16.0732C30.4897 15.9755 30.4254 15.8883 30.345 15.8175C30.2646 15.7467 30.17 15.6938 30.0676 15.6625C29.9651 15.6312 29.8571 15.6222 29.7509 15.636C28.0638 15.8668 26.3476 15.7589 24.7027 15.3187C23.0578 14.8784 21.5172 14.1147 20.1709 13.072C20.078 13.0004 19.9697 12.9517 19.8545 12.9297C19.7394 12.9076 19.6207 12.913 19.508 12.9453C19.3953 12.9776 19.2918 13.036 19.2058 13.1157C19.1198 13.1953 19.0537 13.2941 19.0129 13.404C18.5929 14.521 17.7179 15.343 16.6129 15.658C16.4555 15.7034 16.3172 15.7988 16.2189 15.9298C16.1206 16.0608 16.0675 16.2202 16.0679 16.384V20.024C16.0679 22.905 17.6809 25.421 20.0779 26.634C19.9908 27.1272 19.7739 27.5882 19.4494 27.9696C19.125 28.351 18.7047 28.639 18.2319 28.804C15.1069 29.887 15.2379 29.83 14.9149 29.989L14.7449 29.93C14.3669 29.7979 14.0298 29.5697 13.7668 29.2677C13.5037 28.9658 13.3239 28.6006 13.2449 28.208C14.0764 27.7683 14.7995 27.149 15.3619 26.395C15.4814 26.235 15.5328 26.0341 15.5049 25.8363C15.477 25.6385 15.372 25.4598 15.2129 25.339C15.1342 25.2795 15.0446 25.2362 14.9491 25.2116C14.8537 25.1869 14.7543 25.1814 14.6566 25.1953C14.559 25.2093 14.4651 25.2424 14.3804 25.2928C14.2957 25.3432 14.2217 25.4099 14.1629 25.489C13.6751 26.1418 13.0301 26.6605 12.2878 26.9967C11.5456 27.333 10.7303 27.4759 9.91788 27.412C7.42588 27.22 5.47389 25.062 5.47389 22.502V19.923C6.30313 19.5637 7.00322 18.9602 7.48089 18.193C8.59086 18.9299 9.81309 19.4817 11.0999 19.827C11.2887 19.8657 11.4852 19.8308 11.6491 19.7293C11.8129 19.6278 11.9318 19.4675 11.9813 19.2812C12.0308 19.0949 12.0071 18.8968 11.9152 18.7274C11.8233 18.5579 11.67 18.4301 11.4869 18.37C10.098 17.9964 8.79714 17.3505 7.65989 16.47C7.56697 16.3986 7.45861 16.3501 7.34351 16.3282C7.22841 16.3063 7.10978 16.3117 6.99716 16.344C6.88453 16.3763 6.78105 16.4345 6.69504 16.5141C6.60902 16.5936 6.54286 16.6923 6.50189 16.802C6.15389 17.727 5.43189 18.406 4.51889 18.667C4.36787 18.7107 4.23453 18.801 4.13789 18.925V15.519C4.13789 15.1 4.47689 14.752 4.90189 14.752C5.05218 14.7519 5.19899 14.7067 5.32327 14.6222C5.44755 14.5377 5.54358 14.4178 5.59889 14.278C5.87037 13.587 6.34404 12.994 6.95795 12.5765C7.57187 12.159 8.29747 11.9365 9.03988 11.938H11.8369C12.2509 11.938 12.5869 11.601 12.5869 11.184C12.5871 11.0853 12.568 10.9874 12.5304 10.8961C12.4929 10.8047 12.4377 10.7217 12.368 10.6517C12.2984 10.5817 12.2156 10.5261 12.1245 10.488C12.0334 10.45 11.9356 10.4303 11.8369 10.43H9.03988C8.07465 10.4277 7.12799 10.6953 6.30683 11.2026C5.48567 11.7099 4.82273 12.4368 4.39289 13.301C3.89312 13.4185 3.44771 13.7014 3.12896 14.1038C2.8102 14.5063 2.63679 15.0046 2.63689 15.518V21.008C2.63689 21.918 3.19489 22.689 3.99489 23C4.0777 24.0785 4.42919 25.119 5.01731 26.0268C5.60543 26.9346 6.41146 27.6807 7.36189 28.197C7.28436 28.5919 7.10484 28.9597 6.84117 29.2637C6.57749 29.5677 6.23885 29.7974 5.85889 29.93L3.43689 30.77C2.68897 31.0317 2.04101 31.5196 1.58284 32.1661C1.12468 32.8126 0.879003 33.5856 0.879885 34.378V37.39C0.879885 37.806 1.21589 38.144 1.62989 38.144C2.04389 38.144 2.37989 37.807 2.37989 37.39V34.378C2.37941 33.8985 2.52818 33.4307 2.80556 33.0395C3.08295 32.6483 3.47519 32.3532 3.92789 32.195C3.92789 32.185 3.90388 32.203 6.20489 31.405C6.61108 32.0523 7.16468 32.5943 7.82042 32.9868C8.47616 33.3792 9.21546 33.6109 9.97788 33.663C10.0764 33.6695 10.1753 33.6566 10.2689 33.6249C10.3624 33.5932 10.4488 33.5433 10.5231 33.4782C10.5974 33.4131 10.6581 33.3341 10.7018 33.2455C10.7456 33.1569 10.7714 33.0606 10.7779 32.962C10.7919 32.7628 10.7263 32.5663 10.5954 32.4155C10.4645 32.2647 10.279 32.1721 10.0799 32.158C9.57111 32.1233 9.07699 31.9728 8.63524 31.7181C8.19348 31.4633 7.81575 31.111 7.53089 30.688C8.13189 30.186 8.56889 29.508 8.77489 28.746C9.77758 28.9977 10.8269 28.9984 11.8299 28.748C12.0889 29.704 12.7099 30.528 13.5639 31.034C12.8808 31.8229 12.5049 32.8315 12.5049 33.875V37.39C12.5049 37.806 12.8409 38.144 13.2549 38.144C13.6699 38.144 14.0049 37.807 14.0049 37.39V33.875C14.0042 33.2897 14.1857 32.7187 14.5242 32.2412C14.8627 31.7636 15.3414 31.4033 15.8939 31.21L18.7209 30.23C19.4022 29.9925 20.0132 29.5883 20.4983 29.0542C20.9833 28.52 21.327 27.873 21.4979 27.172C22.9648 27.5537 24.5145 27.4666 25.9294 26.9231C27.3444 26.3795 28.5538 25.4067 29.3879 24.141L29.3869 24.14Z" fill="#9A0000"/>
<path d="M43.3228 30.7699L40.9008 29.9299C40.5229 29.7979 40.1859 29.5698 39.9229 29.268C39.6599 28.9663 39.4799 28.6013 39.4008 28.2089C40.3556 27.7009 41.1657 26.9586 41.7548 26.0516C42.344 25.1446 42.6929 24.1028 42.7688 23.0239C43.1855 22.8727 43.5455 22.5966 43.7996 22.2333C44.0537 21.87 44.1896 21.4372 44.1888 20.9939V15.6699C44.1908 12.7779 41.8658 10.4299 38.9868 10.4299C35.0048 10.4289 35.0248 10.4209 34.7028 10.4519C34.5044 10.4716 34.3219 10.5692 34.1953 10.7233C34.0688 10.8774 34.0085 11.0754 34.0278 11.2739C34.0366 11.3723 34.0647 11.4679 34.1105 11.5554C34.1564 11.6429 34.2191 11.7204 34.295 11.7836C34.3709 11.8468 34.4586 11.8944 34.5529 11.9236C34.6473 11.9528 34.7464 11.9631 34.8448 11.9539C35.0668 11.9319 34.9508 11.9369 38.9868 11.9379C41.0288 11.9379 42.6908 13.6029 42.6898 15.6699V19.0209C42.6168 18.8898 42.506 18.7837 42.3719 18.7165C42.2378 18.6492 42.0865 18.6239 41.9378 18.6439C39.6501 18.9569 37.3223 18.532 35.2928 17.4309C35.206 17.384 35.1109 17.3546 35.0128 17.3446C34.9147 17.3346 34.8155 17.3441 34.7211 17.3725C34.6267 17.401 34.5388 17.4478 34.4626 17.5103C34.3863 17.5729 34.3232 17.6499 34.2768 17.7369C34.1822 17.9129 34.1612 18.1193 34.2183 18.3108C34.2755 18.5023 34.4062 18.6634 34.5818 18.7589C36.6326 19.8733 38.9581 20.3814 41.2868 20.2239V22.5719C41.2861 23.2402 41.1483 23.9012 40.8819 24.5141C40.6154 25.1269 40.226 25.6786 39.7378 26.1349C39.2395 26.6015 38.6472 26.9562 38.0006 27.175C37.3539 27.3938 36.668 27.4717 35.9887 27.4035C35.3095 27.3353 34.6527 27.1226 34.0625 26.7796C33.4723 26.4366 32.9623 25.9713 32.5668 25.4149C32.5094 25.3345 32.4367 25.2663 32.3529 25.2142C32.269 25.1621 32.1757 25.1271 32.0782 25.1113C31.9808 25.0955 31.8812 25.0991 31.7851 25.1221C31.6891 25.145 31.5986 25.1867 31.5188 25.2449C31.3574 25.3626 31.249 25.5393 31.2174 25.7366C31.1857 25.9338 31.2333 26.1356 31.3498 26.2979C31.9168 27.0895 32.6583 27.7403 33.5168 28.1999C33.439 28.594 33.2595 28.961 32.9962 29.2644C32.733 29.5678 32.395 29.7972 32.0158 29.9299L31.8458 29.9879C31.5238 29.8299 31.6478 29.8839 28.5288 28.8029C28.1135 28.6584 27.7377 28.4187 27.4318 28.1029C27.3634 28.0319 27.2817 27.9752 27.1913 27.9359C27.1009 27.8967 27.0036 27.8757 26.9051 27.8743C26.8066 27.8728 26.7087 27.8908 26.6172 27.9273C26.5257 27.9638 26.4423 28.018 26.3718 28.0869C26.229 28.2265 26.1473 28.4169 26.1443 28.6166C26.1413 28.8162 26.2173 29.009 26.3558 29.1529C26.4898 29.2929 26.6358 29.4219 26.7878 29.5419C25.7998 31.0849 23.8448 31.8079 22.0778 31.2019C21.9844 31.17 21.8857 31.1569 21.7872 31.1632C21.6888 31.1696 21.5926 31.1954 21.5041 31.2391C21.4157 31.2827 21.3367 31.3435 21.2718 31.4177C21.2068 31.492 21.1572 31.5784 21.1258 31.6719C21.0614 31.8609 21.0745 32.0676 21.1622 32.247C21.2499 32.4263 21.4051 32.5636 21.5938 32.6289C24.0818 33.4839 26.7808 32.4489 28.1138 30.2549L30.8638 31.2079C31.4169 31.401 31.8961 31.7616 32.235 32.2395C32.5739 32.7174 32.7555 33.289 32.7548 33.8749V37.3889C32.7548 37.8059 33.0908 38.1439 33.5048 38.1439C33.9188 38.1439 34.2548 37.8059 34.2548 37.3889V33.8749C34.2551 32.8315 33.8795 31.8229 33.1968 31.0339C34.0494 30.5259 34.6709 29.706 34.9298 28.7479C35.9258 28.9979 36.9848 28.9979 37.9868 28.7499C38.1928 29.5099 38.6288 30.1869 39.2288 30.6859C38.944 31.109 38.5663 31.4614 38.1245 31.7164C37.6828 31.9713 37.1886 32.122 36.6798 32.1569C36.4808 32.1712 36.2956 32.2639 36.1649 32.4147C36.0343 32.5654 35.9687 32.7619 35.9828 32.9609C36.0108 33.3769 36.3698 33.6909 36.7828 33.6619C37.5451 33.6099 38.2843 33.3783 38.9401 32.9861C39.5958 32.5938 40.1495 32.052 40.5558 31.4049L42.8318 32.1949C43.2847 32.3529 43.6771 32.648 43.9547 33.0392C44.2323 33.4303 44.3812 33.8982 44.3808 34.3779V37.3889C44.3808 37.8059 44.7158 38.1439 45.1308 38.1439C45.5448 38.1439 45.8808 37.8059 45.8808 37.3889V34.3799C45.882 33.587 45.6364 32.8135 45.178 32.1666C44.7196 31.5197 44.0712 31.0315 43.3228 30.7699Z" fill="#9A0000"/>
</g>
</g>
</g>
<defs>
<clipPath id="clip0_26_280">
<rect width="45" height="45" fill="white" transform="translate(0.879883)"/>
</clipPath>
<clipPath id="clip1_26_280">
<rect width="45" height="45" fill="white" transform="translate(0.879883)"/>
</clipPath>
<clipPath id="clip2_26_280">
<rect width="45" height="33" fill="white" transform="translate(0.879883 6)"/>
</clipPath>
</defs>
</svg>
