<svg width="51" height="51" viewBox="0 0 51 51" fill="none" xmlns="http://www.w3.org/2000/svg">
<g clip-path="url(#clip0_128_2)">
<g clip-path="url(#clip1_128_2)">
<g clip-path="url(#clip2_128_2)">
<path fill-rule="evenodd" clip-rule="evenodd" d="M11.0413 13.563C11.3243 13.563 11.5693 13.759 11.6323 14.035L14.0463 24.532C14.0664 24.621 14.0662 24.7134 14.0458 24.8023C14.0254 24.8912 13.9853 24.9744 13.9285 25.0458C13.8717 25.1172 13.7996 25.1749 13.7176 25.2148C13.6355 25.2546 13.5455 25.2755 13.4543 25.276H7.83831V49.285H15.0033V45.555H12.1533C11.9922 45.5547 11.8378 45.4906 11.724 45.3766C11.6102 45.2626 11.5463 45.1081 11.5463 44.947V32.678C11.5463 32.342 11.8173 32.07 12.1533 32.07H16.4493V29.54C16.4504 28.428 16.8924 27.3618 17.6784 26.5752C18.4644 25.7886 19.5303 25.3459 20.6423 25.344H27.3883C28.9063 25.344 30.2373 26.155 30.9733 27.367C31.3467 26.7499 31.8728 26.2395 32.501 25.8852C33.1292 25.5308 33.8381 25.3444 34.5593 25.344H41.3043C42.4165 25.3459 43.4825 25.7888 44.2686 26.5756C45.0546 27.3624 45.4965 28.4288 45.4973 29.541V32.071H49.7933C50.1283 32.071 50.4003 32.342 50.4003 32.678V44.948C50.4003 45.109 50.3364 45.2634 50.2225 45.3772C50.1087 45.491 49.9543 45.555 49.7933 45.555H46.9433V49.285H49.7473C49.9084 49.285 50.063 49.349 50.1769 49.4629C50.2908 49.5769 50.3548 49.7314 50.3548 49.8925C50.3548 50.0536 50.2908 50.2081 50.1769 50.3221C50.063 50.436 49.9084 50.5 49.7473 50.5H1.00731C0.850459 50.4936 0.702145 50.4268 0.593415 50.3136C0.484685 50.2004 0.423965 50.0495 0.423965 49.8925C0.423965 49.7355 0.484685 49.5846 0.593415 49.4714C0.702145 49.3582 0.850459 49.2914 1.00731 49.285H6.62331V25.276H1.00731C0.915922 25.2761 0.825684 25.2556 0.743351 25.2159C0.661019 25.1763 0.588725 25.1185 0.53188 25.0469C0.475036 24.9754 0.435113 24.8919 0.415099 24.8027C0.395086 24.7135 0.395501 24.621 0.416313 24.532L2.82931 14.035C2.85987 13.9011 2.93496 13.7814 3.04231 13.6957C3.14966 13.61 3.28293 13.5632 3.42031 13.563H11.0413ZM45.7283 45.555H16.2183V49.285H45.7283V45.555ZM16.4503 33.285H12.7603V44.34H49.1863V33.286H45.4963V40.039C45.4963 40.1999 45.4325 40.3543 45.3189 40.4682C45.2054 40.5822 45.0512 40.6465 44.8903 40.647H17.0563C16.9765 40.647 16.8975 40.6313 16.8238 40.6007C16.7501 40.5701 16.6831 40.5253 16.6267 40.4689C16.5704 40.4124 16.5257 40.3454 16.4952 40.2716C16.4648 40.1978 16.4492 40.1188 16.4493 40.039V33.286L16.4503 33.285ZM27.3893 35.97H20.6433C19.853 35.9711 19.0955 36.2857 18.537 36.8448C17.9784 37.4039 17.6646 38.1617 17.6643 38.952V39.432H30.3673V38.952C30.367 38.1619 30.0533 37.4042 29.495 36.8451C28.9367 36.286 28.1794 35.9713 27.3893 35.97ZM41.3053 35.97H34.5603C33.77 35.9711 33.0125 36.2857 32.454 36.8448C31.8954 37.4039 31.5816 38.1617 31.5813 38.952V39.432H44.2833V38.952C44.2831 38.1619 43.9693 37.4042 43.411 36.8451C42.8527 36.286 42.0954 35.9713 41.3053 35.97ZM27.3893 26.56H20.6433C19.8534 26.5611 19.0961 26.8754 18.5377 27.4341C17.9792 27.9927 17.6651 28.7501 17.6643 29.54V36L17.6723 35.993C17.6963 35.969 17.7213 35.947 17.7443 35.923L17.8183 35.853C17.8423 35.83 17.8683 35.81 17.8923 35.788L17.9713 35.72L18.0483 35.66L18.1293 35.594L18.2093 35.538C18.2373 35.518 18.2653 35.496 18.2943 35.478C18.3213 35.458 18.3483 35.442 18.3743 35.425C18.4043 35.405 18.4343 35.385 18.4653 35.367L18.5463 35.319L18.6413 35.265L18.7253 35.221L18.8213 35.171L18.9093 35.131C18.9423 35.117 18.9743 35.101 19.0083 35.087C19.0383 35.074 19.0683 35.063 19.0983 35.052C19.1313 35.038 19.1653 35.024 19.1983 35.012L19.2933 34.98C19.3263 34.968 19.3593 34.955 19.3943 34.945L19.4903 34.917L19.5943 34.887L19.6943 34.865L19.7963 34.841C19.8323 34.833 19.8683 34.828 19.9043 34.821L20.0033 34.803C20.0433 34.797 20.0833 34.793 20.1233 34.789C20.1533 34.784 20.1833 34.779 20.2133 34.776L20.3473 34.766L20.4273 34.76C20.4993 34.7566 20.5713 34.7549 20.6433 34.755H27.3893C27.4613 34.755 27.5333 34.757 27.6053 34.76L27.6853 34.766L27.8183 34.776L27.9103 34.789C27.9503 34.793 27.9893 34.797 28.0283 34.803L28.1283 34.822L28.2353 34.841L28.3403 34.865L28.4383 34.888L28.5433 34.918L28.6383 34.945L28.7423 34.98L28.8323 35.01L28.9363 35.053C28.9663 35.063 28.9943 35.075 29.0243 35.087L29.1253 35.133L29.2093 35.171L29.3093 35.223L29.3903 35.265L29.4873 35.321L29.5673 35.367L29.6593 35.426L29.7373 35.476L29.8263 35.54L29.9013 35.594L29.9863 35.66L30.0603 35.72L30.1403 35.789C30.1643 35.81 30.1903 35.831 30.2133 35.853C30.2393 35.876 30.2633 35.901 30.2883 35.925L30.3593 35.993L30.3673 36.001V29.541C30.367 28.7509 30.0533 27.9932 29.495 27.4341C28.9367 26.8751 28.1794 26.5613 27.3893 26.56ZM41.3053 26.56H34.5603C33.7704 26.5611 33.0131 26.8754 32.4547 27.4341C31.8962 27.9927 31.5821 28.7501 31.5813 29.54V36C31.9705 35.6051 32.4345 35.2916 32.9461 35.0778C33.4578 34.8641 34.0068 34.7543 34.5613 34.755H41.3053C42.4693 34.755 43.5233 35.231 44.2833 36.001V29.541C44.2831 28.7509 43.9693 27.9932 43.411 27.4341C42.8527 26.8751 42.0954 26.5613 41.3053 26.56ZM10.5583 14.778H3.90431L1.77031 24.06H12.6923L10.5583 14.778ZM44.8903 0.5C45.2253 0.5 45.4973 0.772 45.4973 1.108V20.849C45.4973 21.0101 45.4334 21.1646 45.3196 21.2786C45.2058 21.3926 45.0514 21.4567 44.8903 21.457H17.0563C16.8952 21.4567 16.7408 21.3926 16.627 21.2786C16.5132 21.1646 16.4493 21.0101 16.4493 20.849V1.108C16.4493 0.772 16.7223 0.5 17.0563 0.5H44.8903ZM44.2823 1.715H17.6633V14.877L22.9103 8.9C22.9673 8.83499 23.0375 8.7829 23.1162 8.74722C23.1949 8.71153 23.2804 8.69307 23.3668 8.69307C23.4532 8.69307 23.5387 8.71153 23.6174 8.74722C23.6961 8.7829 23.7663 8.83499 23.8233 8.9L30.4333 16.433L33.6903 12.723C33.7472 12.6578 33.8174 12.6056 33.8961 12.5698C33.9748 12.5341 34.0603 12.5156 34.1468 12.5156C34.2333 12.5156 34.3188 12.5341 34.3975 12.5698C34.4763 12.6056 34.5464 12.6578 34.6033 12.723L41.2003 20.24H44.2813L44.2823 1.715ZM34.1453 14.044L31.2403 17.353L33.7763 20.241H39.5853L34.1453 14.044ZM23.3653 10.222L17.6633 16.718V20.241H32.1603L23.3673 10.221L23.3653 10.222ZM38.4953 4.338C39.3354 4.33932 40.1406 4.67383 40.7343 5.26812C41.328 5.8624 41.6618 6.66795 41.6623 7.508C41.6623 9.258 40.2423 10.679 38.4943 10.679C37.6542 10.6777 36.8488 10.3432 36.255 9.74895C35.6611 9.15468 35.3271 8.34915 35.3263 7.509C35.3271 6.66885 35.6611 5.86332 36.255 5.26905C36.8488 4.67479 37.6542 4.34032 38.4943 4.339L38.4953 4.338ZM38.4953 5.554C37.977 5.55453 37.48 5.76067 37.1135 6.12719C36.747 6.49371 36.5408 6.99066 36.5403 7.509C36.5403 8.587 37.4173 9.464 38.4943 9.464C39.002 9.44776 39.4834 9.23467 39.8368 8.86981C40.1902 8.50495 40.3878 8.01693 40.3878 7.509C40.3878 7.00107 40.1902 6.51305 39.8368 6.14819C39.4834 5.78333 39.003 5.57024 38.4953 5.554Z" fill="#9A0000"/>
</g>
</g>
</g>
<defs>
<clipPath id="clip0_128_2">
<rect width="50" height="50" fill="white" transform="translate(0.400391 0.5)"/>
</clipPath>
<clipPath id="clip1_128_2">
<rect width="50" height="50" fill="white" transform="translate(0.400391 0.5)"/>
</clipPath>
<clipPath id="clip2_128_2">
<rect width="50" height="50" fill="white" transform="translate(0.400391 0.5)"/>
</clipPath>
</defs>
</svg>
