<svg width="51" height="51" viewBox="0 0 51 51" fill="none" xmlns="http://www.w3.org/2000/svg">
<g clip-path="url(#clip0_128_21)">
<g clip-path="url(#clip1_128_21)">
<g clip-path="url(#clip2_128_21)">
<path fill-rule="evenodd" clip-rule="evenodd" d="M49.7821 26.135C50.1171 26.135 50.3901 26.407 50.3901 26.743V49.893C50.3899 50.0541 50.3257 50.2085 50.2117 50.3223C50.0977 50.4361 49.9432 50.5 49.7821 50.5H0.998138C0.918257 50.5001 0.839136 50.4845 0.76531 50.454C0.691485 50.4235 0.624407 50.3787 0.567923 50.3222C0.511439 50.2657 0.466659 50.1987 0.436151 50.1248C0.405642 50.051 0.390006 49.9719 0.390138 49.892V26.742C0.390138 26.407 0.662138 26.135 0.998138 26.135H49.7821ZM13.5331 42.348H1.60514V49.285H13.5331V42.348ZM36.0311 27.35H14.7501V49.285H36.0301L36.0311 27.35ZM49.1741 34.85H37.2461V49.285H49.1741V34.85ZM33.2081 35.403C33.5431 35.403 33.8161 35.675 33.8161 36.011V46.472C33.8161 46.6333 33.7521 46.7879 33.6381 46.9019C33.524 47.0159 33.3694 47.08 33.2081 47.08H17.5721C17.4109 47.08 17.2562 47.0159 17.1422 46.9019C17.0282 46.7879 16.9641 46.6333 16.9641 46.472V36.011C16.9641 35.675 17.2371 35.403 17.5721 35.403H33.2081ZM32.6001 36.618H18.1801V45.865H32.6001V36.618ZM13.5331 34.85H1.60514V41.134H13.5331V34.85ZM13.5331 27.351H1.60514V33.635H13.5331V27.351ZM49.1741 27.351H37.2461V33.635H49.1741V27.351ZM18.7821 29.561C19.2638 29.5618 19.7255 29.7535 20.0661 30.0941C20.4067 30.4346 20.5983 30.8963 20.5991 31.378C20.5983 31.8597 20.4067 32.3214 20.0661 32.6619C19.7255 33.0025 19.2638 33.1942 18.7821 33.195C18.3003 33.1945 17.8384 33.0029 17.4976 32.6623C17.1568 32.3217 16.9649 31.8598 16.9641 31.378C16.9647 30.896 17.1564 30.4339 17.4972 30.0931C17.838 29.7522 18.3001 29.5605 18.7821 29.56V29.561ZM23.1871 29.561C23.6688 29.5618 24.1305 29.7535 24.4711 30.0941C24.8117 30.4346 25.0033 30.8963 25.0041 31.378C25.0033 31.8597 24.8117 32.3214 24.4711 32.6619C24.1305 33.0025 23.6688 33.1942 23.1871 33.195C22.7055 33.1942 22.2438 33.0025 21.9032 32.6619C21.5626 32.3214 21.3709 31.8597 21.3701 31.378C21.3707 30.8962 21.5622 30.4342 21.9028 30.0934C22.2435 29.7526 22.7053 29.5608 23.1871 29.56V29.561ZM27.5921 29.561C28.0738 29.5618 28.5355 29.7535 28.8761 30.0941C29.2167 30.4346 29.4083 30.8963 29.4091 31.378C29.4083 31.8597 29.2167 32.3214 28.8761 32.6619C28.5355 33.0025 28.0738 33.1942 27.5921 33.195C27.1105 33.1942 26.6488 33.0025 26.3082 32.6619C25.9676 32.3214 25.7759 31.8597 25.7751 31.378C25.7757 30.8962 25.9672 30.4342 26.3078 30.0934C26.6485 29.7526 27.1103 29.5608 27.5921 29.56V29.561ZM31.9981 29.561C32.4798 29.5618 32.9415 29.7535 33.2821 30.0941C33.6227 30.4346 33.8143 30.8963 33.8151 31.378C33.8143 31.8597 33.6227 32.3214 33.2821 32.6619C32.9415 33.0025 32.4798 33.1942 31.9981 33.195C31.5163 33.1945 31.0544 33.0029 30.7136 32.6623C30.3728 32.3217 30.1809 31.8598 30.1801 31.378C30.1807 30.896 30.3724 30.4339 30.7132 30.0931C31.054 29.7522 31.5161 29.5605 31.9981 29.56V29.561ZM18.7821 30.776C18.701 30.7727 18.6199 30.7858 18.5439 30.8146C18.468 30.8434 18.3986 30.8872 18.34 30.9435C18.2814 30.9998 18.2347 31.0673 18.2029 31.1421C18.171 31.2168 18.1546 31.2972 18.1546 31.3785C18.1546 31.4598 18.171 31.5402 18.2029 31.6149C18.2347 31.6897 18.2814 31.7572 18.34 31.8135C18.3986 31.8698 18.468 31.9136 18.5439 31.9424C18.6199 31.9712 18.701 31.9843 18.7821 31.981C18.9377 31.9747 19.0847 31.9084 19.1926 31.7961C19.3004 31.6838 19.3606 31.5342 19.3606 31.3785C19.3606 31.2228 19.3004 31.0732 19.1926 30.9609C19.0847 30.8486 18.9377 30.7823 18.7821 30.776ZM23.1871 30.776C23.1059 30.7728 23.025 30.7861 22.949 30.815C22.8731 30.8439 22.8038 30.8879 22.7453 30.9443C22.6867 31.0006 22.6402 31.0682 22.6085 31.143C22.5768 31.2178 22.5605 31.2983 22.5606 31.3795C22.5607 31.4608 22.5773 31.5412 22.6093 31.6159C22.6413 31.6906 22.688 31.758 22.7467 31.8142C22.8054 31.8704 22.8749 31.9141 22.9509 31.9428C23.0269 31.9714 23.108 31.9844 23.1891 31.981C23.3447 31.9744 23.4916 31.9079 23.5993 31.7954C23.7069 31.683 23.7669 31.5332 23.7666 31.3775C23.7663 31.2219 23.7059 31.0723 23.5979 30.9602C23.4899 30.8481 23.3427 30.7821 23.1871 30.776ZM27.5921 30.776C27.5109 30.7728 27.43 30.7861 27.354 30.815C27.2781 30.8439 27.2088 30.8879 27.1503 30.9443C27.0917 31.0006 27.0452 31.0682 27.0135 31.143C26.9818 31.2178 26.9655 31.2983 26.9656 31.3795C26.9657 31.4608 26.9823 31.5412 27.0143 31.6159C27.0463 31.6906 27.093 31.758 27.1517 31.8142C27.2104 31.8704 27.2799 31.9141 27.3559 31.9428C27.4319 31.9714 27.513 31.9844 27.5941 31.981C27.7497 31.9744 27.8966 31.9079 28.0043 31.7954C28.1119 31.683 28.1719 31.5332 28.1716 31.3775C28.1713 31.2219 28.1109 31.0723 28.0029 30.9602C27.8949 30.8481 27.7477 30.7821 27.5921 30.776ZM31.9981 30.776C31.917 30.7727 31.8359 30.7858 31.7599 30.8146C31.684 30.8434 31.6146 30.8872 31.556 30.9435C31.4974 30.9998 31.4507 31.0673 31.4189 31.1421C31.387 31.2168 31.3706 31.2972 31.3706 31.3785C31.3706 31.4598 31.387 31.5402 31.4189 31.6149C31.4507 31.6897 31.4974 31.7572 31.556 31.8135C31.6146 31.8698 31.684 31.9136 31.7599 31.9424C31.8359 31.9712 31.917 31.9843 31.9981 31.981C32.1537 31.9747 32.3008 31.9084 32.4086 31.7961C32.5164 31.6838 32.5766 31.5342 32.5766 31.3785C32.5766 31.2228 32.5164 31.0732 32.4086 30.9609C32.3008 30.8486 32.1537 30.7823 31.9981 30.776ZM30.5351 0.5C30.8711 0.5 31.1421 0.772 31.1421 1.108V8.378L37.0961 15.181C37.1725 15.269 37.222 15.3771 37.2387 15.4924C37.2555 15.6077 37.2388 15.7254 37.1907 15.8315C37.1426 15.9376 37.0651 16.0277 36.9673 16.091C36.8695 16.1544 36.7556 16.1884 36.6391 16.189H14.1401C14.0235 16.1886 13.9095 16.1547 13.8116 16.0914C13.7137 16.0281 13.636 15.9381 13.5878 15.8319C13.5395 15.7258 13.5228 15.608 13.5395 15.4926C13.5563 15.3772 13.6057 15.2691 13.6821 15.181L19.6361 8.378V1.108C19.6361 0.772 19.9081 0.5 20.2441 0.5H30.5341H30.5351ZM30.2591 9.215H20.5201L15.4801 14.973H35.3001L30.2601 9.215H30.2591ZM14.1411 0.5C14.4761 0.5 14.7491 0.772 14.7491 1.108V8.607C14.7491 8.68684 14.7334 8.76591 14.7029 8.83967C14.6723 8.91344 14.6275 8.98046 14.5711 9.03692C14.5146 9.09338 14.4476 9.13816 14.3738 9.16872C14.3 9.19927 14.221 9.215 14.1411 9.215H0.998138C0.918257 9.21513 0.839136 9.1995 0.76531 9.16899C0.691485 9.13848 0.624407 9.0937 0.567923 9.03721C0.511439 8.98073 0.466659 8.91365 0.436151 8.83983C0.405642 8.766 0.390006 8.68688 0.390138 8.607V1.107C0.390138 0.773 0.662138 0.5 0.998138 0.5H14.1401H14.1411ZM49.7821 0.5C50.1181 0.5 50.3901 0.772 50.3901 1.108V8.607C50.3903 8.68688 50.3746 8.766 50.3441 8.83983C50.3136 8.91365 50.2688 8.98073 50.2124 9.03721C50.1559 9.0937 50.0888 9.13848 50.015 9.16899C49.9411 9.1995 49.862 9.21513 49.7821 9.215H36.6391C36.5593 9.21513 36.4801 9.1995 36.4063 9.16899C36.3325 9.13848 36.2654 9.0937 36.2089 9.03721C36.1524 8.98073 36.1077 8.91365 36.0771 8.83983C36.0466 8.766 36.031 8.68688 36.0311 8.607V1.107C36.0311 0.772 36.3031 0.5 36.6391 0.5L49.7821 0.5ZM29.9271 1.715H20.8531V8H29.9271V1.715ZM13.5331 1.715H1.60514V8H13.5331V1.715ZM49.1741 1.715H37.2461V8H49.1741V1.715Z" fill="#9A0000"/>
</g>
</g>
</g>
<defs>
<clipPath id="clip0_128_21">
<rect width="50" height="50" fill="white" transform="translate(0.390137 0.5)"/>
</clipPath>
<clipPath id="clip1_128_21">
<rect width="50" height="50" fill="white" transform="translate(0.390137 0.5)"/>
</clipPath>
<clipPath id="clip2_128_21">
<rect width="50" height="50" fill="white" transform="translate(0.390137 0.5)"/>
</clipPath>
</defs>
</svg>
