<svg width="51" height="51" viewBox="0 0 51 51" fill="none" xmlns="http://www.w3.org/2000/svg">
<g clip-path="url(#clip0_128_170)">
<g clip-path="url(#clip1_128_170)">
<g clip-path="url(#clip2_128_170)">
<path fill-rule="evenodd" clip-rule="evenodd" d="M37.4873 50.5C37.8273 50.5 38.1023 50.227 38.1023 49.89V45.523C39.9663 45.423 41.6973 44.873 43.1403 43.914C44.7453 42.847 45.8843 41.352 46.4383 39.59L47.8203 35.19C47.8568 35.0378 47.8339 34.8773 47.7563 34.7413C47.6787 34.6053 47.5523 34.5039 47.4026 34.4578C47.253 34.4117 47.0914 34.4243 46.9507 34.4931C46.8101 34.5619 46.7009 34.6816 46.6453 34.828L45.2633 39.228C44.2923 42.323 41.2403 44.323 37.4873 44.323H14.1403C10.3873 44.323 7.33531 42.323 6.36331 39.228L4.98231 34.827C4.93267 34.6722 4.82395 34.5433 4.67977 34.4682C4.53559 34.3931 4.3676 34.378 4.21231 34.426C4.13541 34.4492 4.06386 34.4874 4.00181 34.5384C3.93975 34.5894 3.88841 34.6522 3.85075 34.7231C3.81309 34.7941 3.78987 34.8718 3.78241 34.9517C3.77495 35.0317 3.78342 35.1124 3.80731 35.189L5.18831 39.59C5.74131 41.352 6.88231 42.847 8.48631 43.914C9.92931 44.874 11.6613 45.424 13.5253 45.524V49.891C13.5253 50.227 13.8003 50.5 14.1403 50.5C14.4793 50.5 14.7553 50.227 14.7553 49.89V45.541H36.8713V49.891C36.8713 50.227 37.1483 50.5 37.4873 50.5Z" fill="#9A0000"/>
<path fill-rule="evenodd" clip-rule="evenodd" d="M8.71015 31.608V1.716H25.6401V34.094C25.6401 34.514 25.4351 34.906 25.0901 35.145C24.5411 35.5229 23.8902 35.7253 23.2236 35.7253C22.5571 35.7253 21.9062 35.5229 21.3571 35.145C21.017 34.9095 20.6129 34.7838 20.1991 34.785C19.7941 34.785 19.3891 34.905 19.0421 35.145C18.493 35.5231 17.8419 35.7256 17.1751 35.7256C16.5084 35.7256 15.8573 35.5231 15.3081 35.145C14.9678 34.9102 14.5641 34.7844 14.1506 34.7844C13.7372 34.7844 13.3335 34.9102 12.9931 35.145C12.444 35.5231 11.7929 35.7256 11.1261 35.7256C10.4594 35.7256 9.80832 35.5231 9.25915 35.145C9.08961 35.0273 8.95105 34.8703 8.85528 34.6875C8.75951 34.5047 8.70938 34.3014 8.70915 34.095L8.71015 31.608ZM26.8551 28.304H47.8301C48.1784 28.3174 48.5079 28.4652 48.7496 28.7164C48.9912 28.9675 49.1262 29.3025 49.1262 29.651C49.1262 29.9995 48.9912 30.3345 48.7496 30.5856C48.5079 30.8368 48.1784 30.9846 47.8301 30.998H26.8551V28.304ZM40.1421 15.395C40.1429 15.452 40.1324 15.5085 40.1112 15.5614C40.0899 15.6143 40.0584 15.6624 40.0183 15.7029C39.9783 15.7435 39.9307 15.7757 39.8781 15.7977C39.8255 15.8197 39.7691 15.831 39.7121 15.831H31.2581C31.2003 15.8315 31.143 15.8202 31.0897 15.7977C31.0364 15.7753 30.9882 15.7423 30.948 15.7007C30.9079 15.659 30.8767 15.6097 30.8562 15.5556C30.8358 15.5015 30.8266 15.4438 30.8291 15.386C30.8291 14.516 31.9931 11.273 35.4851 11.273C38.9771 11.273 40.1421 14.516 40.1421 15.395ZM7.49415 30.998H2.95115C2.5939 30.998 2.25129 30.8561 1.99868 30.6035C1.74606 30.3509 1.60415 30.0082 1.60415 29.651C1.60415 29.2938 1.74606 28.9511 1.99868 28.6985C2.25129 28.4459 2.5939 28.304 2.95115 28.304H7.49415V30.998ZM0.998148 1.717H7.49515V27.087H2.95015C2.26615 27.087 1.62315 27.355 1.14015 27.839C0.782524 28.1977 0.539107 28.6543 0.440585 29.1511C0.342064 29.6479 0.39285 30.1628 0.586539 30.6308C0.780229 31.0989 1.10815 31.4991 1.52896 31.781C1.94977 32.0629 2.44463 32.2139 2.95115 32.215H7.49315V34.095C7.49315 34.913 7.89415 35.679 8.56615 36.145C9.31896 36.664 10.2118 36.942 11.1261 36.942C12.0405 36.942 12.9333 36.664 13.6861 36.145C13.8228 36.051 13.9848 36.0008 14.1506 36.0008C14.3165 36.0008 14.4785 36.051 14.6151 36.145C15.3811 36.675 16.2771 36.941 17.1751 36.94C18.0711 36.94 18.9681 36.675 19.7341 36.144C19.8709 36.0498 20.0331 35.9994 20.1991 35.9994C20.3652 35.9994 20.5274 36.0498 20.6641 36.144C21.4168 36.6626 22.3092 36.9403 23.2231 36.9403C24.1371 36.9403 25.0295 36.6626 25.7821 36.144C26.1131 35.9142 26.3834 35.6077 26.5701 35.2508C26.7568 34.8938 26.8542 34.4969 26.8541 34.094V32.214H47.8301C48.5141 32.214 49.1571 31.948 49.6421 31.464C49.9995 31.1052 50.2426 30.6486 50.3409 30.1519C50.4392 29.6551 50.3883 29.1404 50.1945 28.6725C50.0007 28.2046 49.6728 27.8046 49.252 27.5228C48.8313 27.241 48.3365 27.0901 47.8301 27.089H45.3091V10.424C45.3091 7.546 42.9691 5.204 40.0941 5.204C38.77 5.20616 37.4961 5.71107 36.5301 6.61662C35.564 7.52217 34.9778 8.76078 34.8901 10.082C31.1421 10.418 29.6141 13.894 29.6141 15.378C29.6081 15.823 29.7751 16.241 30.0871 16.558C30.3991 16.874 30.8141 17.048 31.2581 17.048H39.7121C40.1561 17.048 40.5721 16.874 40.8831 16.558C41.1951 16.241 41.3631 15.822 41.3571 15.386C41.3571 13.899 39.8362 10.436 36.1091 10.086C36.1947 9.08768 36.6512 8.15765 37.3887 7.47938C38.1263 6.80111 39.0912 6.42384 40.0931 6.422C42.2981 6.422 44.0931 8.218 44.0931 10.425V27.088H26.8541V1.717H49.7811C49.9425 1.717 50.0973 1.65289 50.2114 1.53877C50.3255 1.42466 50.3896 1.26988 50.3896 1.1085C50.3896 0.947116 50.3255 0.792341 50.2114 0.678226C50.0973 0.56411 49.9425 0.5 49.7811 0.5H0.998148C0.836764 0.5 0.68199 0.56411 0.567874 0.678226C0.453758 0.792341 0.389648 0.947116 0.389648 1.1085C0.389648 1.26988 0.453758 1.42466 0.567874 1.53877C0.68199 1.65289 0.836764 1.717 0.998148 1.717Z" fill="#9A0000"/>
<path fill-rule="evenodd" clip-rule="evenodd" d="M14.3732 31.009C14.6072 31.009 14.7962 30.732 14.7962 30.391V6.20196C14.7962 5.86096 14.6062 5.58496 14.3732 5.58496C14.1392 5.58496 13.9502 5.86096 13.9502 6.20196V30.392C13.9502 30.732 14.1402 31.009 14.3732 31.009ZM20.3052 31.009C20.5402 31.009 20.7292 30.733 20.7292 30.391V6.20196C20.7292 5.86096 20.5392 5.58496 20.3052 5.58496C20.0722 5.58496 19.8822 5.86096 19.8822 6.20196V30.392C19.8822 30.732 20.0722 31.009 20.3052 31.009Z" fill="#9A0000"/>
</g>
</g>
</g>
<defs>
<clipPath id="clip0_128_170">
<rect width="50" height="50" fill="white" transform="translate(0.390137 0.5)"/>
</clipPath>
<clipPath id="clip1_128_170">
<rect width="50" height="50" fill="white" transform="translate(0.390137 0.5)"/>
</clipPath>
<clipPath id="clip2_128_170">
<rect width="50" height="50" fill="white" transform="translate(0.390137 0.5)"/>
</clipPath>
</defs>
</svg>
