<svg width="140" height="122" viewBox="0 0 140 122" fill="none" xmlns="http://www.w3.org/2000/svg">
<g clip-path="url(#clip0_128_108)">
<g clip-path="url(#clip1_128_108)">
<g clip-path="url(#clip2_128_108)">
<path fill-rule="evenodd" clip-rule="evenodd" d="M70.5608 104.959C70.5608 104.793 70.5668 104.628 70.5718 104.461C70.6538 101.661 70.9818 98.8511 70.6708 96.0681C70.6158 95.6251 70.5338 95.1501 70.2218 94.8331C69.9538 94.5651 69.5658 94.4581 69.1948 94.4131C68.3688 94.3151 65.1548 98.4261 65.1268 99.0911C65.0888 99.8231 65.2088 100.551 65.3348 101.273L66.7288 109.625C67.0408 111.477 67.3518 113.34 67.9808 115.11C68.1608 115.627 68.4728 116.212 69.0198 116.269C69.3588 116.303 69.6858 116.104 69.8888 115.832C70.0968 115.559 70.1948 115.224 70.2658 114.891C70.4458 114.08 70.5008 113.246 70.5338 112.417C70.6268 109.933 70.5058 107.445 70.5608 104.959Z" fill="#E7C59B"/>
<path fill-rule="evenodd" clip-rule="evenodd" d="M67.1959 114.78C67.1959 114.78 67.0209 113.058 68.4919 112.563C69.9619 112.068 70.8969 113.253 70.8969 113.253L67.1959 114.78Z" fill="white"/>
<path fill-rule="evenodd" clip-rule="evenodd" d="M70.4598 113.204C70.0278 113.269 69.5848 113.611 69.1798 113.792C67.8458 114.393 66.6158 115.112 65.3098 115.77C64.5768 116.14 63.0958 116.764 63.2648 117.807C63.4998 119.26 65.9928 118.374 66.8458 118.183C68.2778 117.864 69.7818 117.392 71.1038 116.756C72.3338 116.166 71.9678 115.36 71.7878 114.604C71.6888 114.196 71.5038 113.783 71.2138 113.475C70.9738 113.225 70.7228 113.166 70.4598 113.204Z" fill="#191919"/>
<path fill-rule="evenodd" clip-rule="evenodd" d="M93.064 101.766C93.026 101.606 92.982 101.444 92.944 101.284C92.271 98.564 91.829 95.77 90.774 93.174C90.609 92.76 90.402 92.326 90.014 92.104C89.686 91.918 89.281 91.918 88.909 91.976C88.089 92.103 86.099 96.926 86.252 97.576C86.417 98.288 86.728 98.958 87.04 99.62C88.237 102.177 89.434 104.733 90.637 107.289C91.435 108.989 92.239 110.7 93.315 112.235C93.632 112.683 94.092 113.165 94.633 113.072C94.966 113.015 95.229 112.734 95.355 112.417C95.475 112.1 95.48 111.75 95.464 111.411C95.414 110.581 95.245 109.764 95.048 108.956C94.474 106.538 93.688 104.173 93.064 101.766Z" fill="#E7C59B"/>
<path fill-rule="evenodd" clip-rule="evenodd" d="M92.4622 112.128C92.4622 112.128 91.8282 110.518 93.1122 109.645C94.3972 108.773 95.6112 109.665 95.6112 109.665L92.4622 112.128Z" fill="white"/>
<path fill-rule="evenodd" clip-rule="evenodd" d="M95.185 109.734C94.781 109.913 94.4471 110.361 94.1081 110.645C92.9821 111.582 91.9931 112.605 90.9101 113.589C90.3041 114.142 89.0461 115.141 89.489 116.101C90.107 117.437 92.2721 115.914 93.0421 115.499C94.3321 114.809 95.6551 113.95 96.7601 112.982C97.7871 112.082 97.219 111.404 96.8361 110.725C96.6341 110.358 96.344 110.011 95.978 109.793C95.683 109.617 95.42 109.627 95.185 109.734ZM77.434 81.7961C77.434 81.7961 76.1981 84.3471 78.0511 88.9241C79.8991 93.5021 85.317 104.06 86.1971 103.908C87.0821 103.757 95.0311 100.068 95.2931 99.1881C95.5611 98.3081 90.9311 83.7311 90.9311 83.7311C90.9311 83.7311 87.1311 77.1311 86.864 77.1311C86.601 77.1311 77.434 81.7961 77.434 81.7961Z" fill="#191919"/>
<path fill-rule="evenodd" clip-rule="evenodd" d="M27.27 126H30.443V39.8611H27.27V126Z" fill="#CBCBCB"/>
<path fill-rule="evenodd" clip-rule="evenodd" d="M41.018 126H16.686C16.5095 126.005 16.3338 125.974 16.1694 125.91C16.0049 125.846 15.855 125.749 15.7285 125.626C15.6019 125.503 15.5014 125.356 15.4327 125.193C15.364 125.031 15.3286 124.856 15.3286 124.679C15.3286 124.503 15.364 124.328 15.4327 124.166C15.5014 124.003 15.6019 123.856 15.7285 123.733C15.855 123.609 16.0049 123.513 16.1694 123.449C16.3338 123.385 16.5095 123.354 16.686 123.359H41.018C41.1944 123.354 41.3701 123.385 41.5345 123.449C41.699 123.513 41.8489 123.609 41.9754 123.733C42.102 123.856 42.2026 124.003 42.2712 124.166C42.3399 124.328 42.3753 124.503 42.3753 124.679C42.3753 124.856 42.3399 125.031 42.2712 125.193C42.2026 125.356 42.102 125.503 41.9754 125.626C41.8489 125.749 41.699 125.846 41.5345 125.91C41.3701 125.974 41.1944 126.005 41.018 126ZM121.164 126H124.335V57.8159H121.164V126Z" fill="#CBCBCB"/>
<path fill-rule="evenodd" clip-rule="evenodd" d="M134.917 126H110.585C110.235 126 109.899 125.861 109.651 125.613C109.404 125.366 109.265 125.03 109.265 124.679C109.265 124.329 109.404 123.993 109.651 123.746C109.899 123.498 110.235 123.359 110.585 123.359H134.917C135.644 123.359 136.24 123.95 136.24 124.679C136.24 125.409 135.644 126 134.917 126ZM5.626 21.293H97.092L133.637 63.11H38.907L5.626 21.293Z" fill="#CBCBCB"/>
<path fill-rule="evenodd" clip-rule="evenodd" d="M25.8569 26.8059L49.0199 56.9299H114.371L92.3079 26.8059H25.8569Z" fill="white"/>
<path fill-rule="evenodd" clip-rule="evenodd" d="M76.8151 40.0299L69.4951 30.8419H52.3081V30.2959H69.7631L77.2411 39.6909L76.8151 40.0299Z" fill="#CBCBCB"/>
<path fill-rule="evenodd" clip-rule="evenodd" d="M74.522 53.9019C74.4801 53.9022 74.4387 53.8931 74.4008 53.8753C74.3629 53.8574 74.3294 53.8313 74.303 53.7989L54.29 28.4499C54.268 28.4215 54.2518 28.3891 54.2424 28.3544C54.233 28.3197 54.2305 28.2836 54.2352 28.248C54.2398 28.2124 54.2515 28.178 54.2695 28.1469C54.2874 28.1159 54.3114 28.0887 54.34 28.0669C54.3681 28.0448 54.4002 28.0285 54.4346 28.0189C54.4691 28.0092 54.505 28.0065 54.5405 28.0107C54.576 28.015 54.6103 28.0262 54.6414 28.0438C54.6725 28.0613 54.6999 28.0848 54.722 28.1129L74.735 53.4629C74.7789 53.5197 74.7989 53.5913 74.7909 53.6626C74.7829 53.7339 74.7474 53.7993 74.692 53.8449C74.6431 53.8822 74.5834 53.9016 74.522 53.9019ZM66.673 51.5269H55.22L55.138 51.4249L42.21 35.4899H51.602V36.0359H43.357L55.484 50.9819H66.674V51.5279L66.673 51.5269Z" fill="#CBCBCB"/>
<path fill-rule="evenodd" clip-rule="evenodd" d="M38.8999 21.293L74.0439 63.11H80.1619L45.3359 21.293H38.8999Z" fill="#666666"/>
<path fill-rule="evenodd" clip-rule="evenodd" d="M75.454 45.1891C75.4116 45.1887 75.3699 45.1786 75.3321 45.1595C75.2943 45.1405 75.2614 45.1129 75.236 45.0791L63.29 29.1801C63.2684 29.1516 63.2528 29.1191 63.2439 29.0846C63.235 29.05 63.233 29.014 63.2381 28.9786C63.2433 28.9433 63.2553 28.9093 63.2737 28.8787C63.292 28.848 63.3162 28.8213 63.345 28.8001C63.465 28.7101 63.635 28.7331 63.727 28.8541L75.672 44.7541C75.6936 44.7826 75.7094 44.8152 75.7184 44.8499C75.7274 44.8845 75.7294 44.9207 75.7243 44.9561C75.7192 44.9916 75.707 45.0257 75.6886 45.0564C75.6702 45.0871 75.6458 45.1139 75.617 45.1351C75.5696 45.1705 75.5121 45.1898 75.453 45.1901L75.454 45.1891Z" fill="#CBCBCB"/>
<path fill-rule="evenodd" clip-rule="evenodd" d="M4.046 18.2991H-0.527C-1.341 18.2991 -2 18.9571 -2 19.7691V20.5951C-2 21.0471 -1.845 21.4851 -1.562 21.8371L31.075 62.3621C31.456 62.8341 32.031 63.1091 32.639 63.1091H38.907V61.2001C38.9065 60.607 38.7033 60.0318 38.331 59.5701L5.685 19.0811C5.48744 18.8364 5.2376 18.6391 4.9538 18.5036C4.67001 18.3681 4.35948 18.2979 4.045 18.2981L4.046 18.2991ZM103.374 18.2991H98.787C97.853 18.2991 97.093 19.0561 97.093 19.9891V21.2931L130.379 62.6201C130.625 62.9301 131.002 63.1101 131.401 63.1101H137.109C137.226 63.1102 137.342 63.0873 137.45 63.0426C137.558 62.998 137.656 62.9324 137.739 62.8498C137.822 62.7671 137.887 62.669 137.932 62.5609C137.977 62.4529 138 62.3371 138 62.2201V60.8511C138 60.4831 137.874 60.1261 137.644 59.8411L104.631 18.8991C104.325 18.5191 103.86 18.2991 103.374 18.2991Z" fill="#666666"/>
<path fill-rule="evenodd" clip-rule="evenodd" d="M55.343 36.8471C55.031 36.0321 54.277 35.5211 53.605 35.0191C52.32 34.0551 51.117 32.9941 49.847 32.0101C49.856 31.9381 49.869 31.8651 49.871 31.7951C49.877 31.7801 49.887 31.7701 49.891 31.7531C50.329 30.1991 47.415 26.5121 45.835 27.9811C45.09 28.6741 45.487 30.1461 45.859 30.9311C46.151 31.5481 46.777 32.7951 47.603 32.8021C48.036 33.5091 48.813 34.2471 49.133 34.6351C49.767 35.4021 50.434 36.1291 51.084 36.8831C51.587 37.4701 52.014 38.1621 52.708 38.5361C52.943 38.6641 53.162 38.4121 53.058 38.1861C52.927 37.8961 52.495 37.5891 52.484 37.2591C52.457 36.5961 53.2 37.2021 53.49 37.0171C53.523 36.9981 53.687 36.7381 53.654 36.7331C53.774 36.7531 53.884 36.7501 53.993 36.7161C54.348 36.9951 54.725 37.2471 55.184 37.1211C55.294 37.0911 55.387 36.9611 55.343 36.8471Z" fill="#E7C59B"/>
<path fill-rule="evenodd" clip-rule="evenodd" d="M71.0859 49.547H86.7589V49H71.0859V49.547ZM83.1599 126C82.3839 126 81.7499 125.369 81.7499 124.591V84.896H84.5699V124.591C84.5699 125.369 83.9419 126 83.1599 126ZM105.822 126C106.598 126 107.232 125.369 107.232 124.591V84.896H104.411V124.591C104.411 125.369 105.04 126 105.822 126Z" fill="#CBCBCB"/>
<path fill-rule="evenodd" clip-rule="evenodd" d="M107.23 85.668H81.75V83.669C81.7504 83.0292 81.8768 82.3958 82.1221 81.8049C82.3674 81.214 82.7268 80.6772 83.1796 80.2252C83.6324 79.7732 84.1698 79.4149 84.7612 79.1707C85.3525 78.9265 85.9862 78.8012 86.626 78.802H102.354C102.994 78.8012 103.627 78.9265 104.219 79.1707C104.81 79.4149 105.348 79.7732 105.8 80.2252C106.253 80.6772 106.613 81.214 106.858 81.8049C107.103 82.3958 107.23 83.0292 107.23 83.669V85.668Z" fill="#666666"/>
<path fill-rule="evenodd" clip-rule="evenodd" d="M83.1558 116.275H105.023V114.339H83.1558V116.275Z" fill="#CBCBCB"/>
<path fill-rule="evenodd" clip-rule="evenodd" d="M98.6658 26.6651C98.6278 27.4731 98.5178 28.3441 98.0538 28.9041C97.3918 29.6911 96.0688 29.6011 95.1288 29.5591C93.8718 29.5001 92.4718 29.0571 91.5048 28.2441C91.0288 27.8431 90.6348 27.3251 90.5478 26.6921C90.5148 26.4431 90.3998 25.0541 90.8978 25.0811C90.8478 25.0751 90.5918 24.5261 90.3618 23.9881C90.1538 23.5231 89.9628 23.0631 89.9248 22.9681C89.9078 22.9151 89.8868 22.8621 89.8648 22.8051V22.7991C89.8148 22.8201 89.7658 22.8361 89.7228 22.8521C89.2536 22.9984 88.7642 23.0696 88.2728 23.0631C86.7708 23.0051 85.7048 21.9331 84.9448 20.4751C84.9388 20.4701 84.9388 20.4651 84.9338 20.4601C84.8508 20.31 84.7741 20.1565 84.7038 20.0001C84.6938 19.9851 84.6878 19.9631 84.6768 19.9471C83.9498 18.3571 83.5068 16.4411 83.2008 14.8831C83.1408 14.5811 83.0858 14.3021 83.0368 14.0331C82.9768 13.7111 82.9168 13.4151 82.8668 13.1561C82.7028 12.3371 82.6868 11.7091 83.4078 11.1761C85.2888 9.7971 87.2518 9.7331 89.4548 9.9981C91.9248 10.2881 91.8928 13.0181 93.5548 14.2131C95.3858 15.5331 95.5338 17.3071 96.3808 19.1821C96.8948 20.3281 97.3318 21.5111 97.7638 22.6881C98.0758 23.5281 98.3758 25.2921 99.0048 25.9201C99.2238 26.1421 98.9608 26.6441 98.6658 26.6651Z" fill="#E7C59B"/>
<path fill-rule="evenodd" clip-rule="evenodd" d="M97.171 10.776V10.741C97.111 9.79597 97.439 9.08097 97.127 8.12197C96.843 7.26197 96.297 6.50197 95.641 5.88397C94.356 4.66697 92.475 3.81197 90.677 4.03597C89.299 4.20697 87.933 3.98097 86.587 4.31697C85.779 4.51997 84.964 4.77997 84.314 5.31697C83.658 5.85097 83.214 6.59797 82.554 7.12597C81.493 7.96897 80.832 9.26097 80.886 10.638C80.81 11.246 81.001 11.99 81.263 12.349C81.608 12.803 82.236 13.015 82.739 13.242C83.149 13.432 83.603 13.452 84.035 13.374C84.205 13.928 84.532 14.44 85.046 14.948C85.582 15.475 86.189 15.867 86.544 16.532C86.73 16.88 86.844 17.25 87.052 17.588C87.4078 18.1796 87.9208 18.6608 88.534 18.978C89.157 19.315 89.874 19.442 90.496 19.769C91.3 20.192 91.819 20.725 92.766 20.725C93.815 20.725 94.936 20.617 95.826 20.017C96.215 19.753 96.521 19.326 96.668 18.887C96.914 18.16 96.581 17.511 96.92 16.807C97.324 15.954 97.723 15.191 97.75 14.227C97.7729 13.305 97.64 12.3857 97.357 11.508C97.281 11.268 97.193 11.028 97.171 10.776Z" fill="#191919"/>
<path fill-rule="evenodd" clip-rule="evenodd" d="M85.2339 15.1291C85.2339 15.1291 85.6829 14.2421 86.5079 14.6601C87.3339 15.0781 87.2629 17.9001 87.2629 17.9001L86.1419 18.0051L85.2339 15.1291Z" fill="#E7C59B"/>
<path fill-rule="evenodd" clip-rule="evenodd" d="M90.6772 23.697C90.5732 23.787 90.4742 23.887 90.3652 23.987C90.1572 23.523 89.9652 23.063 89.9272 22.967C89.9112 22.916 89.8892 22.863 89.8672 22.805C90.0972 22.677 90.3102 22.525 90.5402 22.376C90.6932 22.276 91.0432 22.028 91.2182 22.208C91.265 22.263 91.2936 22.3311 91.3002 22.403C91.3762 22.931 91.0372 23.359 90.6772 23.697Z" fill="#DBB17E"/>
<path fill-rule="evenodd" clip-rule="evenodd" d="M77.7641 25.5411C77.7641 25.5411 75.2881 23.3541 75.2551 23.1771C75.2221 23.0001 74.9441 20.6791 74.0851 19.9531C73.2221 19.2271 71.7731 18.5771 70.0291 20.0511C69.3731 20.6041 68.2471 22.1251 69.6351 22.1331C71.0241 22.1421 71.5161 22.0761 71.8501 22.3071C72.1781 22.5371 72.1121 23.0991 72.4131 23.5611C72.7081 24.0231 73.3091 24.3211 73.3091 24.3211C73.3091 24.3211 75.1571 27.2571 75.1571 27.3561C75.1571 27.4561 77.7641 25.5411 77.7641 25.5411Z" fill="#E7C59B"/>
<path fill-rule="evenodd" clip-rule="evenodd" d="M86.2381 28.0169C85.8881 27.9289 82.6521 23.6999 78.6891 24.6249C74.7201 25.5489 73.2661 28.2809 73.7251 30.7229C73.9331 31.8039 76.5731 35.3439 76.5731 35.3439C76.5731 35.3439 82.4661 31.0099 82.7731 30.8779C83.0731 30.7449 86.2381 28.0169 86.2381 28.0169Z" fill="#FAC73D"/>
<path fill-rule="evenodd" clip-rule="evenodd" d="M73.5969 17.107C73.446 17.0377 73.2737 17.0311 73.1179 17.0887C72.9621 17.1462 72.8355 17.2632 72.7659 17.414L68.9279 25.716L68.8079 26.944C68.7859 27.167 69.0589 27.292 69.2119 27.13L70.0709 26.241L73.9029 17.939C73.938 17.8644 73.9579 17.7835 73.9614 17.7012C73.965 17.6188 73.9522 17.5365 73.9237 17.4591C73.8953 17.3817 73.8517 17.3107 73.7956 17.2503C73.7395 17.1899 73.672 17.1412 73.5969 17.107Z" fill="#371005"/>
<path fill-rule="evenodd" clip-rule="evenodd" d="M109.695 60.76C109.695 60.76 113.735 72.518 110.225 76.954C106.721 81.391 101.85 79.947 93.5632 80.211C85.2762 80.475 74.0802 84.876 73.0192 86.108C71.9642 87.341 71.9642 102.568 71.3472 103.359C70.7292 104.151 63.3772 104.291 62.4912 103.675C61.6112 103.059 59.4242 86.529 61.8242 80.563C64.9122 72.906 80.5142 68.769 83.9532 67.537C87.3912 66.304 88.6272 62.872 88.6272 62.872L109.695 60.76Z" fill="#191919"/>
<path fill-rule="evenodd" clip-rule="evenodd" d="M113.135 62.923C112.987 61.807 112.785 60.578 112.293 59.546C112.216 59.0983 112.147 58.6492 112.085 58.199C111.987 57.5 111.905 56.799 111.828 56.099C111.156 50.287 110.587 44.45 109.658 38.674C110.32 37.064 110.167 35.4 110.068 33.631C109.959 31.587 109.603 29.575 108.199 28.033C106.93 26.653 105.706 25.329 103.918 24.61C102.027 23.858 100.491 23.258 98.4352 23.192C96.2212 23.122 93.9912 23.298 91.8482 23.882C88.6882 24.747 85.5722 26.232 82.6312 27.657C81.0622 28.418 79.5812 29.427 78.1482 30.409C76.4812 31.56 74.5842 32.004 72.6822 32.589C70.8892 33.142 69.3312 33.57 67.6912 34.507C65.8982 35.547 63.5522 35.944 61.5742 35.237C59.8142 34.602 58.2942 33.52 56.5012 32.997C53.8112 32.213 52.1002 31.161 50.2772 33.122C49.9302 33.496 48.2502 35.015 49.4402 37.39C50.2932 39.094 51.2032 39.86 52.9252 42.202C53.9372 43.584 56.1072 44.74 57.6812 45.4C61.0162 46.795 62.0382 47.885 65.7452 47.34C67.6979 47.0514 69.6398 46.6938 71.5672 46.268C73.6002 45.816 78.9682 44.501 80.4342 44.136C80.6582 44.638 81.0182 45.129 81.2262 45.609C81.6692 46.623 81.7842 47.647 82.0362 48.704C82.4292 50.33 83.2542 51.797 83.6922 53.412C84.1512 55.118 84.3802 56.874 84.6102 58.622C84.8292 60.243 85.1952 61.974 85.0862 63.598C84.9382 65.822 85.5832 66.419 87.5352 68.042C88.4592 68.809 89.7272 69.039 90.8252 69.447C92.4982 70.067 93.9852 70.993 95.2652 72.242C96.3152 73.267 97.4072 74.533 98.7522 75.175C99.9772 75.757 101.36 76.461 102.748 76.162C103.836 75.93 104.908 75.489 105.815 74.846C106.673 74.236 107.187 73.296 107.98 72.604C108.665 72.0059 109.369 71.43 110.09 70.877C110.91 70.242 111.888 69.547 112.38 68.605C113.244 66.935 113.703 64.765 113.135 62.923Z" fill="#FAC73D"/>
<path fill-rule="evenodd" clip-rule="evenodd" d="M59.53 48.6219H49.523C49.4871 48.6219 49.4516 48.6149 49.4185 48.6011C49.3854 48.5874 49.3553 48.5673 49.33 48.542C49.3046 48.5166 49.2845 48.4865 49.2708 48.4534C49.2571 48.4203 49.25 48.3848 49.25 48.3489C49.25 48.3131 49.2571 48.2776 49.2708 48.2445C49.2845 48.2113 49.3046 48.1812 49.33 48.1559C49.3553 48.1305 49.3854 48.1104 49.4185 48.0967C49.4516 48.083 49.4871 48.0759 49.523 48.0759H59.53C59.684 48.0759 59.804 48.1979 59.804 48.3489C59.804 48.4989 59.683 48.6219 59.53 48.6219Z" fill="#CBCBCB"/>
</g>
</g>
</g>
<defs>
<clipPath id="clip0_128_108">
<rect width="140" height="122" fill="white"/>
</clipPath>
<clipPath id="clip1_128_108">
<rect width="140" height="122" fill="white" transform="translate(-2 4)"/>
</clipPath>
<clipPath id="clip2_128_108">
<rect width="140" height="122" fill="white" transform="translate(-2 4)"/>
</clipPath>
</defs>
</svg>
