<svg width="85" height="62" viewBox="0 0 85 62" fill="none" xmlns="http://www.w3.org/2000/svg">
<g clip-path="url(#clip0_102_503)">
<path fill-rule="evenodd" clip-rule="evenodd" d="M42.7522 0.166748C29.408 0.166748 18.0023 8.52175 13.5815 20.2211H15.6012C19.9178 9.56417 30.4445 2.03456 42.7522 2.03456C55.0608 2.03456 65.5885 9.56417 69.9041 20.2211H71.9247C67.504 8.52175 56.0974 0.166748 42.7522 0.166748Z" fill="black"/>
<path fill-rule="evenodd" clip-rule="evenodd" d="M30.1782 19.7189H31.5018C34.3223 17.1731 38.0943 15.6033 42.2483 15.6033C46.4032 15.6033 50.1781 17.1731 52.9966 19.7189H54.3202C51.2757 16.6382 46.9975 14.7053 42.2483 14.7053C37.5029 14.7053 33.2219 16.6382 30.1782 19.7189Z" fill="black"/>
<path fill-rule="evenodd" clip-rule="evenodd" d="M83.0988 40.7135H1.90027L5.66176 32.2966L1.90027 23.8824H83.0988L79.3382 32.2966L83.0988 40.7135ZM0 22.521L4.36736 32.2966L0 42.074H85L80.6308 32.2966L85 22.521H0Z" fill="black"/>
<path fill-rule="evenodd" clip-rule="evenodd" d="M11.0632 32.3532C11.0632 33.1849 10.3881 33.8585 9.55424 33.8585C8.72049 33.8585 8.04541 33.1849 8.04541 32.3532C8.04541 31.5231 8.72049 30.8503 9.55424 30.8503C10.3881 30.8503 11.0632 31.5231 11.0632 32.3532Z" fill="black"/>
<path fill-rule="evenodd" clip-rule="evenodd" d="M73.9351 32.3532C73.9351 33.1849 74.6125 33.8585 75.4451 33.8585C76.2779 33.8585 76.9528 33.1849 76.9528 32.3532C76.9528 31.5231 76.2779 30.8503 75.4451 30.8503C74.6125 30.8503 73.9351 31.5231 73.9351 32.3532Z" fill="black"/>
<path fill-rule="evenodd" clip-rule="evenodd" d="M54.3202 43.7849H52.9966C50.1781 46.3298 46.4032 47.9002 42.2483 47.9002C38.0943 47.9002 34.3223 46.3298 31.5018 43.7849H30.1782C33.2219 46.867 37.5029 48.7985 42.2483 48.7985C46.9975 48.7985 51.2757 46.867 54.3202 43.7849Z" fill="black"/>
<path fill-rule="evenodd" clip-rule="evenodd" d="M42.7507 61.8338C55.3169 61.8338 66.1428 54.4034 70.9168 43.7849H68.8786C64.2421 53.3722 54.2887 60.0057 42.7507 60.0057C31.2144 60.0057 21.2593 53.3722 16.6209 43.7849H14.5854C19.3594 54.4034 30.1854 61.8338 42.7507 61.8338Z" fill="black"/>
<path fill-rule="evenodd" clip-rule="evenodd" d="M28.7618 18.2365C28.4612 18.5325 28.0868 18.6927 27.6379 18.7145C27.1889 18.7371 26.7974 18.6181 26.4643 18.3589L23.6853 16.1981C23.3473 15.9348 23.1654 15.6061 23.1396 15.2137C23.1148 14.8204 23.2507 14.4766 23.5483 14.1823C23.8489 13.8863 24.2233 13.7269 24.6703 13.7059C25.1183 13.685 25.5108 13.8049 25.8468 14.0665L26.4269 14.5177L25.7195 15.2154L25.1231 14.7508C25.0006 14.6569 24.8589 14.6133 24.6952 14.6225C24.5324 14.63 24.3956 14.6879 24.2874 14.7952C24.1793 14.9017 24.1313 15.0267 24.1409 15.1684C24.1524 15.3101 24.2185 15.4292 24.341 15.5231L27.1277 17.6907C27.2493 17.7863 27.3909 17.8282 27.5518 17.8206C27.7126 17.8123 27.8475 17.7544 27.9557 17.647C28.0638 17.5406 28.1146 17.4164 28.106 17.2748C28.0983 17.1322 28.0323 17.0139 27.9107 16.9192L26.9103 16.1419L26.5323 16.515L25.7597 15.9147L26.8462 14.8439L28.6248 16.2274C28.9647 16.4907 29.1447 16.8186 29.1695 17.2102C29.1935 17.6018 29.0575 17.9448 28.7618 18.2365Z" fill="black"/>
<path fill-rule="evenodd" clip-rule="evenodd" d="M31.0538 15.8794C30.7015 16.145 30.3079 16.2515 29.8728 16.1955C29.4386 16.1413 29.0864 15.9437 28.8161 15.6028L25.6519 11.601L26.4344 11.0119L29.5921 15.0045C29.6901 15.1286 29.8182 15.1994 29.9773 15.2187C30.1364 15.238 30.2796 15.1994 30.4068 15.1029C30.5339 15.0083 30.6064 14.8833 30.6262 14.7289C30.6469 14.5755 30.6083 14.4367 30.5104 14.3135L27.3526 10.3209L28.1861 9.69238L31.3504 13.6942C31.6254 14.0406 31.7318 14.4257 31.6706 14.8502C31.6094 15.2738 31.4031 15.6165 31.0538 15.8794Z" fill="black"/>
<path fill-rule="evenodd" clip-rule="evenodd" d="M31.4265 9.3485L32.2438 11.8402L32.8826 11.5077L31.4265 9.3485ZM32.533 12.7753L32.9862 14.2399L32.0878 14.707L30.1768 8.30464L31.3643 7.68799L35.2063 13.0874L34.299 13.5592L33.4349 12.3072L32.533 12.7753Z" fill="black"/>
<path fill-rule="evenodd" clip-rule="evenodd" d="M36.9952 7.57489C36.9042 7.22336 36.6901 7.0956 36.3552 7.18988L35.824 7.33789L36.3289 9.27358L36.8592 9.12466C36.9995 9.08591 37.104 9.00133 37.1754 8.87183C37.2459 8.74049 37.2629 8.60308 37.2255 8.45859L36.9952 7.57489ZM36.0891 6.26389C36.5804 6.12645 36.9765 6.16698 37.2791 6.38195C37.5442 6.56962 37.7346 6.88327 37.8485 7.32028L38.0771 8.19956C38.1885 8.62774 38.1256 9.03391 37.8893 9.41716L39.2287 11.8753L38.2777 12.1422L37.1499 10.0127C37.1252 10.0198 37.0989 10.0268 37.0708 10.0348L36.5634 10.1767L37.1566 12.4551L36.2761 12.7017L34.7021 6.65244L36.0891 6.26389Z" fill="black"/>
<path fill-rule="evenodd" clip-rule="evenodd" d="M41.4781 6.68205L41.3081 9.21308L41.9266 9.16825L41.4781 6.68205ZM41.2301 10.1575L41.1084 11.6356L40.2388 11.6983L40.8276 5.26497L41.9765 5.18066L43.2565 11.4777L42.3783 11.5422L42.1014 10.0938L41.2301 10.1575Z" fill="black"/>
<path fill-rule="evenodd" clip-rule="evenodd" d="M45.883 5.33658L46.6045 9.91566L47.253 5.52034L48.2855 5.65955L47.321 12.1997L46.2117 12.0502L45.4086 7.67161L44.7903 11.86L43.7588 11.7208L44.7232 5.18066L45.883 5.33658Z" fill="black"/>
<path fill-rule="evenodd" clip-rule="evenodd" d="M50.078 7.40111L49.092 7.07628L49.4128 6.18408L52.3069 7.13757L51.9861 8.03064L51.0038 7.70756L49.2099 12.7017L48.2832 12.3962L50.078 7.40111Z" fill="black"/>
<path fill-rule="evenodd" clip-rule="evenodd" d="M50.7988 13.3527L54.2089 7.68799L56.8343 9.04133L56.3175 9.90066L54.6154 9.02216L53.6852 10.5668L54.9285 11.2084L54.4127 12.0678L53.1683 11.4253L52.2381 12.97L53.9411 13.8485L53.4242 14.707L50.7988 13.3527Z" fill="black"/>
<path fill-rule="evenodd" clip-rule="evenodd" d="M53.8198 15.0523L58.0692 10.1943L60.3582 11.8541L59.7141 12.5897L58.2283 11.5129L57.0694 12.8384L58.1555 13.6247L57.5113 14.3612L56.4262 13.574L55.2663 14.8987L56.7521 15.9755L56.1089 16.712L53.8198 15.0523Z" fill="black"/>
<path fill-rule="evenodd" clip-rule="evenodd" d="M57.7684 17.1331L58.1791 17.5774C58.2869 17.6932 58.4222 17.7547 58.5833 17.7602C58.7453 17.7648 58.8854 17.717 59.0046 17.616L61.6542 15.3418C61.7752 15.238 61.84 15.1085 61.8515 14.9524C61.862 14.7964 61.8152 14.6614 61.7095 14.5475L61.2986 14.1041L57.7684 17.1331ZM59.6831 18.3184C59.3486 18.6049 58.9588 18.7362 58.5137 18.7141C58.0677 18.6921 57.6969 18.5214 57.4024 18.2018L56.334 17.0468L61.3987 12.7002L62.4672 13.8553C62.7646 14.1775 62.898 14.5521 62.8684 14.9791C62.8398 15.4079 62.6597 15.7632 62.328 16.0479L59.6831 18.3184Z" fill="black"/>
<path fill-rule="evenodd" clip-rule="evenodd" d="M23.4846 50.2851C23.2037 49.9704 23.0629 49.5894 23.0645 49.1413C23.0653 48.6933 23.2051 48.3098 23.4821 47.9917L25.7924 45.3384C26.0738 45.0158 26.4126 44.852 26.8071 44.8468C27.2024 44.8426 27.5397 44.9959 27.819 45.3077C28.0998 45.6223 28.2398 46.0033 28.2375 46.4494C28.235 46.8965 28.0943 47.2809 27.8146 47.6017L27.3323 48.1556L26.6705 47.4148L27.1671 46.8455C27.2676 46.7284 27.3186 46.5897 27.318 46.4263C27.3189 46.2638 27.2681 46.1245 27.1662 46.0113C27.0652 45.898 26.9426 45.8438 26.8001 45.8459C26.6576 45.8499 26.5348 45.9094 26.4343 46.0265L24.1169 48.687C24.0148 48.8031 23.9654 48.9419 23.9645 49.1024C23.9645 49.2629 24.0154 49.4003 24.1172 49.5136C24.2183 49.6268 24.34 49.6838 24.4824 49.6827C24.6255 49.6825 24.7475 49.623 24.8488 49.5069L25.6799 48.5518L25.3258 48.1558L25.9677 47.4183L26.9836 48.5558L25.5045 50.254C25.2229 50.5785 24.885 50.7405 24.4914 50.7448C24.0979 50.7481 23.7614 50.5948 23.4846 50.2851Z" fill="black"/>
<path fill-rule="evenodd" clip-rule="evenodd" d="M27.0041 53.644C26.6509 53.3797 26.4396 53.0319 26.3737 52.5995C26.3063 52.1686 26.3998 51.7767 26.6541 51.4237L29.641 47.2886L30.4246 47.8761L27.4448 52.0023C27.3521 52.1304 27.3192 52.2727 27.3445 52.4305C27.3697 52.5882 27.4465 52.7148 27.5746 52.81C27.7008 52.9057 27.8413 52.9408 27.9956 52.9172C28.1494 52.8947 28.2726 52.8195 28.3643 52.6917L31.3441 48.5655L32.18 49.1908L29.1931 53.3259C28.9348 53.6849 28.5928 53.893 28.1666 53.9514C27.7412 54.0095 27.3538 53.9063 27.0041 53.644Z" fill="black"/>
<path fill-rule="evenodd" clip-rule="evenodd" d="M33.2911 51.1508L31.9129 53.3802L32.5775 53.6572L33.2911 51.1508ZM31.3843 54.2035L30.5568 55.493L29.6226 55.1033L33.2852 49.5198L34.5196 50.0356L32.8643 56.4576L31.9206 56.0639L32.3216 54.5954L31.3843 54.2035Z" fill="black"/>
<path fill-rule="evenodd" clip-rule="evenodd" d="M37.8398 52.4107C37.9179 52.0561 37.785 51.8448 37.4439 51.7763L36.9036 51.6663L36.477 53.6209L37.017 53.7297C37.1595 53.7589 37.2909 53.7312 37.4132 53.6483C37.5355 53.5634 37.6128 53.4487 37.6449 53.3029L37.8398 52.4107ZM37.6262 50.8302C38.1261 50.9313 38.4606 51.1478 38.6328 51.477C38.7842 51.7649 38.8118 52.1311 38.7154 52.5723L38.521 53.4598C38.4263 53.892 38.1864 54.2253 37.8023 54.4592L37.8829 57.2592L36.9147 57.0641L36.8739 54.6533C36.8488 54.6483 36.8221 54.6426 36.7935 54.6369L36.2772 54.5323L35.7742 56.8324L34.8779 56.6514L36.2143 50.5449L37.6262 50.8302Z" fill="black"/>
<path fill-rule="evenodd" clip-rule="evenodd" d="M40.9723 52.8059L40.8022 55.3369L41.4207 55.292L40.9723 52.8059ZM40.7242 56.2813L40.6026 57.7594L39.7329 57.8221L40.3218 51.3888L41.4707 51.3044L42.7507 57.6015L41.8724 57.6661L41.5955 56.2176L40.7242 56.2813Z" fill="black"/>
<path fill-rule="evenodd" clip-rule="evenodd" d="M44.7969 51.0335L46.3049 55.4182L46.1779 50.9775L47.2189 50.9358L47.4085 57.5435L46.29 57.5884L44.7364 53.4152L44.8571 57.647L43.817 57.6885L43.6274 51.0808L44.7969 51.0335Z" fill="black"/>
<path fill-rule="evenodd" clip-rule="evenodd" d="M49.7693 51.1859L48.8185 51.6022L48.458 50.7252L51.2488 49.5034L51.6099 50.3811L50.663 50.7962L52.6823 55.7042L51.7886 56.0951L49.7693 51.1859Z" fill="black"/>
<path fill-rule="evenodd" clip-rule="evenodd" d="M55.8811 54.4615L52.3657 48.861L54.7673 47.1436L55.3009 47.9927L53.7429 49.1056L54.7012 50.6331L55.8392 49.8201L56.3731 50.6684L55.234 51.4819L56.1924 53.0094L57.7508 51.8956L58.2835 52.7444L55.8811 54.4615Z" fill="black"/>
<path fill-rule="evenodd" clip-rule="evenodd" d="M59.3588 52.0977L55.6582 46.8125L57.8275 45L58.3877 45.801L56.9801 46.9776L57.99 48.4192L59.018 47.5589L59.5791 48.3602L58.5505 49.2192L59.5593 50.6616L60.9669 49.485L61.5282 50.2853L59.3588 52.0977Z" fill="black"/>
<path fill-rule="evenodd" clip-rule="evenodd" d="M62.9935 47.9924L63.4117 47.5793C63.5207 47.471 63.5771 47.3363 63.5797 47.1772C63.5813 47.017 63.5332 46.8795 63.4345 46.7635L61.2122 44.1848C61.1109 44.0669 60.9859 44.0051 60.8363 43.9964C60.6867 43.9887 60.5583 44.0371 60.4512 44.1435L60.0338 44.5566L62.9935 47.9924ZM64.2126 46.1655C64.5041 46.4959 64.6419 46.8844 64.6276 47.331C64.6135 47.7786 64.4497 48.1533 64.1362 48.4542L63.0031 49.5454L58.5806 44.5436L59.7137 43.4523C60.0298 43.1485 60.4011 43.0082 60.8273 43.0303C61.2553 43.0515 61.6128 43.2259 61.9024 43.5535L64.2126 46.1655Z" fill="black"/>
<path d="M20.3936 34.1802V34.8543H17.9361V34.1802H20.3936ZM18.1714 29.9221V34.8543H17.3276V29.9221H18.1714Z" fill="black"/>
<path d="M24.7266 32.2526V32.5236C24.7266 32.8962 24.6784 33.2304 24.582 33.5262C24.4857 33.8221 24.3479 34.0739 24.1685 34.2817C23.9914 34.4894 23.7786 34.6487 23.5298 34.7593C23.281 34.8677 23.0054 34.9219 22.7028 34.9219C22.4024 34.9219 22.1279 34.8677 21.8791 34.7593C21.6326 34.6487 21.4186 34.4894 21.237 34.2817C21.0555 34.0739 20.9143 33.8221 20.8134 33.5262C20.7149 33.2304 20.6655 32.8962 20.6655 32.5236V32.2526C20.6655 31.8799 20.7149 31.5468 20.8134 31.2532C20.912 30.9574 21.051 30.7057 21.2303 30.4978C21.4119 30.2878 21.6259 30.1287 21.8724 30.0202C22.1212 29.9096 22.3958 29.8542 22.696 29.8542C22.9986 29.8542 23.2743 29.9096 23.5231 30.0202C23.7719 30.1287 23.9859 30.2878 24.1652 30.4978C24.3444 30.7057 24.4823 30.9574 24.5787 31.2532C24.6773 31.5468 24.7266 31.8799 24.7266 32.2526ZM23.8828 32.5236V32.2458C23.8828 31.9702 23.8559 31.7275 23.8021 31.5175C23.7505 31.3052 23.6732 31.1279 23.5701 30.9857C23.4693 30.8412 23.3449 30.7327 23.1969 30.6605C23.049 30.5859 22.8821 30.5487 22.696 30.5487C22.51 30.5487 22.3442 30.5859 22.1985 30.6605C22.0529 30.7327 21.9284 30.8412 21.8254 30.9857C21.7245 31.1279 21.6472 31.3052 21.5934 31.5175C21.5396 31.7275 21.5127 31.9702 21.5127 32.2458V32.5236C21.5127 32.7991 21.5396 33.043 21.5934 33.2552C21.6472 33.4676 21.7256 33.6471 21.8287 33.7938C21.934 33.9384 22.0595 34.0479 22.2053 34.1224C22.3509 34.1947 22.5168 34.2308 22.7028 34.2308C22.891 34.2308 23.058 34.1947 23.2037 34.1224C23.3494 34.0479 23.4726 33.9384 23.5735 33.7938C23.6744 33.6471 23.7505 33.4676 23.8021 33.2552C23.8559 33.043 23.8828 32.7991 23.8828 32.5236Z" fill="black"/>
<path d="M26.7975 33.7465L27.7725 29.9221H28.2835L28.2264 30.9079L27.1842 34.8543H26.653L26.7975 33.7465ZM26.068 29.9221L26.8581 33.7161L26.9287 34.8543H26.3639L25.231 29.9221H26.068ZM29.3895 33.706L30.1695 29.9221H31.01L29.877 34.8543H29.3122L29.3895 33.706ZM28.4819 29.9221L29.4467 33.7567L29.5879 34.8543H29.0567L28.0314 30.9079L27.9775 29.9221H28.4819Z" fill="black"/>
<path d="M34.8391 34.1802V34.8543H32.2404V34.1802H34.8391ZM32.4791 29.9221V34.8543H31.6353V29.9221H32.4791ZM34.4995 31.9817V32.6456H32.2404V31.9817H34.4995ZM34.8223 29.9221V30.5996H32.2404V29.9221H34.8223Z" fill="black"/>
<path d="M38.1033 33.5838C38.1033 33.4822 38.0875 33.3919 38.0562 33.3128C38.027 33.2338 37.9744 33.1616 37.8982 33.0961C37.822 33.0306 37.7145 32.9673 37.5755 32.9063C37.4388 32.8431 37.264 32.7787 37.051 32.7132C36.818 32.641 36.6028 32.5608 36.4055 32.4727C36.2105 32.3824 36.0402 32.2786 35.8945 32.1611C35.7489 32.0414 35.6357 31.9048 35.555 31.7512C35.4743 31.5954 35.434 31.4158 35.434 31.2126C35.434 31.0117 35.4755 30.8287 35.5584 30.6638C35.6435 30.499 35.7635 30.3567 35.9181 30.237C36.075 30.1151 36.2599 30.0213 36.4728 29.9558C36.6857 29.8881 36.921 29.8542 37.1788 29.8542C37.5419 29.8542 37.8545 29.922 38.1167 30.0575C38.3812 30.193 38.584 30.3747 38.7252 30.6029C38.8686 30.831 38.9404 31.0827 38.9404 31.3582H38.1033C38.1033 31.1957 38.0685 31.0522 37.999 30.9281C37.9318 30.8016 37.8287 30.7022 37.6898 30.63C37.553 30.5577 37.3794 30.5216 37.1687 30.5216C36.9692 30.5216 36.8034 30.5521 36.6711 30.6131C36.5389 30.674 36.4403 30.7564 36.3753 30.8603C36.3103 30.9642 36.2778 31.0817 36.2778 31.2126C36.2778 31.3052 36.2991 31.3899 36.3417 31.4667C36.3843 31.5412 36.4493 31.6112 36.5366 31.6767C36.624 31.7399 36.7339 31.7997 36.8661 31.8562C36.9984 31.9127 37.1541 31.9669 37.3334 32.0188C37.6046 32.1002 37.841 32.1905 38.0428 32.2898C38.2445 32.3869 38.4125 32.4976 38.547 32.6218C38.6815 32.746 38.7824 32.8872 38.8496 33.0452C38.9168 33.2011 38.9505 33.3783 38.9505 33.5771C38.9505 33.7848 38.909 33.9722 38.826 34.1394C38.7431 34.3042 38.6244 34.4454 38.4697 34.5628C38.3173 34.678 38.1335 34.7672 37.9184 34.8304C37.7055 34.8914 37.4679 34.9219 37.2056 34.9219C36.9704 34.9219 36.7384 34.8902 36.5098 34.8271C36.2834 34.7638 36.0772 34.6678 35.8912 34.5391C35.7052 34.4082 35.5573 34.2455 35.4475 34.0513C35.3376 33.8548 35.2827 33.6257 35.2827 33.3637H36.1265C36.1265 33.524 36.1534 33.6607 36.2072 33.7736C36.2632 33.8865 36.3405 33.9791 36.4392 34.0513C36.5378 34.1213 36.6521 34.1732 36.782 34.2072C36.9143 34.241 37.0555 34.2579 37.2056 34.2579C37.4029 34.2579 37.5676 34.2297 37.6999 34.1732C37.8343 34.1168 37.9352 34.0377 38.0024 33.9362C38.0696 33.8345 38.1033 33.7171 38.1033 33.5838Z" fill="black"/>
<path d="M41.7106 29.9221V34.8543H40.8735V29.9221H41.7106ZM43.247 29.9221V30.5996H39.3506V29.9221H43.247Z" fill="black"/>
<path d="M47.3049 33.0149H46.0308V32.3408H47.3049C47.5268 32.3408 47.7061 32.3046 47.8428 32.2324C47.9795 32.1601 48.0792 32.0607 48.142 31.9343C48.207 31.8055 48.2395 31.6588 48.2395 31.4939C48.2395 31.3381 48.207 31.1925 48.142 31.057C48.0792 30.9192 47.9795 30.8085 47.8428 30.725C47.7061 30.6414 47.5268 30.5996 47.3049 30.5996H46.2896V34.8543H45.4458V29.9221H47.3049C47.6836 29.9221 48.0053 29.9899 48.2697 30.1254C48.5365 30.2586 48.7393 30.4438 48.8782 30.681C49.0171 30.9158 49.0866 31.1845 49.0866 31.4871C49.0866 31.8055 49.0171 32.0788 48.8782 32.3069C48.7393 32.535 48.5365 32.71 48.2697 32.832C48.0053 32.9539 47.6836 33.0149 47.3049 33.0149Z" fill="black"/>
<path d="M49.8428 29.9221H51.5741C51.9462 29.9221 52.2633 29.9785 52.5255 30.0915C52.7877 30.2044 52.9884 30.3715 53.1273 30.5929C53.2684 30.8119 53.3391 31.0829 53.3391 31.4059C53.3391 31.652 53.2943 31.8688 53.2046 32.0562C53.1149 32.2437 52.9884 32.4017 52.8247 32.5305C52.6611 32.657 52.4661 32.7552 52.2398 32.8252L51.9843 32.9505H50.4278L50.421 32.2764H51.5875C51.7893 32.2764 51.9574 32.2403 52.0919 32.168C52.2263 32.0957 52.3272 31.9975 52.3944 31.8733C52.4639 31.7469 52.4986 31.6045 52.4986 31.4465C52.4986 31.2749 52.465 31.1258 52.3978 30.9994C52.3328 30.8706 52.2319 30.7724 52.0952 30.7046C51.9585 30.6346 51.7848 30.5996 51.5741 30.5996H50.6866V34.8543H49.8428V29.9221ZM52.6364 34.8543L51.4867 32.6389L52.3709 32.6355L53.5374 34.8102V34.8543H52.6364Z" fill="black"/>
<path d="M55.0807 29.9221V34.8543H54.2368V29.9221H55.0807Z" fill="black"/>
<path d="M59.0204 33.2485H59.8609C59.834 33.5714 59.7444 33.8593 59.5919 34.1123C59.4395 34.363 59.2255 34.5606 58.9499 34.7051C58.6742 34.8497 58.3391 34.9219 57.9447 34.9219C57.6421 34.9219 57.3698 34.8677 57.1278 34.7593C56.8857 34.6487 56.6784 34.4928 56.5058 34.2918C56.3333 34.0886 56.201 33.8436 56.1091 33.5567C56.0194 33.2699 55.9746 32.9492 55.9746 32.5947V32.1848C55.9746 31.8302 56.0206 31.5096 56.1124 31.2227C56.2066 30.936 56.3411 30.6909 56.5159 30.4877C56.6907 30.2822 56.9003 30.1252 57.1445 30.0168C57.3911 29.9084 57.6679 29.8542 57.9749 29.8542C58.3649 29.8542 58.6944 29.9265 58.9633 30.0711C59.2323 30.2156 59.4407 30.4154 59.5886 30.6707C59.7388 30.9258 59.8306 31.2182 59.8643 31.548H59.0238C59.0014 31.3357 58.9521 31.1539 58.8759 31.0026C58.8019 30.8513 58.6921 30.7361 58.5464 30.6571C58.4008 30.5757 58.2103 30.5352 57.9749 30.5352C57.7822 30.5352 57.6141 30.5712 57.4707 30.6435C57.3272 30.7158 57.2073 30.8219 57.1109 30.9619C57.0146 31.102 56.9417 31.2747 56.8924 31.4802C56.8454 31.6835 56.8219 31.9161 56.8219 32.1781V32.5947C56.8219 32.8431 56.8431 33.0689 56.8857 33.2722C56.9305 33.4732 56.9978 33.6459 57.0874 33.7905C57.1793 33.935 57.2959 34.0468 57.437 34.1258C57.5782 34.2049 57.7474 34.2444 57.9447 34.2444C58.1844 34.2444 58.3784 34.206 58.5263 34.1292C58.6764 34.0524 58.7896 33.9407 58.8658 33.7938C58.9443 33.6448 58.9958 33.463 59.0204 33.2485Z" fill="black"/>
<path d="M63.8313 34.1802V34.8543H61.2326V34.1802H63.8313ZM61.4713 29.9221V34.8543H60.6274V29.9221H61.4713ZM63.4918 31.9817V32.6456H61.2326V31.9817H63.4918ZM63.8144 29.9221V30.5996H61.2326V29.9221H63.8144Z" fill="black"/>
<path d="M67.096 33.5838C67.096 33.4822 67.0803 33.3919 67.0489 33.3128C67.0198 33.2338 66.9671 33.1616 66.8909 33.0961C66.8147 33.0306 66.7071 32.9673 66.5681 32.9063C66.4315 32.8431 66.2566 32.7787 66.0437 32.7132C65.8106 32.641 65.5955 32.5608 65.3982 32.4727C65.2033 32.3824 65.033 32.2786 64.8872 32.1611C64.7416 32.0414 64.6284 31.9048 64.5477 31.7512C64.4671 31.5954 64.4267 31.4158 64.4267 31.2126C64.4267 31.0117 64.4681 30.8287 64.5511 30.6638C64.6362 30.499 64.7561 30.3567 64.9108 30.237C65.0676 30.1151 65.2526 30.0213 65.4655 29.9558C65.6784 29.8881 65.9137 29.8542 66.1715 29.8542C66.5346 29.8542 66.8472 29.922 67.1094 30.0575C67.3739 30.193 67.5767 30.3747 67.7179 30.6029C67.8613 30.831 67.9331 31.0827 67.9331 31.3582H67.096C67.096 31.1957 67.0612 31.0522 66.9917 30.9281C66.9246 30.8016 66.8214 30.7022 66.6825 30.63C66.5457 30.5577 66.3721 30.5216 66.1614 30.5216C65.9619 30.5216 65.7961 30.5521 65.6638 30.6131C65.5316 30.674 65.433 30.7564 65.368 30.8603C65.303 30.9642 65.2705 31.0817 65.2705 31.2126C65.2705 31.3052 65.2918 31.3899 65.3344 31.4667C65.377 31.5412 65.442 31.6112 65.5294 31.6767C65.6168 31.7399 65.7266 31.7997 65.8588 31.8562C65.9911 31.9127 66.1468 31.9669 66.3261 32.0188C66.5973 32.1002 66.8337 32.1905 67.0355 32.2898C67.2371 32.3869 67.4052 32.4976 67.5397 32.6218C67.6742 32.746 67.7751 32.8872 67.8423 33.0452C67.9096 33.2011 67.9431 33.3783 67.9431 33.5771C67.9431 33.7848 67.9017 33.9722 67.8187 34.1394C67.7358 34.3042 67.6171 34.4454 67.4624 34.5628C67.31 34.678 67.1262 34.7672 66.9111 34.8304C66.6981 34.8914 66.4606 34.9219 66.1984 34.9219C65.9631 34.9219 65.7311 34.8902 65.5025 34.8271C65.2761 34.7638 65.0699 34.6678 64.8839 34.5391C64.6979 34.4082 64.55 34.2455 64.4401 34.0513C64.3303 33.8548 64.2754 33.6257 64.2754 33.3637H65.1192C65.1192 33.524 65.1461 33.6607 65.1999 33.7736C65.256 33.8865 65.3332 33.9791 65.4319 34.0513C65.5305 34.1213 65.6448 34.1732 65.7748 34.2072C65.907 34.241 66.0482 34.2579 66.1984 34.2579C66.3956 34.2579 66.5603 34.2297 66.6926 34.1732C66.8271 34.1168 66.9279 34.0377 66.9951 33.9362C67.0624 33.8345 67.096 33.7171 67.096 33.5838Z" fill="black"/>
</g>
<defs>
<clipPath id="clip0_102_503">
<rect width="85" height="61.6667" fill="white" transform="translate(0 0.166748)"/>
</clipPath>
</defs>
</svg>
