<svg width="44" height="44" viewBox="0 0 44 44" fill="none" xmlns="http://www.w3.org/2000/svg">
<path d="M33.8138 32.9999H10.1858C9.6885 32.9996 9.1928 32.943 8.70817 32.8313V34.8333C8.70817 35.1979 8.56331 35.5477 8.30544 35.8055C8.04758 36.0634 7.69785 36.2083 7.33317 36.2083C6.9685 36.2083 6.61876 36.0634 6.3609 35.8055C6.10304 35.5477 5.95817 35.1979 5.95817 34.8333V31.4434C5.23915 30.8319 4.66176 30.0712 4.26605 29.2143C3.87033 28.3573 3.66575 27.4245 3.66651 26.4806V21.9999C3.66651 21.0275 4.05281 20.0948 4.74045 19.4072C5.42808 18.7196 6.36071 18.3333 7.33317 18.3333C8.30563 18.3333 9.23826 18.7196 9.9259 19.4072C10.6135 20.0948 10.9998 21.0275 10.9998 21.9999V24.1999C10.9998 24.5889 11.1544 24.962 11.4294 25.237C11.7045 25.5121 12.0775 25.6666 12.4665 25.6666H31.5332C31.9222 25.6666 32.2952 25.5121 32.5703 25.237C32.8453 24.962 32.9998 24.5889 32.9998 24.1999V21.9999C32.9998 21.0275 33.3862 20.0948 34.0738 19.4072C34.7614 18.7196 35.694 18.3333 36.6665 18.3333C37.639 18.3333 38.5716 18.7196 39.2592 19.4072C39.9469 20.0948 40.3332 21.0275 40.3332 21.9999V26.4806C40.3339 27.4245 40.1294 28.3573 39.7336 29.2143C39.3379 30.0712 38.7605 30.8319 38.0415 31.4434V34.8333C38.0415 35.1979 37.8966 35.5477 37.6388 35.8055C37.3809 36.0634 37.0312 36.2083 36.6665 36.2083C36.3018 36.2083 35.9521 36.0634 35.6942 35.8055C35.4364 35.5477 35.2915 35.1979 35.2915 34.8333V32.8313C34.8069 32.943 34.3112 32.9996 33.8138 32.9999Z" fill="black"/>
<path opacity="0.5" d="M7.34633 16.5001C7.361 15.8987 7.39583 15.4624 7.47466 15.0701C7.75758 13.6474 8.45604 12.3406 9.48171 11.315C10.5074 10.2893 11.8142 9.59083 13.2368 9.30791C13.9445 9.16675 14.7952 9.16675 16.5002 9.16675H27.5002C29.2052 9.16675 30.0558 9.16675 30.7635 9.30791C32.1862 9.59083 33.493 10.2893 34.5186 11.315C35.5443 12.3406 36.2427 13.6474 36.5257 15.0701C36.6045 15.4624 36.6393 15.8987 36.654 16.5001H36.6668V18.3334C35.6944 18.3334 34.7617 18.7197 34.0741 19.4074C33.3865 20.095 33.0002 21.0276 33.0002 22.0001V24.2001C33.0002 24.5891 32.8456 24.9621 32.5706 25.2372C32.2955 25.5122 31.9225 25.6667 31.5335 25.6667H12.4668C12.0778 25.6667 11.7048 25.5122 11.4297 25.2372C11.1547 24.9621 11.0002 24.5891 11.0002 24.2001V22.0001C11.0002 21.0276 10.6139 20.095 9.92622 19.4074C9.23859 18.7197 8.30596 18.3334 7.3335 18.3334V16.5001H7.34633Z" fill="black"/>
</svg>
