<svg width="334" height="230" viewBox="0 0 334 230" fill="none" xmlns="http://www.w3.org/2000/svg">
<path fill-rule="evenodd" clip-rule="evenodd" d="M223.321 219.907H217.673C219.556 219.902 221.438 219.902 223.321 219.907Z" fill="#CBB9B4"/>
<path fill-rule="evenodd" clip-rule="evenodd" d="M169.933 78.5715C169.933 86.5217 163.5 92.9666 155.566 92.9666C147.632 92.9666 141.2 86.5217 141.2 78.5715C141.2 70.6214 147.633 64.1758 155.566 64.1758C163.5 64.1758 169.933 70.6207 169.933 78.5715Z" fill="#9DB5EC"/>
<path fill-rule="evenodd" clip-rule="evenodd" d="M155.565 65.7556C148.512 65.7556 142.775 71.5049 142.775 78.5716C142.775 85.6382 148.512 91.3882 155.565 91.3882C162.618 91.3882 168.356 85.6389 168.356 78.5716C168.356 71.5043 162.617 65.7556 155.565 65.7556ZM155.565 94.5457C146.775 94.5457 139.624 87.3804 139.624 78.5716C139.624 69.7628 146.775 62.5974 155.565 62.5974C164.355 62.5974 171.507 69.7634 171.507 78.5716C171.507 87.3797 164.356 94.5457 155.565 94.5457Z" fill="#FAC73D"/>
<path fill-rule="evenodd" clip-rule="evenodd" d="M156.284 78.5679C156.284 78.9705 155.963 79.2972 155.567 79.2972C155.472 79.2965 155.378 79.277 155.291 79.24C155.203 79.2029 155.124 79.149 155.057 79.0813C154.99 79.0135 154.938 78.9333 154.902 78.8453C154.866 78.7572 154.848 78.6629 154.849 78.5679C154.849 78.166 155.17 77.8398 155.567 77.8398C155.964 77.8398 156.284 78.166 156.284 78.5679Z" fill="white"/>
<path fill-rule="evenodd" clip-rule="evenodd" d="M155.738 79.0656L148.415 72.713L148.759 72.3156L155.395 78.0713L157.47 67.2439L157.985 67.3433L155.738 79.0656ZM155.435 68.1924H155.698V66.756H155.435V68.1924ZM143.776 78.6975H145.209V78.4344H143.776V78.6975ZM155.435 90.386H155.698V88.949H155.435V90.386ZM165.922 78.6975H167.357V78.4344H165.922V78.6975ZM155.565 66.0343C148.666 66.0343 143.055 71.6576 143.055 78.5701C143.055 85.4826 148.666 91.1058 155.565 91.1058C162.463 91.1058 168.075 85.4826 168.075 78.5701C168.075 71.6576 162.463 66.0343 155.565 66.0343ZM155.565 91.3689C148.522 91.3689 142.792 85.6278 142.792 78.5701C142.792 71.5123 148.522 65.7712 155.565 65.7712C162.608 65.7712 168.338 71.513 168.338 78.5701C168.338 85.6272 162.607 91.3689 155.565 91.3689Z" fill="white"/>
<path fill-rule="evenodd" clip-rule="evenodd" d="M21.634 222.975L20.3021 222.978L20.0696 116.519V116.211L19.9932 81.4787L21.3251 81.4749L21.634 222.975ZM42.2288 224.478L40.9249 224.795L21.7423 115.932L29.2778 82.1768L30.5657 82.5743L23.1093 115.975L42.2288 224.478Z" fill="#8E5235"/>
<path fill-rule="evenodd" clip-rule="evenodd" d="M20.0973 116.345L20.068 116.515V116.516L20.0668 116.526L1.30453 224.791L0 224.477L18.7317 116.391L11.2752 82.9888L12.5638 82.5913L20.068 116.209V116.211L20.0973 116.345Z" fill="#8E5235"/>
<path fill-rule="evenodd" clip-rule="evenodd" d="M0.654297 91.1009H40.9732V67.9263H0.654297V91.1009Z" fill="#FDB0BF"/>
<path fill-rule="evenodd" clip-rule="evenodd" d="M10.2822 91.1009H31.6548V67.9263H10.2822V91.1009ZM17.461 118.757H24.3824V114.221H17.461V118.757Z" fill="#EB5976"/>
<path fill-rule="evenodd" clip-rule="evenodd" d="M15.7807 96.9896H14.4036L13.0869 91.0969H14.4647L15.7807 96.9896ZM21.36 96.9896H20.0268L20.0134 91.0969H21.346L21.3587 96.9896H21.36ZM27.3482 96.9896H25.9724L27.2871 91.0969H28.6649L27.3489 96.9896H27.3482Z" fill="#4A2817"/>
<path fill-rule="evenodd" clip-rule="evenodd" d="M254.655 160.128L254.036 138.204H61.5181L59.0454 160.602L44.4395 160.686V204.204H269.322V159.042L254.655 160.128Z" fill="#6485CD"/>
<path fill-rule="evenodd" clip-rule="evenodd" d="M59.35 133.314H151.568C154.626 133.314 157.235 135.277 157.195 138.207L156.872 163.488L157.195 199.796H62.6483C60.0672 199.796 57.8595 197.686 57.7308 195.106L55.0306 140.722L54.9593 139.248L54.8937 138.004C54.8554 137.26 55.0007 136.518 55.3166 135.844C55.6787 135.082 56.2504 134.44 56.9649 133.992C57.6793 133.544 58.5067 133.308 59.35 133.314Z" fill="#F87690"/>
<path fill-rule="evenodd" clip-rule="evenodd" d="M279.35 162.115C278.943 170.142 277.505 186.203 277.093 191.766C276.68 197.325 274.834 210.915 255.925 210.915H57.7678C38.8636 210.915 37.0125 197.325 36.601 191.766L34.3416 162.115C33.9295 154.083 38.4514 154.909 42.7657 155.111C43.7498 155.157 44.9671 155.37 46.2653 155.666C50.6502 156.655 55.9168 158.632 55.9168 158.632L56.7455 175.322C52.5478 177.457 49.54 182.317 48.7488 183.701H48.7437C48.6081 183.94 48.538 184.077 48.538 184.077C48.538 195.888 49.9852 198.239 57.7767 198.212L156.846 198.123L255.916 198.212C263.707 198.239 265.159 195.888 265.159 184.077C265.159 184.077 261.87 177.824 256.953 175.322L257.776 158.632C257.776 158.632 266.611 155.318 270.927 155.111C275.242 154.909 279.763 154.083 279.35 162.115Z" fill="#F87690"/>
<path fill-rule="evenodd" clip-rule="evenodd" d="M255.135 133.314H162.919C159.86 133.314 157.252 135.277 157.291 138.207L157.495 168.908L157.291 199.796H251.838C254.419 199.796 256.627 197.686 256.755 195.106L259.455 140.722L259.526 139.248L259.592 138.004C259.631 137.26 259.485 136.518 259.169 135.844C258.807 135.082 258.235 134.44 257.521 133.992C256.806 133.544 255.979 133.308 255.135 133.314Z" fill="#F87690"/>
<path fill-rule="evenodd" clip-rule="evenodd" d="M56.7458 175.325C52.5481 177.459 49.5403 182.32 48.7498 183.703H48.7441L46.2656 155.668C50.6512 156.657 55.9171 158.634 55.9171 158.634L56.7458 175.325ZM256.947 175.325C261.146 177.459 264.153 182.32 264.944 183.703H264.95L267.428 155.668C263.043 156.657 257.777 158.634 257.777 158.634L256.947 175.325Z" fill="#FEF598"/>
<path fill-rule="evenodd" clip-rule="evenodd" d="M108.011 168.908C106.01 168.908 104.008 168.896 102.016 168.875L101.597 165.896L101.369 164.218C101.189 162.888 101.022 161.557 100.868 160.223L100.73 158.64C100.729 158.608 100.729 158.577 100.73 158.545C100.761 157.33 101.914 153.291 100.095 153.291C99.9393 153.291 99.7628 153.32 99.5609 153.383C99.4129 153.428 99.2628 153.465 99.1112 153.495C96.4314 154.063 87.3851 154.669 82.3198 154.967L80.8962 155.048C80.891 154.968 80.8876 154.887 80.886 154.807L80.8847 154.747C81.3118 154.67 81.7085 154.474 82.0287 154.181C82.3489 153.889 82.5795 153.511 82.6937 153.092C82.7154 153.018 82.7287 152.943 82.7415 152.865L82.7708 152.866C84.0428 152.866 85.069 152.693 85.069 152.483C85.069 152.272 84.0428 152.105 82.7708 152.105L82.7421 152.106C82.7309 152.028 82.7147 151.951 82.6937 151.876C82.6025 151.543 82.4376 151.235 82.2112 150.975C81.9849 150.714 81.7028 150.508 81.386 150.372C81.414 149.26 81.2439 148.308 80.5891 147.993C80.5528 147.921 80.5133 147.882 80.4726 147.882C80.4484 147.882 80.4242 147.897 80.4012 147.923C80.2909 147.895 80.1774 147.881 80.0636 147.882C79.8623 147.882 79.633 147.92 79.3731 148.002C79.1813 148.059 78.9871 148.108 78.7909 148.147C75.671 148.807 65.8826 149.509 59.1739 149.924C59.6007 146.412 60.3682 143.302 61.3574 141.749C64.32 137.098 102.774 138.884 110.119 137.778C114.053 137.186 125.545 136.061 135.811 136.061C144.712 136.061 152.689 136.906 154.027 139.673C156.907 145.633 155.34 153.365 152.648 162.783C151.3 167.494 129.802 168.908 108.011 168.908ZM134.009 152.86C134.022 152.936 134.035 153.013 134.057 153.083C134.163 153.47 134.369 153.823 134.652 154.107C134.936 154.391 135.288 154.597 135.674 154.704C135.746 154.725 135.822 154.739 135.899 154.752V154.785C135.899 156.059 136.066 157.087 136.275 157.087C136.484 157.087 136.652 156.059 136.652 154.785V154.752C137.086 154.68 137.49 154.486 137.816 154.192C138.143 153.898 138.378 153.516 138.494 153.092C138.515 153.018 138.531 152.942 138.542 152.865L138.573 152.866C139.846 152.866 140.871 152.693 140.871 152.483C140.871 152.272 139.846 152.105 138.573 152.105L138.542 152.106C138.529 152.028 138.517 151.949 138.494 151.877C138.379 151.453 138.143 151.071 137.817 150.777C137.49 150.483 137.086 150.289 136.652 150.218V150.184C136.652 148.911 136.483 147.882 136.275 147.882C136.067 147.882 135.899 148.911 135.899 150.184V150.218C135.466 150.289 135.061 150.483 134.735 150.777C134.408 151.071 134.173 151.453 134.057 151.877C134.036 151.952 134.02 152.028 134.008 152.106L133.976 152.105C132.711 152.105 131.684 152.273 131.684 152.483C131.684 152.692 132.711 152.86 133.976 152.86H134.009ZM106.319 152.855C106.329 152.914 106.338 152.973 106.356 153.03C106.452 153.382 106.638 153.703 106.896 153.961C107.154 154.22 107.474 154.407 107.826 154.504C107.882 154.52 107.941 154.53 108 154.541C107.998 154.623 107.997 154.704 107.997 154.785C107.997 156.059 108.165 157.087 108.374 157.087C108.584 157.087 108.751 156.059 108.751 154.785L108.749 154.541C108.807 154.53 108.867 154.52 108.922 154.504C109.274 154.409 109.595 154.224 109.854 153.967C110.112 153.709 110.298 153.389 110.395 153.037C110.411 152.98 110.42 152.919 110.432 152.86L110.672 152.866C111.944 152.866 112.971 152.693 112.971 152.483C112.971 152.272 111.944 152.105 110.672 152.105C110.59 152.105 110.512 152.108 110.432 152.109C110.421 152.05 110.411 151.989 110.395 151.931C110.298 151.58 110.112 151.259 109.853 151.002C109.595 150.745 109.274 150.56 108.922 150.465C108.865 150.448 108.805 150.44 108.747 150.428L108.751 150.184C108.751 148.911 108.583 147.882 108.374 147.882C108.165 147.882 107.997 148.911 107.997 150.184C107.997 150.268 108.001 150.346 108.002 150.428C107.943 150.44 107.883 150.448 107.826 150.465C107.474 150.56 107.153 150.745 106.895 151.002C106.637 151.259 106.451 151.58 106.356 151.931C106.338 151.989 106.329 152.05 106.317 152.109L106.077 152.105C104.809 152.105 103.782 152.273 103.782 152.483C103.782 152.692 104.809 152.86 106.077 152.86C106.161 152.86 106.238 152.858 106.319 152.855ZM59.0631 198.214L59.0586 198.208L151.931 197.68C155.053 197.68 156.846 196.563 156.846 193.324V180.542L156.955 180.543L157.166 198.127H156.846L59.0631 198.214Z" fill="#FAC73D"/>
<path fill-rule="evenodd" clip-rule="evenodd" d="M182.088 199.978C172.1 199.978 164.522 199.916 162.248 199.826C161.937 199.813 161.625 199.803 161.313 199.796H213.147L182.088 199.978ZM157.293 199.715L100.512 199.409L61.5195 199.659C61.3994 199.661 61.2792 199.662 61.159 199.662C58.5608 199.662 56.5008 199.06 54.8701 198.066C55.6886 198.171 56.6091 198.214 57.6429 198.214H57.7773L59.0634 198.212L156.846 198.125H157.311L157.293 199.715ZM255.182 198.45C255.264 198.374 255.343 198.295 255.42 198.213L255.917 198.214H256.052C256.56 198.214 257.04 198.204 257.495 198.181C256.863 198.276 256.087 198.364 255.182 198.45Z" fill="#FAC73D"/>
<path fill-rule="evenodd" clip-rule="evenodd" d="M213.147 199.797H161.312L157.292 199.716L157.311 198.126L157.454 180.544L157.637 180.545V193.323C157.637 196.562 159.431 197.679 162.552 197.679L255.933 197.567C255.717 197.889 255.465 198.185 255.182 198.45C247.513 199.175 230.557 199.586 213.147 199.797Z" fill="#FAC73D"/>
<path fill-rule="evenodd" clip-rule="evenodd" d="M156.845 178.258V193.324C156.845 196.562 155.051 197.68 151.93 197.68L57.7765 198.216C51.4233 198.216 48.5371 193.217 48.5371 187.967V182.054C48.5371 181.353 48.7148 180.667 49.0384 180.004C51.4984 174.954 62.4092 171.118 67.7223 171.118H143.47C151.565 171.118 156.845 174.255 156.845 178.258Z" fill="#F87690"/>
<path fill-rule="evenodd" clip-rule="evenodd" d="M156.848 180.004H49.041C49.9659 178.106 52.0845 176.38 54.6509 174.963C54.9229 176.222 55.2458 177.126 55.6427 177.461C56.0631 177.816 57.5128 177.97 59.5474 177.97C65.3375 177.97 75.8502 176.724 80.7677 175.327C80.9059 175.715 81.0588 175.996 81.2301 176.141C81.555 176.415 82.6748 176.533 84.2469 176.533C90.2211 176.533 102.707 174.816 102.702 173.397C102.703 173.383 102.701 173.369 102.698 173.355C102.629 172.954 102.565 172.552 102.504 172.149C102.487 172.046 102.471 171.943 102.456 171.839L102.423 171.623L102.347 171.118H143.473C151.568 171.118 156.848 174.255 156.848 178.258V180.004Z" fill="#FAC73D"/>
<path fill-rule="evenodd" clip-rule="evenodd" d="M170.844 171.119L171.163 171.117H209.011V171.118H171.014L170.844 171.119Z" fill="#FBBB57"/>
<path fill-rule="evenodd" clip-rule="evenodd" d="M67.3218 210.923L59.7252 228.741H56.7422L61.1959 210.923H67.3218ZM246.953 210.923L254.548 228.741H257.531L253.078 210.923H246.953Z" fill="#0A231D"/>
<path fill-rule="evenodd" clip-rule="evenodd" d="M136.275 157.085C136.066 157.085 135.899 156.057 135.899 154.783V154.749C135.824 154.738 135.749 154.722 135.675 154.702C135.288 154.594 134.936 154.388 134.652 154.104C134.369 153.82 134.164 153.468 134.057 153.081C134.036 153.008 134.02 152.933 134.01 152.858H133.976C132.711 152.858 131.684 152.69 131.684 152.48C131.684 152.27 132.711 152.102 133.976 152.102L134.008 152.103C134.02 152.026 134.036 151.949 134.057 151.874C134.173 151.45 134.408 151.069 134.735 150.775C135.062 150.481 135.466 150.287 135.899 150.216V150.182C135.899 148.909 136.066 147.879 136.275 147.879C136.484 147.879 136.652 148.909 136.652 150.182V150.216C137.086 150.287 137.49 150.481 137.817 150.775C138.143 151.069 138.379 151.45 138.495 151.874C138.517 151.948 138.53 152.026 138.542 152.103L138.573 152.102C139.846 152.102 140.871 152.27 140.871 152.48C140.871 152.69 139.846 152.864 138.573 152.864L138.542 152.862C138.531 152.939 138.515 153.015 138.495 153.09C138.378 153.514 138.143 153.895 137.817 154.189C137.49 154.483 137.086 154.678 136.652 154.749V154.783C136.652 156.057 136.484 157.085 136.275 157.085ZM108.373 157.085C108.163 157.085 107.996 156.057 107.996 154.783L107.998 154.539L107.824 154.502C107.472 154.404 107.152 154.217 106.894 153.959C106.636 153.7 106.45 153.379 106.354 153.027C106.337 152.971 106.327 152.912 106.317 152.853L106.075 152.858C104.808 152.858 103.78 152.69 103.78 152.48C103.78 152.27 104.808 152.102 106.075 152.102L106.316 152.107L106.354 151.929C106.449 151.578 106.635 151.257 106.893 151C107.151 150.743 107.472 150.557 107.824 150.463C107.882 150.446 107.942 150.437 108 150.426L107.996 150.182C107.996 148.909 108.163 147.879 108.373 147.879C108.583 147.879 108.75 148.909 108.75 150.182L108.745 150.426L108.92 150.463C109.272 150.558 109.593 150.743 109.852 151C110.11 151.257 110.297 151.577 110.393 151.929C110.409 151.986 110.42 152.048 110.43 152.107L110.671 152.102C111.943 152.102 112.969 152.27 112.969 152.48C112.969 152.69 111.943 152.864 110.671 152.864C110.588 152.864 110.511 152.859 110.43 152.858L110.393 153.034C110.297 153.386 110.11 153.707 109.852 153.964C109.594 154.221 109.272 154.407 108.92 154.502C108.865 154.518 108.805 154.527 108.748 154.539L108.75 154.783C108.75 156.057 108.581 157.085 108.373 157.085ZM80.8848 154.745L80.8861 154.68C80.9071 153.837 81.346 151.945 81.3861 150.369C81.703 150.506 81.9851 150.712 82.2115 150.972C82.4379 151.233 82.6027 151.541 82.6939 151.874C82.7162 151.948 82.7289 152.026 82.7423 152.104L82.7709 152.102C84.043 152.102 85.0691 152.271 85.0691 152.48C85.0691 152.689 84.043 152.864 82.7709 152.864L82.7416 152.862L82.6939 153.09C82.5794 153.508 82.3488 153.886 82.0286 154.179C81.7085 154.472 81.3119 154.668 80.8848 154.745ZM80.5893 147.99C80.5291 147.961 80.4661 147.938 80.4014 147.921C80.4243 147.894 80.4485 147.879 80.4727 147.879C80.5135 147.879 80.553 147.919 80.5893 147.99Z" fill="#FEF598"/>
<path fill-rule="evenodd" clip-rule="evenodd" d="M206.471 168.908C184.681 168.908 163.182 167.494 161.836 162.783C159.142 153.365 157.576 145.633 160.457 139.673C161.794 136.906 169.772 136.061 178.671 136.061C188.937 136.061 200.43 137.186 204.364 137.778C211.708 138.884 250.163 137.098 253.125 141.749C254.19 143.421 254.998 146.898 255.4 150.737L254.597 150.739C250.085 150.739 244.193 150.568 240.302 150.43L239.224 150.391C239.466 148.603 241.639 142.99 238.842 142.99C238.668 142.99 238.475 143.012 238.261 143.057C238.089 143.094 237.873 143.126 237.616 143.155C236.288 143.309 233.885 143.367 231.014 143.367C225.615 143.367 218.565 143.161 213.909 142.997L209.037 142.799C208.984 142.796 208.932 142.794 208.879 142.794C207.79 142.794 207.383 143.559 207.383 144.781C207.383 145.877 207.71 147.34 208.168 148.951C208.267 149.302 208.341 149.797 208.394 150.411C208.436 150.888 208.467 151.435 208.488 152.04L208.49 152.106L208.407 152.105C208.323 152.105 208.247 152.108 208.165 152.109C208.154 152.05 208.145 151.989 208.128 151.931C208.032 151.58 207.845 151.26 207.587 151.002C207.329 150.745 207.009 150.56 206.657 150.465C206.6 150.448 206.54 150.44 206.481 150.428L206.486 150.184C206.486 148.911 206.317 147.882 206.109 147.882C205.901 147.882 205.732 148.911 205.732 150.184C205.732 150.268 205.735 150.346 205.736 150.428C205.678 150.44 205.617 150.448 205.561 150.465C205.209 150.56 204.888 150.745 204.63 151.002C204.371 151.259 204.185 151.579 204.089 151.931C204.071 151.989 204.062 152.05 204.052 152.109L203.811 152.105C202.539 152.105 201.513 152.273 201.513 152.483C201.513 152.692 202.539 152.866 203.811 152.866C203.893 152.866 203.971 152.862 204.052 152.86C204.062 152.919 204.071 152.98 204.089 153.037C204.185 153.389 204.371 153.709 204.629 153.967C204.888 154.224 205.209 154.41 205.561 154.504C205.617 154.52 205.675 154.53 205.734 154.541L205.732 154.785C205.732 156.059 205.899 157.087 206.109 157.087C206.319 157.087 206.486 156.059 206.486 154.785L206.484 154.541C206.542 154.53 206.601 154.52 206.657 154.504C207.009 154.407 207.329 154.219 207.587 153.961C207.844 153.702 208.031 153.382 208.128 153.03C208.145 152.973 208.153 152.914 208.165 152.855L208.407 152.86H208.509L208.53 155.178C208.528 156.185 208.523 157.191 208.514 158.198L208.5 159.903C208.494 160.677 208.491 161.451 208.491 162.225L208.539 166.052L208.607 167.698L208.694 168.903L206.471 168.908ZM175.942 152.865C175.954 152.943 175.967 153.018 175.988 153.092C176.093 153.479 176.298 153.831 176.582 154.113C176.866 154.396 177.219 154.6 177.606 154.704C177.678 154.725 177.754 154.739 177.83 154.752V154.785C177.83 156.059 177.999 157.087 178.207 157.087C178.416 157.087 178.584 156.059 178.584 154.785V154.752C178.66 154.739 178.736 154.725 178.809 154.704C179.195 154.597 179.548 154.391 179.831 154.107C180.115 153.823 180.32 153.47 180.427 153.083C180.448 153.013 180.46 152.936 180.474 152.86H180.506C181.772 152.86 182.798 152.693 182.798 152.483C182.798 152.272 181.772 152.105 180.506 152.105L180.475 152.106C180.461 152.028 180.448 151.951 180.427 151.877C180.31 151.453 180.075 151.071 179.748 150.777C179.422 150.483 179.018 150.289 178.584 150.218V150.184C178.584 148.911 178.416 147.882 178.207 147.882C177.999 147.882 177.83 148.911 177.83 150.184L177.831 150.218C177.397 150.289 176.993 150.483 176.666 150.777C176.339 151.071 176.104 151.453 175.988 151.877C175.966 151.949 175.954 152.028 175.94 152.106L175.909 152.105C174.637 152.105 173.611 152.273 173.611 152.483C173.611 152.692 174.637 152.866 175.909 152.866L175.942 152.865Z" fill="#FAC73D"/>
<path fill-rule="evenodd" clip-rule="evenodd" d="M157.637 178.258V193.324C157.637 196.563 159.431 197.68 162.552 197.68L256.944 197.567C263.296 197.567 265.945 193.217 265.945 187.967V182.054C265.945 181.353 265.768 180.667 265.444 180.004C262.984 174.954 252.073 171.118 246.76 171.118H171.013C162.918 171.118 157.637 174.255 157.637 178.258Z" fill="#F87690"/>
<path fill-rule="evenodd" clip-rule="evenodd" d="M265.444 180.004H157.637V178.258C157.637 174.255 162.918 171.118 171.013 171.118H209.01C209.16 171.774 209.352 172.253 209.595 172.501C210.431 173.355 215.802 173.758 221.804 173.758C226.883 173.758 232.414 173.469 236.034 172.918C236.173 173.99 236.383 174.767 236.697 175.087C237.395 175.8 241.883 176.137 246.9 176.137C251.88 176.137 257.381 175.804 260.211 175.176C262.607 176.551 264.565 178.199 265.444 180.004Z" fill="#FAC73D"/>
<path fill-rule="evenodd" clip-rule="evenodd" d="M178.209 157.085C178 157.085 177.832 156.057 177.832 154.783V154.749C177.756 154.737 177.681 154.722 177.607 154.702C177.221 154.597 176.868 154.394 176.584 154.111C176.3 153.828 176.095 153.476 175.989 153.09C175.968 153.016 175.956 152.94 175.943 152.862L175.911 152.864C174.639 152.864 173.613 152.69 173.613 152.48C173.613 152.27 174.639 152.102 175.911 152.102L175.942 152.103L175.989 151.874C176.106 151.45 176.341 151.069 176.668 150.775C176.995 150.481 177.399 150.287 177.833 150.216L177.832 150.182C177.832 148.909 178 147.879 178.209 147.879C178.418 147.879 178.586 148.909 178.586 150.182V150.216C179.019 150.287 179.424 150.481 179.75 150.775C180.077 151.069 180.312 151.45 180.428 151.874C180.45 151.948 180.463 152.026 180.477 152.103L180.508 152.102C181.774 152.102 182.8 152.27 182.8 152.48C182.8 152.69 181.774 152.858 180.508 152.858H180.476L180.428 153.081C180.322 153.468 180.116 153.82 179.833 154.104C179.549 154.388 179.197 154.594 178.811 154.702C178.736 154.722 178.661 154.737 178.586 154.749V154.783C178.586 156.057 178.418 157.085 178.209 157.085ZM206.11 157.085C205.9 157.085 205.733 156.057 205.733 154.783L205.735 154.539L205.562 154.502C205.21 154.407 204.889 154.222 204.631 153.964C204.372 153.707 204.186 153.386 204.09 153.034C204.073 152.978 204.064 152.916 204.053 152.858L203.812 152.864C202.54 152.864 201.514 152.69 201.514 152.48C201.514 152.27 202.54 152.102 203.812 152.102L204.053 152.107L204.09 151.929C204.186 151.577 204.372 151.257 204.631 151C204.889 150.742 205.21 150.557 205.562 150.463C205.618 150.446 205.679 150.437 205.738 150.426L205.733 150.182C205.733 148.909 205.9 147.879 206.11 147.879C206.32 147.879 206.487 148.909 206.487 150.182L206.482 150.426L206.657 150.463C207.009 150.558 207.33 150.743 207.588 151C207.846 151.257 208.033 151.578 208.129 151.929C208.146 151.986 208.156 152.048 208.166 152.107L208.408 152.102L208.491 152.103L208.51 152.858H208.408C208.324 152.858 208.247 152.855 208.166 152.853L208.129 153.027C208.032 153.379 207.845 153.7 207.588 153.959C207.33 154.217 207.009 154.404 206.657 154.502C206.602 154.518 206.542 154.527 206.485 154.539L206.487 154.783C206.487 156.057 206.319 157.085 206.11 157.085Z" fill="#FEF598"/>
<path fill-rule="evenodd" clip-rule="evenodd" d="M55.6404 177.456C55.0722 176.976 54.6556 175.331 54.3238 173.143L54.118 171.64L53.553 166.009L53.4193 164.445L52.8651 158.804C52.8026 158.307 52.7272 157.812 52.639 157.319C52.5371 156.763 52.4269 156.314 52.3052 156.001C51.0962 152.887 50.507 150.354 52.5727 150.289L57.0539 150.049C63.6116 149.664 75.3224 148.878 78.7908 148.145C79.0239 148.097 79.2182 148.047 79.373 147.999C82.6834 146.961 80.9291 152.974 80.8858 154.68C80.8845 154.721 80.8845 154.763 80.8858 154.805C80.8935 155.175 80.9597 155.898 81.0648 156.854L81.7133 162.025L82.0082 164.197L82.7585 169.479C82.8761 170.282 82.9958 171.085 83.1178 171.888L83.1796 172.288L83.4318 173.85C83.8484 176.18 57.6743 179.174 55.6404 177.456Z" fill="#AFC5F8"/>
<path fill-rule="evenodd" clip-rule="evenodd" d="M81.2287 176.144C80.7899 175.773 80.4682 174.504 80.2115 172.812C80.1538 172.426 80.1009 172.039 80.0529 171.652L79.6165 167.302C79.5825 166.899 79.5479 166.496 79.5127 166.094L79.0847 161.737C79.0364 161.353 78.9782 160.97 78.9101 160.589C78.8318 160.159 78.7464 159.812 78.6528 159.57C77.7183 157.166 77.2629 155.208 78.8592 155.158C80.0134 155.105 81.1672 155.044 82.3205 154.973C87.3864 154.675 96.4322 154.069 99.1119 153.501C99.2635 153.471 99.4136 153.434 99.5616 153.39C102.119 152.586 100.764 157.232 100.731 158.55C100.73 158.582 100.73 158.614 100.731 158.646C100.737 158.933 100.787 159.491 100.869 160.229L101.369 164.224L101.598 165.902L102.178 169.982L102.422 171.626L102.455 171.843L102.503 172.153L102.697 173.358C103.02 175.158 82.8002 177.471 81.2287 176.144ZM209.596 172.5C209.03 171.923 208.746 170.101 208.609 167.699C208.579 167.15 208.556 166.602 208.54 166.053C208.484 164.148 208.488 162.014 208.502 159.903L208.516 158.198L208.49 152.041C208.472 151.497 208.441 150.953 208.396 150.411C208.343 149.798 208.269 149.302 208.17 148.951C207.178 145.459 206.798 142.658 209.039 142.8C209.409 142.823 211.277 142.904 213.911 142.997C221.043 143.249 233.792 143.596 237.618 143.156C237.875 143.127 238.091 143.094 238.263 143.057C241.949 142.272 239.441 148.598 239.221 150.439C239.214 150.483 239.21 150.528 239.208 150.573C239.178 150.976 239.175 151.764 239.193 152.809L239.368 158.47L239.467 160.849C239.585 163.558 239.719 166.266 239.867 168.973L239.885 169.282L239.911 169.721L240.025 171.435C240.239 173.999 211.621 174.565 209.596 172.5Z" fill="#EB5976"/>
<path fill-rule="evenodd" clip-rule="evenodd" d="M194.768 94.6506V54.9126H241.787L241.788 94.6506H194.768Z" fill="#FFF7E6"/>
<path fill-rule="evenodd" clip-rule="evenodd" d="M195.519 55.6683V93.8998H241.035L241.034 55.6683H195.519ZM194.016 95.4063V54.1619H242.538V95.4063H194.016Z" fill="#D37A48"/>
<path fill-rule="evenodd" clip-rule="evenodd" d="M212.792 93.899V81.5703H240.996V93.8984L212.792 93.899Z" fill="#F47B5B"/>
<path fill-rule="evenodd" clip-rule="evenodd" d="M200.002 71.4276V55.6643H235.246V71.4276H200.002Z" fill="#3EA392"/>
<path fill-rule="evenodd" clip-rule="evenodd" d="M211.385 79.4625H222.084V73.3125H211.385V79.4625Z" fill="#FCB04C"/>
<path fill-rule="evenodd" clip-rule="evenodd" d="M195.521 93.8996H206.432V77.4648H195.521V93.8996Z" fill="#7CC1B4"/>
<path fill-rule="evenodd" clip-rule="evenodd" d="M205.058 66.2044V86.647H229.962L229.962 66.2044H205.058ZM204.156 87.5509V65.3005H230.864V87.5509H204.156Z" fill="#FCB04C"/>
<path fill-rule="evenodd" clip-rule="evenodd" d="M206.432 93.8958H212.793V87.5528H206.432V93.8958ZM240.996 87.219V81.5671H240.885L241.037 81.4448V87.1706C241.024 87.1869 241.01 87.203 240.996 87.219ZM206.432 86.6483V77.4611H205.059V71.4276H229.964V81.5671H212.793V86.6483H206.432ZM211.385 79.4587H222.085V73.3093H211.385V79.4587ZM239.258 81.5671H230.866V71.4276H235.249V55.6643H241.037L241.037 79.8014C240.426 80.3713 239.833 80.9601 239.258 81.5671ZM204.158 77.4611H195.521V55.6643H215.386H200.005V71.4276H204.158V77.4611Z" fill="#FFF9EC"/>
<path fill-rule="evenodd" clip-rule="evenodd" d="M212.792 93.899V87.5554H230.866V81.5703H239.258C238.443 82.4309 237.667 83.3286 236.934 84.2603L235.804 85.8241L238.941 83.1863L240.884 81.5703H240.996V87.2216C239.873 88.5505 238.816 89.9335 237.828 91.3658C237.254 92.1954 236.702 93.0401 236.173 93.899H212.792ZM212.792 86.6515H229.964V81.5703H212.792V86.6515Z" fill="#F79C84"/>
<path fill-rule="evenodd" clip-rule="evenodd" d="M200.002 71.4276V55.6643H235.246V71.4276H230.864V65.3018H204.155V71.4276H200.002ZM205.057 71.4276V66.2057H229.961L229.962 71.4276H205.057Z" fill="#6EBAAD"/>
<path fill-rule="evenodd" clip-rule="evenodd" d="M211.385 79.4625H222.084V73.3125H211.385V79.4625Z" fill="#FDC479"/>
<path fill-rule="evenodd" clip-rule="evenodd" d="M230.864 87.5509H204.156V65.3005H230.864V87.5509ZM205.058 77.4592V86.647H229.962V71.4257L229.962 66.2044H205.058V77.4592Z" fill="#FDC479"/>
<path fill-rule="evenodd" clip-rule="evenodd" d="M240.928 93.8991H240.995V89.7338L241.036 89.688V93.8991H240.928Z" fill="#FFF9EC"/>
<path fill-rule="evenodd" clip-rule="evenodd" d="M237.542 93.8932C238.272 92.9637 239.017 92.0463 239.777 91.1415L240.996 89.728V93.8932H237.542Z" fill="#F79C84"/>
<path fill-rule="evenodd" clip-rule="evenodd" d="M62.9804 87.7903H124.488V93.504H62.9619L62.9804 87.7903Z" fill="#D37A48"/>
<path fill-rule="evenodd" clip-rule="evenodd" d="M75.1627 72.7356C75.1256 72.7354 75.089 72.7265 75.056 72.7095C75.0229 72.6925 74.9944 72.668 74.9727 72.6379C74.9509 72.6077 74.9366 72.5729 74.9309 72.5362C74.9252 72.4995 74.9282 72.462 74.9398 72.4267C74.9468 72.4038 75.6742 70.1157 74.5417 67.4984C73.8072 65.8008 71.4485 64.0778 69.3668 62.5573C67.9241 61.5038 66.5622 60.5082 65.7781 59.5782C64.0391 57.5124 64.6838 54.1046 64.8959 52.9848C64.9136 52.8984 64.9287 52.8116 64.9411 52.7243C64.9494 52.5975 65.0653 52.502 65.1832 52.4988C65.3106 52.5032 65.4112 52.602 65.4112 52.7294C65.4112 52.7861 65.3972 52.8619 65.3577 53.0721C64.8169 55.9308 65.0793 58.0176 66.1374 59.2743C66.8845 60.161 68.2247 61.1407 69.6439 62.1764C71.8778 63.8083 74.1875 65.4957 74.9735 67.3111C76.1793 70.1004 75.4188 72.4745 75.3857 72.5745C75.3702 72.6214 75.3403 72.6622 75.3003 72.6912C75.2603 72.7201 75.2121 72.7357 75.1627 72.7356Z" fill="#0A231D"/>
<path fill-rule="evenodd" clip-rule="evenodd" d="M75.4137 70.4061C75.3521 70.406 75.293 70.3817 75.2492 70.3384C75.2054 70.2952 75.1802 70.2365 75.1792 70.1749C75.1315 67.4505 78.2794 64.5325 81.3235 61.7107C82.9523 60.2004 84.4913 58.7742 85.3875 57.5016C87.8246 54.0428 84.9142 49.4043 84.8843 49.3578C84.8675 49.3318 84.8561 49.3028 84.8506 49.2724C84.845 49.242 84.8456 49.2108 84.8521 49.1806C84.8586 49.1504 84.8711 49.1218 84.8887 49.0964C84.9063 49.071 84.9287 49.0493 84.9547 49.0326C84.9806 49.0159 85.0096 49.0044 85.04 48.9989C85.0704 48.9934 85.1016 48.9939 85.1318 49.0004C85.162 49.007 85.1906 49.0194 85.216 49.037C85.2414 49.0546 85.2631 49.077 85.2798 49.103C85.4085 49.3036 88.3921 54.0523 85.7722 57.7729C84.8467 59.0864 83.2905 60.5291 81.6427 62.0566C78.8126 64.6797 75.6054 67.6537 75.6487 70.1666C75.6497 70.229 75.626 70.2893 75.5826 70.3342C75.5393 70.3791 75.4799 70.4049 75.4175 70.4061H75.4137Z" fill="#0A231D"/>
<path fill-rule="evenodd" clip-rule="evenodd" d="M64.9262 54.2878C63.6459 54.598 61.6904 47.9601 65.5301 47.8174C69.3698 47.6747 66.7397 53.8477 64.9262 54.2878Z" fill="#89B355"/>
<path fill-rule="evenodd" clip-rule="evenodd" d="M66.9654 60.4145C66.1112 58.6373 65.8845 54.5071 68.5859 54.7211C71.2873 54.9352 70.535 59.4119 66.9654 60.4145Z" fill="#78A441"/>
<path fill-rule="evenodd" clip-rule="evenodd" d="M65.9588 59.4282C64.395 58.1817 60.0584 57.7848 59.9871 59.7104C59.9157 61.636 64.8925 61.7787 65.9588 59.4282ZM72.1598 64.3884C72.1598 64.3884 69.8361 63.1973 67.506 63.6247C65.1759 64.0521 64.6842 65.4057 65.3919 65.8331C66.0995 66.2605 67.8066 65.9433 68.6271 65.8331C69.731 65.6853 72.1598 64.3884 72.1598 64.3884Z" fill="#89B355"/>
<path fill-rule="evenodd" clip-rule="evenodd" d="M72.1597 64.3979C72.1597 64.3979 68.5506 58.2778 72.1597 57.572C75.7688 56.8662 73.8044 63.5991 72.1597 64.3979Z" fill="#78A441"/>
<path fill-rule="evenodd" clip-rule="evenodd" d="M85.4957 49.9901C84.3428 50.6512 80.1139 46.8243 82.9491 45.3178C85.4957 43.9636 86.6487 49.3289 85.4957 49.9901ZM84.6855 58.753C85.6078 57.758 85.0798 52.7329 82.8051 53.6591C79.5527 54.9833 84.209 59.267 84.6855 58.753ZM78.3985 64.3877C78.3985 64.3877 76.0493 63.5392 77.0411 60.9748C78.0329 58.4103 77.001 57.5618 77.001 57.5618C77.001 57.5618 79.6476 57.6803 79.8916 60.413C80.1356 63.1456 78.3985 64.3877 78.3985 64.3877Z" fill="#89B355"/>
<path fill-rule="evenodd" clip-rule="evenodd" d="M78.3984 64.3902C78.3984 64.3902 82.7509 61.0907 83.8096 63.5341C84.8682 65.9776 79.8896 67.3917 78.3984 64.3902ZM110.205 75.7743C109.675 73.5443 105.527 61.7315 112.253 61.4359C118.419 61.1659 114.604 75.3495 114.604 75.3495L110.205 75.7743Z" fill="#78A441"/>
<path fill-rule="evenodd" clip-rule="evenodd" d="M111.532 75.0037C111.513 75.0039 111.494 74.9996 111.477 74.991C111.46 74.9824 111.446 74.9699 111.435 74.9545C111.424 74.9391 111.417 74.9212 111.415 74.9025C111.412 74.8838 111.414 74.8647 111.421 74.847C111.572 74.4101 111.375 73.7597 111.186 73.1304C111.049 72.6832 110.923 72.2609 110.911 71.9042C110.901 71.571 110.934 71.2532 110.968 70.9462C111.018 70.4544 111.068 69.9894 110.944 69.4849C110.914 69.3645 110.884 69.2443 110.852 69.1244C110.675 68.4371 110.535 67.8944 110.681 67.0994L110.816 66.4975C110.983 65.8 111.156 65.0789 110.842 64.4108C110.451 63.5782 110.865 62.6215 111.113 62.0501L111.21 61.8202C111.221 61.7911 111.244 61.7678 111.273 61.7555C111.302 61.7431 111.334 61.7427 111.363 61.7542C111.392 61.7658 111.415 61.7884 111.428 61.8172C111.44 61.8459 111.441 61.8784 111.429 61.9074L111.328 62.1437C111.082 62.7132 110.708 63.5744 111.054 64.3107C111.405 65.0535 111.221 65.8153 111.044 66.5529L110.913 67.1428C110.775 67.8861 110.91 68.4065 111.081 69.0652L111.173 69.4282C111.305 69.9735 111.253 70.4805 111.2 70.971L111.146 71.8972C111.156 72.2227 111.279 72.6303 111.411 73.0622C111.611 73.7278 111.82 74.4152 111.642 74.9241C111.635 74.9473 111.62 74.9675 111.6 74.9818C111.58 74.9961 111.556 75.0038 111.532 75.0037ZM113.416 74.7801L113.405 74.7795C113.374 74.7761 113.345 74.7607 113.326 74.7365C113.306 74.7123 113.296 74.6813 113.299 74.6502C113.327 74.375 113.402 74.082 113.481 73.7724C113.636 73.1622 113.797 72.531 113.601 71.9946C113.285 71.1296 113.214 70.8028 113.299 69.8193L113.355 69.2728C113.441 68.4728 113.531 67.6447 113.304 66.8899C113.014 65.9287 113.048 65.4771 113.488 64.3471C113.887 63.3285 113.03 61.9405 113.021 61.9265C113.013 61.9134 113.007 61.8987 113.005 61.8834C113.002 61.8681 113.003 61.8525 113.006 61.8374C113.01 61.8223 113.016 61.8081 113.025 61.7955C113.034 61.7829 113.046 61.7722 113.059 61.7641C113.072 61.7558 113.087 61.7503 113.102 61.7477C113.117 61.7451 113.133 61.7456 113.148 61.7491C113.163 61.7526 113.177 61.759 113.189 61.7681C113.202 61.7771 113.212 61.7885 113.22 61.8017C113.258 61.8622 114.148 63.305 113.708 64.4324C113.286 65.5127 113.255 65.9147 113.529 66.8217C113.769 67.6224 113.678 68.4747 113.588 69.2983L113.533 69.8397C113.451 70.7825 113.514 71.0742 113.822 71.9131C114.043 72.5182 113.865 73.2157 113.708 73.831L113.533 74.6738C113.53 74.7028 113.517 74.7298 113.495 74.7495C113.474 74.7692 113.446 74.7801 113.416 74.7801ZM109.477 64.2228C109.254 64.0171 108.628 63.4559 108.4 63.3387L108.507 63.1285C108.81 63.2852 109.603 64.0196 109.637 64.0502L109.477 64.2228ZM109.375 66.2019L108.022 65.8108L108.088 65.5847L109.441 65.9758L109.375 66.2019ZM109.526 68.7225L108.024 68.2957L108.088 68.0689L109.59 68.4957L109.526 68.7225ZM109.647 70.8385L108.174 70.4519L108.177 70.2162C108.3 70.2162 109.291 70.4933 109.71 70.6124L109.647 70.8385ZM110.16 72.8303L108.898 72.4998L108.958 72.2717L110.219 72.6023L110.16 72.8303ZM114.754 63.7884L114.639 63.5827L115.716 62.9807L115.831 63.1865L114.754 63.7884ZM114.735 66.2051L114.655 65.9835L116.338 65.3815L116.418 65.6032L114.735 66.2051ZM114.715 69.0129L114.676 68.7811L116.358 68.497L116.397 68.7295L114.715 69.0129ZM114.72 71.2373L114.67 71.0073L116.444 70.6162L116.494 70.8462L114.72 71.2373ZM114.721 73.2794L114.671 73.0495L115.993 72.7641L116.043 72.9941L114.721 73.2794ZM110.466 62.6253L110.075 60.88L110.304 60.829L110.695 62.5743L110.466 62.6253ZM112.79 62.2928L112.575 62.1953L113.206 60.8105L113.42 60.9086L112.79 62.2928Z" fill="#0A231D"/>
<path fill-rule="evenodd" clip-rule="evenodd" d="M87.2227 57.6404C87.2227 57.6404 90.0489 53.7465 91.6758 55.2893C93.4791 56.9989 89.0712 59.7042 87.2227 57.6404Z" fill="#78A441"/>
<path fill-rule="evenodd" clip-rule="evenodd" d="M91.1455 77.5789C91.1455 77.5789 84.6432 66.9318 85.0527 64.9985C85.0527 64.9985 90.6958 68.8599 91.8818 77.5789H91.1455Z" fill="#317C6F"/>
<path fill-rule="evenodd" clip-rule="evenodd" d="M91.6363 78.02C91.6363 78.02 87.3794 66.9563 88.4654 60.8916C88.4654 60.8916 92.3313 71.9967 92.1274 77.8149L91.6363 78.02Z" fill="#2A7368"/>
<path fill-rule="evenodd" clip-rule="evenodd" d="M91.6289 78.2567C91.6289 78.2567 91.6181 60.8162 93.2188 59.2307C93.2188 59.2307 94.0348 76.7406 93.8004 78.2567H91.6289Z" fill="#317C6F"/>
<path fill-rule="evenodd" clip-rule="evenodd" d="M95.5819 57.5205L93.2188 78.4689H94.5475C96.0399 67.9071 95.3036 67.8835 95.5819 57.5205Z" fill="#2A7368"/>
<path fill-rule="evenodd" clip-rule="evenodd" d="M94.187 78.0267L102.554 57.9338C102.554 57.9338 100.893 70.569 95.4145 78.0267H94.187Z" fill="#2A7368"/>
<path fill-rule="evenodd" clip-rule="evenodd" d="M94.7476 78.0217C94.7476 78.0217 95.5941 62.575 97.4509 60.113C97.4509 60.113 97.0655 75.4419 96.0483 78.0217H94.7476Z" fill="#317C6F"/>
<path fill-rule="evenodd" clip-rule="evenodd" d="M95.979 77.5826C95.979 77.5826 99.5639 69.0267 100.845 68.5114C103.599 67.4024 105.695 69.4605 105.695 69.4605C105.695 69.4605 102.56 69.4656 101.803 69.9828C100.837 70.6434 97.5867 77.5826 97.5867 77.5826H95.979Z" fill="#317C6F"/>
<path fill-rule="evenodd" clip-rule="evenodd" d="M88.8221 77.3745C87.9291 78.967 89.319 85.9706 91.2057 87.7923H96.9659C99.2501 85.1361 100.442 80.1454 99.4482 77.3745H88.8221Z" fill="#42A592"/>
<path fill-rule="evenodd" clip-rule="evenodd" d="M90.2759 79.0632C90.277 79.1133 90.2682 79.1631 90.2501 79.2098C90.2319 79.2565 90.2047 79.2992 90.17 79.3354C90.1354 79.3716 90.0939 79.4006 90.048 79.4208C90.0022 79.441 89.9528 79.4519 89.9026 79.453C89.8015 79.4507 89.7054 79.4083 89.6354 79.3352C89.5655 79.2622 89.5273 79.1643 89.5294 79.0632C89.5273 78.962 89.5655 78.8642 89.6354 78.7911C89.7054 78.718 89.8015 78.6757 89.9026 78.6733C90.1097 78.6733 90.2759 78.8479 90.2759 79.0632ZM92.4232 81.3385C92.4252 81.4397 92.387 81.5376 92.3169 81.6107C92.2468 81.6838 92.1505 81.7261 92.0493 81.7283C91.9481 81.726 91.852 81.6836 91.7821 81.6105C91.7121 81.5375 91.6739 81.4396 91.676 81.3385C91.676 81.1232 91.8435 80.9493 92.0493 80.9493C92.255 80.9493 92.4232 81.1232 92.4232 81.3385ZM94.5469 79.0632C94.5489 79.1644 94.5107 79.2624 94.4406 79.3355C94.3705 79.4086 94.2742 79.4508 94.173 79.453C94.0718 79.4507 93.9757 79.4083 93.9057 79.3352C93.8358 79.2622 93.7976 79.1643 93.7997 79.0632C93.7976 78.962 93.8358 78.8642 93.9057 78.7911C93.9757 78.718 94.0718 78.6757 94.173 78.6733C94.2742 78.6755 94.3705 78.7178 94.4406 78.7909C94.5107 78.864 94.5489 78.9619 94.5469 79.0632ZM96.1559 81.0423C96.2358 80.9802 96.3371 80.9524 96.4376 80.9649C96.538 80.9775 96.6293 81.0293 96.6916 81.1091C96.7504 81.1915 96.7742 81.2938 96.7577 81.3936C96.7412 81.4934 96.6858 81.5826 96.6037 81.6417C96.5642 81.6726 96.5191 81.6954 96.4708 81.7088C96.4225 81.7222 96.3721 81.7259 96.3224 81.7197C96.2726 81.7136 96.2246 81.6977 96.1811 81.6729C96.1375 81.6481 96.0993 81.615 96.0686 81.5754C96.0099 81.493 95.9861 81.3907 96.0024 81.2909C96.0188 81.191 96.0739 81.1016 96.1559 81.0423ZM98.1458 78.7644C98.2257 78.7023 98.3269 78.6744 98.4273 78.6868C98.5278 78.6992 98.6192 78.751 98.6815 78.8307C98.7405 78.913 98.7644 79.0155 98.7479 79.1154C98.7314 79.2154 98.6759 79.3048 98.5936 79.3638C98.5541 79.3946 98.509 79.4174 98.4607 79.4307C98.4124 79.4441 98.362 79.4478 98.3123 79.4416C98.2626 79.4355 98.2146 79.4196 98.1711 79.3949C98.1275 79.3702 98.0893 79.3371 98.0585 79.2976C98.0291 79.2569 98.008 79.2108 97.9965 79.1619C97.985 79.1131 97.9832 79.0624 97.9913 79.0129C97.9994 78.9633 98.0172 78.9159 98.0437 78.8732C98.0703 78.8306 98.1049 78.7936 98.1458 78.7644ZM90.3052 83.8634C90.3073 83.9646 90.2691 84.0624 90.1992 84.1355C90.1292 84.2086 90.0331 84.2509 89.9319 84.2533C89.8308 84.2509 89.7347 84.2086 89.6647 84.1355C89.5948 84.0624 89.5566 83.9646 89.5587 83.8634C89.5566 83.7623 89.5948 83.6645 89.6647 83.5914C89.7347 83.5183 89.8308 83.476 89.9319 83.4736C90.0331 83.476 90.1292 83.5183 90.1992 83.5914C90.2691 83.6645 90.3073 83.7623 90.3052 83.8634ZM92.4544 86.1394C92.4564 86.2406 92.4182 86.3386 92.3481 86.4117C92.278 86.4848 92.1817 86.527 92.0805 86.5292C91.9793 86.5269 91.8832 86.4845 91.8133 86.4114C91.7433 86.3384 91.7052 86.2405 91.7072 86.1394C91.7072 85.9241 91.8741 85.7502 92.0805 85.7502C92.1816 85.7524 92.2778 85.7945 92.3479 85.8675C92.418 85.9405 92.4563 86.0382 92.4544 86.1394ZM94.5762 83.8634C94.5782 83.9646 94.5401 84.0624 94.4701 84.1355C94.4001 84.2086 94.304 84.2509 94.2029 84.2533C94.1016 84.2511 94.0054 84.2088 93.9353 84.1357C93.8652 84.0626 93.8269 83.9647 93.829 83.8634C93.8269 83.7622 93.8652 83.6643 93.9353 83.5912C94.0054 83.5181 94.1016 83.4758 94.2029 83.4736C94.304 83.476 94.4001 83.5183 94.4701 83.5914C94.5401 83.6645 94.5782 83.7623 94.5762 83.8634ZM96.1871 85.8406C96.2266 85.8097 96.2718 85.7869 96.3201 85.7735C96.3684 85.7601 96.4189 85.7563 96.4687 85.7625C96.5185 85.7686 96.5665 85.7846 96.6101 85.8093C96.6537 85.8341 96.692 85.8673 96.7228 85.9069C96.7519 85.9477 96.7728 85.9939 96.7841 86.0429C96.7954 86.0918 96.7969 86.1424 96.7886 86.1919C96.7804 86.2414 96.7624 86.2888 96.7358 86.3314C96.7092 86.374 96.6745 86.4109 96.6336 86.44C96.5538 86.502 96.4527 86.5297 96.3524 86.5173C96.2521 86.5049 96.1609 86.4533 96.0985 86.3738C96.0396 86.2913 96.0158 86.1889 96.0324 86.0889C96.049 85.9889 96.1046 85.8996 96.1871 85.8406ZM98.1764 83.5602C98.2158 83.5294 98.2609 83.5066 98.3092 83.4932C98.3574 83.4798 98.4078 83.476 98.4575 83.4821C98.5072 83.4882 98.5552 83.504 98.5988 83.5287C98.6424 83.5534 98.6806 83.5864 98.7114 83.6259C98.7408 83.6667 98.7617 83.7128 98.7732 83.7618C98.7846 83.8107 98.7863 83.8614 98.7782 83.911C98.77 83.9606 98.7521 84.008 98.7256 84.0507C98.6991 84.0934 98.6644 84.1304 98.6235 84.1596C98.584 84.1904 98.5388 84.2131 98.4906 84.2264C98.4423 84.2397 98.3918 84.2434 98.3421 84.2372C98.2924 84.231 98.2444 84.215 98.2009 84.1902C98.1574 84.1654 98.1192 84.1323 98.0885 84.0928C98.0296 84.0104 98.0059 83.9082 98.0224 83.8083C98.0388 83.7085 98.0942 83.6193 98.1764 83.5602Z" fill="#A3BDB2"/>
<path fill-rule="evenodd" clip-rule="evenodd" d="M69.7998 72.499C69.7998 72.499 70.3954 85.4737 73.5733 87.7929H77.9423C81.4132 85.1564 81.9152 72.499 81.9152 72.499H69.7998Z" fill="#F9B050"/>
<path fill-rule="evenodd" clip-rule="evenodd" d="M74.3651 87.9051C74.3431 87.9051 74.3217 87.899 74.3031 87.8874C74.2845 87.8758 74.2695 87.8592 74.26 87.8394C72.8739 85.0323 71.4668 76.5445 71.4668 72.494C71.4668 72.429 71.5197 72.3761 71.5846 72.3761C71.6496 72.3761 71.7018 72.429 71.7018 72.494C71.7018 76.4725 73.1338 85.0265 74.4708 87.735C74.4795 87.753 74.4835 87.7729 74.4825 87.7928C74.4814 87.8128 74.4753 87.8322 74.4648 87.8491C74.4542 87.8661 74.4395 87.8801 74.4221 87.8899C74.4047 87.8997 74.385 87.9049 74.3651 87.9051ZM77.5442 87.9051C77.5242 87.9049 77.5046 87.8997 77.4872 87.8899C77.4697 87.8801 77.4551 87.8661 77.4445 87.8491C77.434 87.8322 77.4279 87.8128 77.4268 87.7928C77.4258 87.7729 77.4298 87.753 77.4385 87.735C78.7755 85.0265 80.2068 76.4725 80.2068 72.494C80.2068 72.4628 80.2192 72.4329 80.2412 72.4109C80.2633 72.3888 80.2931 72.3765 80.3243 72.3765C80.3555 72.3765 80.3854 72.3888 80.4074 72.4109C80.4295 72.4329 80.4418 72.4628 80.4418 72.494C80.4418 76.5445 79.0347 85.0323 77.6493 87.8394C77.6397 87.8591 77.6247 87.8757 77.6061 87.8873C77.5876 87.8989 77.5661 87.905 77.5442 87.9051ZM75.1619 87.9051C75.139 87.905 75.1165 87.8982 75.0974 87.8856C75.0782 87.8729 75.0633 87.8548 75.0543 87.8337C74.0625 85.5183 74.2421 73.0227 74.2498 72.4921C74.2499 72.4766 74.2531 72.4614 74.2592 72.4472C74.2653 72.433 74.2741 72.4201 74.2852 72.4093C74.2963 72.3986 74.3094 72.3901 74.3237 72.3844C74.3381 72.3787 74.3534 72.3759 74.3689 72.3761C74.3844 72.3763 74.3998 72.3795 74.414 72.3857C74.4283 72.3918 74.4412 72.4006 74.4521 72.4118C74.4629 72.4229 74.4714 72.4361 74.4771 72.4505C74.4829 72.4649 74.4857 72.4804 74.4854 72.4959C74.4829 72.6252 74.2975 85.4712 75.2708 87.7407C75.2784 87.7587 75.2814 87.7783 75.2796 87.7977C75.2777 87.8171 75.2711 87.8358 75.2604 87.852C75.2496 87.8683 75.235 87.8816 75.2178 87.8909C75.2006 87.9001 75.1814 87.905 75.1619 87.9051ZM76.5518 87.9051C76.5313 87.9049 76.5111 87.8995 76.4934 87.8891C76.4756 87.8788 76.4608 87.8641 76.4505 87.8463C76.4402 87.8285 76.4348 87.8084 76.4346 87.7879C76.4345 87.7673 76.4398 87.7471 76.4499 87.7293C77.6111 85.6928 76.9709 72.6316 76.9646 72.4997C76.963 72.4686 76.9739 72.438 76.9948 72.4149C77.0157 72.3917 77.0449 72.3778 77.076 72.3761C77.0916 72.3748 77.1073 72.3767 77.1221 72.3818C77.1369 72.3868 77.1505 72.3948 77.162 72.4053C77.1735 72.4159 77.1828 72.4287 77.1891 72.4429C77.1955 72.4572 77.1989 72.4726 77.199 72.4882C77.2264 73.0284 77.85 85.7502 76.6544 87.8458C76.644 87.8639 76.6291 87.8788 76.6111 87.8893C76.5931 87.8997 76.5726 87.9051 76.5518 87.9051Z" fill="#E4F2EC"/>
<path fill-rule="evenodd" clip-rule="evenodd" d="M117.037 78.0191L117.032 78.2618C117.01 79.0957 116.94 79.9276 116.825 80.7537L116.745 81.2907V81.2926C116.359 83.7137 115.614 86.1253 114.629 87.7949H109.733C109.004 86.7706 108.364 84.4227 107.95 81.978V81.9754L107.922 81.8085V81.806C107.789 80.9941 107.682 80.1782 107.603 79.3593C107.593 79.2803 107.585 79.2011 107.578 79.1217C107.411 77.2401 107.429 75.6145 107.708 74.8896H116.741C116.958 75.7795 117.053 76.856 117.037 78.0191Z" fill="#F79277"/>
<path fill-rule="evenodd" clip-rule="evenodd" d="M117.036 78.0177L117.032 78.2598C117.02 78.26 117.008 78.2578 116.996 78.2534C116.571 78.105 116.437 78.3662 116.254 78.8044C116.131 79.0962 115.994 79.4236 115.68 79.4236C115.644 79.4241 115.608 79.4202 115.572 79.4121C115.199 79.3337 114.993 79.0796 114.794 78.835C114.601 78.5968 114.42 78.3732 114.082 78.2745C113.8 78.1897 113.68 78.4012 113.504 78.7522C113.35 79.0586 113.176 79.4051 112.791 79.3439C112.415 79.2822 112.216 79.035 112.023 78.7949C111.858 78.5878 111.701 78.3942 111.43 78.298C111.229 78.2248 111.123 78.3897 110.951 78.7547C110.808 79.0611 110.632 79.4401 110.249 79.365C109.912 79.2987 109.767 79.0656 109.628 78.842C109.484 78.6133 109.351 78.3967 109.011 78.3165C108.728 78.2483 108.575 78.4579 108.354 78.8089C108.174 79.1012 107.966 79.4287 107.603 79.3573C107.593 79.2784 107.584 79.1991 107.579 79.1197C107.593 79.1174 107.607 79.1183 107.621 79.1223C107.832 79.179 107.962 78.9923 108.157 78.684C108.354 78.3687 108.598 77.9751 109.066 78.0885C109.499 78.1897 109.674 78.47 109.825 78.7172C109.957 78.9242 110.058 79.0891 110.296 79.1337C110.481 79.172 110.586 78.9783 110.737 78.656C110.892 78.3286 111.086 77.9235 111.51 78.0744C111.842 78.1942 112.037 78.4343 112.206 78.6464C112.385 78.87 112.54 79.063 112.829 79.1102C113.036 79.1433 113.139 78.9547 113.294 78.6464C113.459 78.3165 113.664 77.9069 114.149 78.0483C114.556 78.1681 114.78 78.4439 114.977 78.6866C115.165 78.9197 115.327 79.1197 115.62 79.1809C115.806 79.221 115.889 79.0681 116.035 78.7146C116.195 78.3356 116.406 77.8247 117.036 78.0177ZM116.824 80.7491L116.745 81.2861V81.288C116.721 81.3351 116.7 81.3893 116.677 81.4434C116.555 81.7358 116.419 82.0632 116.105 82.0632C116.069 82.0625 116.033 82.0585 115.998 82.0511C115.621 81.9708 115.417 81.7167 115.217 81.4721C115.025 81.2364 114.844 81.0103 114.507 80.9115C114.224 80.8287 114.103 81.0409 113.929 81.3893C113.777 81.6957 113.603 82.0422 113.217 81.9804C112.839 81.9192 112.639 81.6721 112.446 81.432C112.281 81.2275 112.126 81.0313 111.856 80.9351C111.652 80.8619 111.548 81.0268 111.374 81.3944C111.234 81.6982 111.055 82.0798 110.674 82.004C110.339 81.9384 110.192 81.7052 110.052 81.4791C109.912 81.253 109.774 81.0364 109.436 80.9536C109.153 80.888 109.002 81.095 108.78 81.4485C108.589 81.7498 108.377 82.0912 107.986 81.9874C107.974 81.9855 107.963 81.9785 107.95 81.9734V81.9708L107.922 81.804V81.8014C107.936 81.7838 107.956 81.7706 107.977 81.7632C107.999 81.7558 108.022 81.7545 108.044 81.7594C108.258 81.8161 108.387 81.6294 108.581 81.3211C108.777 81.0077 109.025 80.6147 109.49 80.7255C109.924 80.8287 110.098 81.1071 110.251 81.3542C110.38 81.5613 110.484 81.7262 110.72 81.7734C110.904 81.811 111.01 81.6154 111.164 81.2931C111.317 80.9708 111.508 80.5606 111.936 80.7134C112.268 80.8338 112.46 81.0714 112.63 81.2835C112.809 81.5097 112.966 81.7027 113.255 81.7473C113.459 81.7804 113.565 81.5944 113.718 81.2861C113.885 80.9536 114.09 80.5466 114.573 80.6854C114.98 80.8058 115.203 81.081 115.401 81.3237C115.589 81.5568 115.754 81.7594 116.044 81.8205C116.229 81.8581 116.313 81.7078 116.46 81.3517C116.547 81.1466 116.648 80.8994 116.824 80.7491Z" fill="#E4F2EC"/>
<path fill-rule="evenodd" clip-rule="evenodd" d="M311.661 132.306C311.122 132.305 310.584 132.285 310.047 132.244C304.401 129.716 308.792 115.573 315.511 112.459C322.23 109.346 322.678 107.193 322.678 107.193C322.678 107.193 322.999 108.301 323.335 110.051C324.603 116.636 326.104 132.311 311.661 132.306Z" fill="#89B355"/>
<path fill-rule="evenodd" clip-rule="evenodd" d="M305.114 202.615L305.59 178.744C305.861 170.791 306.23 162.838 306.833 154.9C307.138 150.931 307.501 146.965 307.999 143.012C308.251 141.035 308.536 139.062 308.892 137.099C309.069 136.116 309.269 135.138 309.494 134.164C309.722 133.192 309.979 132.224 310.301 131.269C310.462 130.79 310.646 130.319 310.853 129.858C310.959 129.626 311.075 129.397 311.2 129.174C311.327 128.954 311.456 128.742 311.587 128.529L313.148 125.991C314.18 124.294 315.186 122.583 316.146 120.847C317.105 119.111 318.017 117.348 318.844 115.547C319.667 113.746 320.418 111.906 320.94 110.001L321.274 110.092C320.757 112.029 320.008 113.888 319.192 115.705C318.37 117.523 317.462 119.299 316.513 121.048C315.557 122.795 314.565 124.521 313.537 126.226L311.99 128.776L311.614 129.411C311.497 129.622 311.389 129.838 311.291 130.058C311.093 130.505 310.918 130.962 310.766 131.427C310.457 132.359 310.21 133.317 309.99 134.28C309.773 135.246 309.579 136.217 309.41 137.193C309.068 139.144 308.796 141.111 308.557 143.081C308.085 147.024 307.746 150.983 307.464 154.947C306.911 162.875 306.59 170.821 306.368 178.768C306.15 186.716 306.039 194.666 306.036 202.616L305.114 202.615Z" fill="#0A231D"/>
<path fill-rule="evenodd" clip-rule="evenodd" d="M303.797 177.722C303.782 177.761 303.766 177.8 303.75 177.838C297.941 192.339 282.52 183.443 278.808 181.03L278.806 181.028C278.284 180.689 277.995 180.479 277.995 180.479C277.995 180.479 282.923 178.905 287.084 176.557C292.527 173.485 302.33 171.116 303.797 177.722ZM333.953 169.109C333.939 169.13 333.804 169.339 333.564 169.686L333.563 169.687C332.135 171.747 326.99 178.665 321.656 179.697C316.878 180.621 312.403 179.119 310.421 176.866C310.221 176.64 310.041 176.396 309.885 176.138L309.884 176.136C309.582 175.636 309.4 175.109 309.359 174.573C309.101 171.262 315.9 166.261 321.394 168.605C326.845 170.93 333.84 169.138 333.953 169.109ZM310.472 150.316C305.728 145.154 319.082 140.93 325.319 143.652C331.556 146.373 332.736 143.135 332.736 143.135C332.736 143.135 326.775 168.064 310.472 150.316Z" fill="#89B355"/>
<path fill-rule="evenodd" clip-rule="evenodd" d="M306.783 155.977C306.783 154.637 306.891 153.279 307.257 151.961C307.442 151.305 307.693 150.657 308.068 150.061C308.256 149.759 308.483 149.481 308.743 149.237C309.009 148.992 309.323 148.776 309.709 148.668C309.806 148.643 309.901 148.623 310.013 148.617C310.116 148.613 310.202 148.617 310.29 148.621L310.796 148.66L311.786 148.761L313.756 148.951L317.7 149.155L321.639 149.008C322.945 148.882 324.245 148.674 325.508 148.335C326.772 147.995 328 147.521 329.114 146.847C330.228 146.178 331.216 145.294 331.94 144.215L332.228 144.408C331.483 145.54 330.46 146.472 329.314 147.177C328.167 147.885 326.907 148.383 325.62 148.744C324.333 149.104 323.01 149.328 321.685 149.468C320.36 149.607 319.026 149.661 317.697 149.656C316.367 149.648 315.038 149.593 313.713 149.49C313.052 149.439 312.391 149.381 311.731 149.317L310.746 149.228L310.263 149.195C310.19 149.192 310.116 149.191 310.043 149.194C309.99 149.198 309.922 149.209 309.86 149.226C309.604 149.297 309.352 149.459 309.134 149.662C308.913 149.873 308.719 150.112 308.558 150.372C308.225 150.902 307.991 151.501 307.818 152.12C307.649 152.744 307.53 153.381 307.463 154.025C307.394 154.674 307.36 155.326 307.36 155.978L306.783 155.977ZM278.006 180.361L281.743 180.565L285.487 180.572C286.734 180.54 287.978 180.462 289.219 180.339C290.459 180.212 291.694 180.031 292.904 179.753C293.51 179.613 294.108 179.444 294.697 179.246L296.493 178.694L300.148 177.783L302.02 177.496C302.34 177.463 302.661 177.449 302.983 177.453C303.151 177.457 303.318 177.472 303.483 177.499C303.568 177.515 303.656 177.534 303.746 177.567C303.794 177.584 303.841 177.604 303.886 177.628L303.925 177.651L303.95 177.667C303.965 177.676 303.993 177.696 304.012 177.71C304.305 177.936 304.495 178.194 304.695 178.45L305.247 179.234L306.279 180.842L305.547 181.208C305.321 180.633 305.058 180.073 304.761 179.531L304.287 178.743C304.204 178.619 304.115 178.498 304.021 178.382C303.934 178.272 303.837 178.171 303.731 178.081C303.719 178.072 303.715 178.067 303.698 178.055L303.673 178.039L303.663 178.032C303.639 178.02 303.614 178.008 303.588 177.998C303.527 177.976 303.463 177.959 303.399 177.947C303.256 177.921 303.112 177.905 302.966 177.899C302.663 177.889 302.359 177.897 302.057 177.923C301.445 177.971 300.83 178.061 300.22 178.17L296.581 179.005L294.784 179.522L293.881 179.793L292.965 180.021C291.736 180.295 290.491 180.467 289.243 180.587C287.996 180.702 286.744 180.772 285.492 180.798C282.988 180.852 280.482 180.783 277.985 180.591L278.006 180.361Z" fill="#0A231D"/>
<path fill-rule="evenodd" clip-rule="evenodd" d="M305.503 181.565C305.575 180.858 305.69 180.147 305.872 179.454C306.045 178.755 306.296 178.077 306.621 177.433C306.949 176.79 307.368 176.179 307.9 175.671C308.432 175.157 309.071 174.769 309.772 174.534C310.455 174.305 311.139 174.159 311.828 174.026C312.513 173.897 313.202 173.786 313.894 173.694C315.275 173.51 316.663 173.384 318.055 173.315C318.751 173.28 319.448 173.263 320.144 173.262C320.813 173.264 321.492 173.165 322.166 173.039C323.511 172.779 324.841 172.393 326.155 171.97C327.47 171.541 328.774 171.076 330.064 170.575C331.356 170.078 332.637 169.553 333.906 169L334 169.211C332.736 169.786 331.46 170.333 330.172 170.853L326.27 172.315L322.249 173.46C321.563 173.6 320.865 173.715 320.146 173.723C319.457 173.73 318.768 173.753 318.081 173.793C316.703 173.872 315.33 174.008 313.964 174.201L311.931 174.548C311.26 174.69 310.59 174.848 309.96 175.071C309.344 175.289 308.785 175.644 308.325 176.108C307.863 176.569 307.491 177.124 307.208 177.724C306.642 178.931 306.381 180.279 306.321 181.627L305.503 181.565Z" fill="#231F20"/>
<path fill-rule="evenodd" clip-rule="evenodd" d="M303.799 167.582C303.428 167.467 303.059 167.344 302.694 167.213C294.852 164.423 286.744 157.718 287.249 150.682C287.778 143.315 284.596 138.524 282.859 136.491L282.856 136.489C282.225 135.75 281.785 135.376 281.785 135.376C281.785 135.376 295.439 135.101 303.799 147.991C307.44 153.606 308.513 162.422 303.799 167.582Z" fill="#89B355"/>
<path fill-rule="evenodd" clip-rule="evenodd" d="M281.827 135.267C283.64 135.988 285.349 136.964 286.921 138.119C288.492 139.275 289.936 140.604 291.249 142.045C292.559 143.491 293.752 145.039 294.817 146.674C295.886 148.307 296.839 150.012 297.669 151.778C298.085 152.662 298.468 153.56 298.818 154.471L299.312 155.85C300.086 158.149 300.932 160.424 301.849 162.67C302.214 163.568 302.594 164.46 302.989 165.345L303.599 166.663L303.92 167.311L304.25 167.965C305.105 169.733 305.782 171.562 306.432 173.406L305.884 173.585C305.596 172.661 305.281 171.747 304.94 170.842C304.604 169.937 304.233 169.045 303.827 168.169C303.725 167.951 303.619 167.734 303.509 167.519C303.4 167.3 303.294 167.08 303.19 166.858C302.983 166.416 302.783 165.971 302.588 165.524C302.2 164.63 301.826 163.73 301.467 162.825C300.748 161.015 300.074 159.188 299.446 157.345L298.986 155.959C298.834 155.5 298.673 155.044 298.502 154.592C298.159 153.687 297.782 152.795 297.374 151.917C296.558 150.161 295.619 148.464 294.565 146.839C293.514 145.213 292.336 143.673 291.043 142.232C289.746 140.798 288.324 139.474 286.77 138.325C285.216 137.177 283.532 136.203 281.74 135.48L281.827 135.267Z" fill="#0A231D"/>
<path fill-rule="evenodd" clip-rule="evenodd" d="M302.692 167.211C294.85 164.421 286.742 157.716 287.247 150.68C287.776 143.313 284.594 138.521 282.858 136.489C283.005 136.61 287.737 140.49 288.136 142.799C288.542 145.146 288.813 146.963 290.299 147.883C291.786 148.803 293.314 150.565 293.969 153.273C294.624 155.981 294.354 157.201 297.328 159.639C299.838 161.696 302.061 165.94 302.692 167.211ZM333.564 169.688C332.135 171.748 326.99 178.666 321.657 179.698C316.879 180.622 312.403 179.12 310.422 176.867L309.885 176.139L309.884 176.137C309.884 176.137 313.189 174.884 315.124 175.562C317.06 176.239 320.608 176.732 323.297 175.354C325.964 173.987 333.447 169.754 333.564 169.688ZM303.749 177.834C297.941 192.335 282.52 183.438 278.808 181.026C278.975 181.094 288.342 184.963 292.06 183.701C295.797 182.431 299.661 177.086 303.749 177.834ZM311.66 132.306L311.653 132.304C311.653 132.304 319.026 130.073 319.026 126.024C319.026 120.913 323.334 110.051 323.334 110.051C324.601 116.635 326.102 132.31 311.66 132.306Z" fill="#78A441"/>
<path fill-rule="evenodd" clip-rule="evenodd" d="M315.732 229.313H295.112C289.081 225.663 287.054 219.86 287.261 214.525C287.277 214.117 287.306 213.713 287.347 213.312C287.734 209.542 289.204 206.118 291.102 204.011C295.05 199.624 294.562 195.081 293.61 192.998H317.101C316.149 195.081 315.947 199.411 319.609 204.011C321.499 206.384 322.9 209.249 323.532 212.258C323.62 212.676 323.692 213.096 323.749 213.519C324.521 219.214 322.461 225.241 315.732 229.313Z" fill="#FEF598"/>
<path fill-rule="evenodd" clip-rule="evenodd" d="M292.061 206.243H295.108V204.475H292.061V206.243ZM296.846 206.243H299.893V204.475H296.846V206.243ZM301.628 206.243H304.677V204.475H301.628V206.243ZM306.412 206.243H309.46V204.475H306.412V206.243ZM314.241 206.243H311.193V204.475H314.241V206.243ZM315.977 206.243H319.025V204.475H315.977V206.243ZM323.748 213.518C321.621 215.727 320.104 214.747 318.865 213.949C317.849 213.293 317.177 212.918 316.232 213.451C315.787 213.703 315.507 214.138 315.209 214.599C314.72 215.357 314.114 216.3 312.659 216.132C311.639 216.013 311.024 215.311 310.482 214.69C310.095 214.247 309.728 213.827 309.279 213.707C307.653 213.274 307.131 213.943 306.41 214.869C305.811 215.639 305.132 216.513 303.744 216.595L303.596 216.601C302.36 216.601 301.806 215.633 301.357 214.851C300.981 214.196 300.724 213.793 300.313 213.716C299.467 213.56 298.985 213.93 298.376 214.4C298.005 214.686 297.623 214.981 297.13 215.176C295.491 215.823 294.286 214.842 293.316 214.055C292.414 213.321 291.825 212.886 291.109 213.157C290.794 213.277 290.424 213.498 290.033 213.732C289.159 214.253 288.255 214.791 287.403 214.568C287.355 214.555 287.307 214.54 287.26 214.523L287.347 213.311C287.472 213.492 287.586 213.542 287.665 213.561C288.099 213.675 288.844 213.23 289.502 212.838C289.915 212.592 290.341 212.338 290.741 212.186C292.052 211.686 293.07 212.516 293.97 213.247C295.03 214.109 295.747 214.605 296.751 214.209C297.106 214.068 297.415 213.83 297.744 213.577C298.426 213.05 299.2 212.452 300.502 212.694C301.415 212.864 301.862 213.645 302.257 214.333C302.721 215.141 303.015 215.595 303.683 215.557C304.601 215.502 305.062 214.913 305.593 214.23C306.333 213.277 307.254 212.093 309.546 212.702C310.3 212.903 310.79 213.463 311.264 214.005C311.742 214.554 312.155 215.027 312.778 215.099C313.556 215.188 313.834 214.818 314.338 214.035C314.675 213.514 315.055 212.923 315.722 212.545C317.261 211.676 318.462 212.451 319.427 213.074C320.723 213.911 321.659 214.515 323.497 212.23L323.531 212.256L323.748 213.518ZM317.594 193.654C317.594 194.159 317.186 194.569 316.681 194.569H294.329C294.209 194.569 294.09 194.545 293.979 194.499C293.868 194.453 293.767 194.386 293.683 194.301C293.598 194.216 293.531 194.115 293.485 194.004C293.439 193.893 293.416 193.774 293.416 193.654C293.416 193.148 293.824 192.739 294.329 192.739H316.681C317.186 192.739 317.594 193.148 317.594 193.654Z" fill="#F8F8F8"/>
<path fill-rule="evenodd" clip-rule="evenodd" d="M301.628 206.243H304.677V204.475H301.628V206.243ZM306.413 206.243H309.46V204.475H306.413V206.243ZM303.596 216.601C302.36 216.601 301.805 215.634 301.357 214.851C300.981 214.196 300.724 213.793 300.312 213.716C300.188 213.693 300.061 213.68 299.934 213.679C299.31 213.679 298.888 214.006 298.377 214.401C298.005 214.686 297.622 214.982 297.13 215.176C296.844 215.292 296.54 215.361 296.232 215.381L296.75 214.209C297.106 214.068 297.415 213.83 297.743 213.577C298.319 213.134 298.959 212.639 299.925 212.639C300.106 212.639 300.297 212.656 300.503 212.694C301.414 212.864 301.862 213.645 302.258 214.334C302.702 215.11 302.992 215.559 303.606 215.559L303.683 215.557C304.602 215.503 305.062 214.913 305.593 214.23C306.193 213.459 306.911 212.536 308.379 212.536C308.724 212.536 309.11 212.587 309.546 212.702C310.3 212.904 310.79 213.464 311.264 214.006C311.742 214.554 312.155 215.027 312.777 215.099C312.849 215.107 312.921 215.112 312.993 215.113C313.613 215.113 313.883 214.741 314.337 214.036C314.674 213.514 315.055 212.923 315.722 212.545L315.975 212.416L316.232 213.451C315.787 213.703 315.507 214.139 315.209 214.599C314.76 215.297 314.209 216.152 312.989 216.152C312.884 216.152 312.774 216.146 312.659 216.132C311.639 216.013 311.024 215.311 310.482 214.691C310.095 214.247 309.728 213.828 309.279 213.707C308.931 213.615 308.634 213.572 308.373 213.572C307.42 213.572 306.976 214.142 306.411 214.869C305.811 215.639 305.132 216.513 303.744 216.596L303.596 216.601Z" fill="#FAF9F8"/>
<path fill-rule="evenodd" clip-rule="evenodd" d="M286.171 87.5674C285.869 87.9827 285.241 88.2426 284.803 88.275L284.266 88.2884L284.331 88.1527C284.589 87.6132 284.881 87.0024 285.294 86.866C285.614 86.7616 285.831 86.7304 285.976 86.7304C286.11 86.7304 286.182 86.7578 286.217 86.7769C286.253 86.796 286.29 86.8297 286.313 86.9247C286.367 87.1514 286.32 87.3623 286.171 87.5674ZM287.02 86.7552C286.954 86.4807 286.8 86.2686 286.572 86.1412C286.224 85.9456 285.732 85.9564 285.068 86.1737C284.366 86.4042 284.003 87.1533 283.683 87.8202L283.674 87.8374L283.381 88.4152L283.329 88.4967L283.683 88.7299L283.703 88.919L283.714 89.0369C283.739 89.0339 283.763 89.0322 283.788 89.0318C284.129 89.0031 284.494 89.0305 284.859 89.0031C285.454 88.9573 286.303 88.6228 286.759 87.9967C287.033 87.619 287.124 87.1896 287.02 86.7552ZM257.987 88.4158C257.549 88.3814 256.923 88.1222 256.619 87.7069C256.47 87.5018 256.423 87.2909 256.477 87.0641C256.5 86.9692 256.539 86.9348 256.574 86.9164C256.649 86.881 256.731 86.865 256.814 86.8699C256.961 86.8699 257.176 86.9011 257.497 87.0056C257.91 87.1419 258.202 87.7527 258.458 88.2922L258.524 88.4279C258.342 88.4267 258.165 88.4292 257.987 88.4158ZM259.329 88.4133L259.114 87.9769L259.016 87.7693C258.718 87.1565 258.36 86.5221 257.723 86.3132C257.06 86.0959 256.567 86.0851 256.219 86.28C255.99 86.4081 255.835 86.6202 255.771 86.8941C255.666 87.3291 255.757 87.7585 256.033 88.1362C256.488 88.7623 257.337 89.0961 257.932 89.1426L259.076 89.1764L259.083 89.0974L259.096 88.97L259.107 88.8693L259.46 88.6356C259.414 88.5629 259.37 88.4888 259.329 88.4133Z" fill="#0A231D"/>
<path fill-rule="evenodd" clip-rule="evenodd" d="M270.19 65.0401H271.351V0H270.19V65.0401Z" fill="#EB5976"/>
<path fill-rule="evenodd" clip-rule="evenodd" d="M259.36 89.0594C260.802 84.5859 264.782 73.4235 270.86 65.4243C274.023 68.9194 276.004 73.54 277.92 78.0129C279.543 81.7985 281.219 85.7127 283.616 88.9861L284.202 88.5549C281.854 85.3483 280.194 81.473 278.588 77.7256C276.589 73.0591 274.522 68.2333 271.098 64.6096L270.807 64.3013L270.547 64.6363C264.252 72.7476 260.142 84.261 258.667 88.8352L259.36 89.0594Z" fill="#EB5976"/>
<path fill-rule="evenodd" clip-rule="evenodd" d="M264.352 92.7467C264.35 92.7467 264.35 92.6149 264.332 92.3677C264.304 92.0099 264.251 91.6544 264.174 91.304C264.054 90.759 263.872 90.2296 263.632 89.7262C263.321 89.0745 262.907 88.4767 262.408 87.9554C261.859 87.3814 261.155 86.8534 260.313 86.4336C259.47 86.0138 258.493 85.6998 257.431 85.5055C256.886 85.4065 256.336 85.3366 255.784 85.296C255.497 85.2746 255.21 85.2597 254.923 85.2514L254.485 85.2437C254.343 85.2423 254.201 85.2431 254.059 85.2463C252.99 85.2743 251.873 85.5724 250.787 86.047C249.702 86.5215 248.642 87.1642 247.63 87.891C246.619 88.6178 245.653 89.4312 244.734 90.2797C242.896 91.9792 241.244 93.813 239.777 95.5513C238.31 97.2897 237.033 98.9458 235.956 100.35L233.351 103.696C233.355 103.699 233.538 103.154 234.172 101.878C234.591 101.039 235.038 100.215 235.513 99.4057C236.237 98.1646 237.01 96.9518 237.827 95.7698C238.804 94.364 239.997 92.755 241.536 91.0001C242.361 90.0566 243.232 89.1531 244.144 88.293C245.125 87.3751 246.225 86.4432 247.513 85.5801C248.181 85.1296 248.879 84.7259 249.603 84.3717C250.389 83.9845 251.214 83.6813 252.064 83.4672C252.519 83.3544 252.982 83.2752 253.449 83.2302C253.689 83.2079 253.931 83.1933 254.175 83.1914C254.404 83.1889 254.633 83.19 254.862 83.1946C255.781 83.2143 256.733 83.292 257.709 83.4672C258.685 83.6424 259.682 83.9175 260.666 84.35C261.65 84.7826 262.617 85.3788 263.464 86.1788C264.338 87.0025 265.032 87.9979 265.503 89.1026C265.992 90.2552 266.244 91.4947 266.242 92.7467H264.352ZM268.011 90.2899C268.009 90.2892 268.011 90.1791 267.985 89.9529C267.945 89.612 267.879 89.2745 267.788 88.9433C267.556 88.0611 267.07 86.7776 266.207 85.3679C265.347 83.9647 264.107 82.4219 262.429 81.1964C261.57 80.5636 260.627 80.055 259.626 79.6854C258.577 79.3026 257.475 79.0837 256.36 79.0364C255.223 78.9848 254.058 79.1077 252.905 79.3625C251.752 79.6173 250.62 80.0001 249.529 80.467C247.345 81.4034 245.338 82.655 243.565 83.9188C241.789 85.187 240.24 86.4731 238.941 87.5789L235.802 90.2166C235.806 90.2173 236.087 89.7402 236.934 88.6535C237.494 87.9396 238.08 87.2465 238.69 86.5757C239.627 85.5432 240.617 84.5602 241.656 83.6309C242.898 82.527 244.414 81.2964 246.356 80.1001C247.4 79.4553 248.491 78.8904 249.62 78.4102C250.834 77.9 252.187 77.4592 253.686 77.2089C255.184 76.9585 256.846 76.9152 258.556 77.2617C260.265 77.6013 262.001 78.3465 263.563 79.4816C265.125 80.6167 266.523 82.1155 267.653 83.8978C268.236 84.8145 268.728 85.7851 269.125 86.796C269.328 87.319 269.507 87.8611 269.648 88.4337C269.788 89.0064 269.897 89.6058 269.902 90.2899H268.011Z" fill="#78A441"/>
<path fill-rule="evenodd" clip-rule="evenodd" d="M275.349 90.1198C275.358 90.0886 275.434 89.6408 275.702 88.8942C275.865 88.443 276.058 88.0034 276.281 87.5782C276.541 87.0827 276.877 86.5355 277.327 85.9826C277.818 85.3742 278.394 84.8398 279.038 84.3959C279.779 83.8898 280.602 83.5171 281.471 83.2946L282.157 83.1481C282.845 83.0308 283.541 82.9705 284.238 82.9678C285.202 82.9667 286.163 83.0671 287.106 83.2672C289.013 83.6665 290.846 84.4526 292.465 85.4393C294.004 86.3813 295.414 87.5198 296.659 88.8261C297.818 90.0408 298.719 91.2861 299.348 92.4065C299.977 93.527 300.337 94.5207 300.455 95.2411C300.452 95.2443 300.228 94.9118 299.633 94.1251C299.242 93.6111 298.833 93.1105 298.407 92.6244C297.761 91.8846 297.075 91.1801 296.353 90.5141C295.354 89.5905 294.283 88.7489 293.149 87.9974C291.848 87.1438 290.283 86.2845 288.407 85.682C287.423 85.3637 286.407 85.1562 285.377 85.0634C284.825 85.0154 284.27 85.0067 283.717 85.0373C283.286 85.062 282.857 85.1122 282.432 85.1877C282.294 85.2118 282.158 85.2407 282.022 85.2743C280.936 85.538 279.902 86.1227 279.058 87.0451C278.62 87.5265 278.245 88.0611 277.941 88.6363C277.697 89.092 277.493 89.5676 277.331 90.058L277.254 90.3039L277.222 90.423L277.198 90.5198L275.349 90.1198Z" fill="#89B355"/>
<path fill-rule="evenodd" clip-rule="evenodd" d="M270.468 90.4658C270.473 90.4906 270.053 88.7638 269.125 86.1744C268.197 83.5851 266.755 80.1333 264.757 76.8089C263.759 75.1483 262.626 73.524 261.385 72.0666C260.148 70.6067 258.802 69.3193 257.447 68.281C256.224 67.3446 254.91 66.5323 253.526 65.8561L250.554 64.5044C250.554 64.5114 250.998 64.491 252.096 64.6617C252.642 64.7515 253.354 64.8968 254.233 65.1745C255.312 65.5189 256.354 65.9698 257.343 66.5204C258.524 67.174 259.835 68.0702 261.193 69.2964C262.551 70.5226 263.952 72.0749 265.309 73.996C266.666 75.9172 267.985 78.2001 269.186 80.8652C269.817 82.2683 270.385 83.6989 270.888 85.1527C271.304 86.3422 271.675 87.5472 271.998 88.765L272.162 89.4058L272.319 90.0753L270.468 90.4658ZM272.899 89.188C272.897 89.1638 272.652 87.7994 272.577 85.6527C272.501 83.5125 272.594 80.5684 273.347 77.5421C273.722 76.0331 274.269 74.5094 275.02 73.1189C275.766 71.729 276.726 70.4818 277.79 69.5346C278.852 68.5817 280 67.9371 281.015 67.5785C282.03 67.2198 282.906 67.123 283.514 67.1861C283.517 67.1905 283.213 67.3218 282.502 67.6963C282.149 67.8861 281.695 68.1409 281.157 68.5091C280.505 68.9533 279.897 69.4592 279.341 70.02C278.575 70.7975 277.91 71.6681 277.36 72.6112C276.723 73.6941 276.138 75.0158 275.676 76.5911C275.214 78.1663 274.871 79.9925 274.698 82.0627C274.608 83.1551 274.567 84.2509 274.573 85.347C274.579 86.2428 274.616 87.1381 274.684 88.0312L274.726 88.4918L274.774 88.9376L272.899 89.188ZM279.116 89.8664C279.132 89.8422 279.36 89.4383 279.852 88.7988C280.542 87.9074 281.334 87.0998 282.211 86.3923C282.814 85.9067 283.458 85.4759 284.137 85.1049C284.914 84.6798 285.737 84.3448 286.591 84.1062C287.524 83.8467 288.487 83.7088 289.456 83.6959C290.468 83.6854 291.478 83.7996 292.463 84.0361C294.453 84.5062 296.316 85.4324 297.941 86.528C299.571 87.6267 300.981 88.8937 302.17 90.1422C303.231 91.2543 304.199 92.4516 305.065 93.722C305.803 94.817 306.312 95.7712 306.569 96.4865C306.568 96.4878 306.273 96.1928 305.557 95.4495L304.132 93.9965C303.405 93.2645 302.66 92.551 301.897 91.8569C300.99 91.0378 299.908 90.1097 298.581 89.1574C297.875 88.6502 297.144 88.1805 296.389 87.7503C295.546 87.2675 294.666 86.8549 293.755 86.5165C292.797 86.1662 291.756 85.8961 290.648 85.7916C289.486 85.6777 288.313 85.7733 287.184 86.0738C286.003 86.3891 284.819 86.9566 283.708 87.7726C283.136 88.1932 282.6 88.6604 282.105 89.1695C281.654 89.6325 281.239 90.1293 280.864 90.6556L280.787 90.7664L280.726 90.8594L279.116 89.8664Z" fill="#78A441"/>
<path fill-rule="evenodd" clip-rule="evenodd" d="M271.969 88.8943C271.975 88.8733 272.118 88.128 272.53 86.8534C272.78 86.0821 273.068 85.3238 273.394 84.5813C273.823 83.5955 274.335 82.6474 274.922 81.7467C275.585 80.7499 276.427 79.7001 277.58 78.8001C278.181 78.3299 278.841 77.9413 279.544 77.6446C280.274 77.3382 281.079 77.135 281.906 77.0669C282.734 76.9987 283.58 77.0592 284.4 77.2242C285.223 77.3934 286.025 77.6514 286.792 77.9937C288.331 78.6752 289.745 79.6434 291.013 80.7753C292.281 81.9073 293.404 83.2061 294.382 84.5921C295.347 85.9691 296.188 87.4296 296.893 88.9561C298.293 91.9671 299.15 95.0857 299.631 97.9802C300.111 100.878 300.22 103.558 300.143 105.8C300.067 108.043 299.803 109.855 299.5 111.073C299.496 111.073 299.496 110.365 299.44 108.607C299.4 107.451 299.331 106.297 299.234 105.144C299.085 103.388 298.85 101.639 298.531 99.9057C298.145 97.8528 297.575 95.4755 296.585 92.8474C296.057 91.446 295.434 90.0824 294.72 88.7662C293.956 87.3713 293.037 85.9463 291.898 84.5788C290.76 83.2156 289.398 81.8958 287.761 80.8397C286.944 80.3154 286.056 79.86 285.111 79.5409C284.167 79.2218 283.167 79.0428 282.179 79.1071C281.193 79.1676 280.218 79.4867 279.327 80.0587C278.436 80.6307 277.626 81.4365 276.922 82.3869C276.217 83.3373 275.61 84.4284 275.089 85.5998C274.625 86.6509 274.238 87.7345 273.933 88.8421L273.87 89.0809L273.815 89.3051L271.969 88.8943Z" fill="#89B355"/>
<path fill-rule="evenodd" clip-rule="evenodd" d="M283.804 88.4133L283.797 88.8503L283.79 89.0299C283.742 89.9036 283.638 90.7734 283.48 91.6339C283.33 92.4509 283.149 93.2616 282.934 94.064C282.69 94.9833 282.412 95.8932 282.099 96.7915C280.781 100.576 278.878 104.096 277.057 105.317H265.81C263.917 104.047 261.934 100.285 260.611 96.3297C260.539 96.1143 260.47 95.8984 260.402 95.6819C260.284 95.3105 260.174 94.937 260.07 94.5615C259.995 94.3003 259.925 94.0398 259.86 93.7799C259.432 92.1065 259.154 90.4873 259.084 89.0981L259.077 88.965C259.069 88.7812 259.066 88.5973 259.065 88.4133H283.804Z" fill="#F87690"/>
<path fill-rule="evenodd" clip-rule="evenodd" d="M272.904 88.4396H270.699C270.603 88.2791 270.498 88.1241 270.384 87.9753C270.32 87.8888 270.25 87.8067 270.175 87.7294C270.107 87.6587 270.029 87.5988 270.029 87.5988L269.852 87.6453C269.588 87.7211 269.282 87.8326 268.976 87.9561C268.357 88.2065 267.705 88.5199 267.043 88.8798C265.632 89.6532 264.306 90.5716 263.085 91.6201C261.807 92.714 260.662 93.9552 259.675 95.3177C258.741 96.6157 257.959 98.0162 257.343 99.4918C256.759 100.883 256.363 102.222 256.059 103.379L255.301 106.187C255.301 106.166 255.227 105.777 255.192 104.824C255.142 103.177 255.317 101.53 255.711 99.9295C256.047 98.5607 256.539 97.2351 257.179 95.9789C257.917 94.5266 258.954 92.9577 260.402 91.4175C261.851 89.8811 263.698 88.3683 266.019 87.0994C266.618 86.7718 267.235 86.4748 267.864 86.2096C268.2 86.0684 268.541 85.94 268.886 85.8248C269.075 85.7629 269.266 85.7076 269.459 85.6592C269.579 85.6306 269.7 85.6076 269.821 85.5904L269.882 85.5834L269.976 85.5751L270.026 85.5738C270.021 85.5738 270.076 85.5719 270.088 85.5738L270.133 85.5751C270.251 85.5789 270.361 85.598 270.466 85.6229C270.887 85.7312 271.152 85.9293 271.361 86.1064C271.547 86.2693 271.717 86.4504 271.867 86.6472C272.146 87.0058 272.356 87.3599 272.548 87.7198C272.674 87.9559 272.793 88.196 272.904 88.4396Z" fill="#89B355"/>
<path fill-rule="evenodd" clip-rule="evenodd" d="M270.846 66.163C270.861 66.0241 270.896 65.888 270.949 65.7591C270.981 65.7973 270.998 65.8394 271.005 65.8789C271.023 65.9846 270.964 66.0884 270.846 66.163ZM270.12 64.6985C270.137 64.6253 270.184 64.5845 270.23 64.575C270.243 64.572 270.257 64.5705 270.271 64.5705C270.322 64.5705 270.366 64.6049 270.444 64.768L270.484 64.8559L270.393 64.8329C270.269 64.7992 270.158 64.7539 270.12 64.6985ZM271.375 64.7966L271.393 64.8055C271.426 64.7542 271.47 64.711 271.522 64.679C271.574 64.647 271.632 64.6271 271.693 64.6208H271.698C271.74 64.6208 271.751 64.6329 271.769 64.6603C271.778 64.6725 271.784 64.6864 271.788 64.7011C271.778 64.7189 271.696 64.7909 271.551 64.8425L271.375 64.8954L271.368 64.8979C271.347 64.9046 271.325 64.9074 271.303 64.9062C271.308 64.9024 271.277 64.8641 271.229 64.7489C271.223 64.7378 271.218 64.7263 271.214 64.7145L271.211 64.7094L271.375 64.7966ZM272.388 64.2788C272.315 64.1554 272.209 64.0542 272.083 63.986C271.957 63.9178 271.814 63.8851 271.671 63.8915C271.57 63.8953 271.471 63.9142 271.375 63.9475C271.217 64.0025 271.072 64.0904 270.949 64.2055C270.87 64.0934 270.768 63.9997 270.649 63.931C270.5 63.8494 270.315 63.8144 270.083 63.8615C269.941 63.8917 269.809 63.956 269.698 64.0488C269.587 64.1416 269.5 64.2601 269.445 64.3941C269.347 64.6374 269.374 64.8979 269.519 65.11C269.624 65.2635 269.772 65.368 269.935 65.4413C270.036 65.4875 270.142 65.5239 270.251 65.5502C270.144 65.8273 270.094 66.1426 270.138 66.4005C270.154 66.5014 270.19 66.5981 270.244 66.6846C270.338 66.8311 270.504 66.9464 270.728 66.9464C270.86 66.9464 271.014 66.9057 271.186 66.8082C271.381 66.7001 271.54 66.5353 271.64 66.3356C271.698 66.2171 271.73 66.0881 271.736 65.9564C271.741 65.8248 271.72 65.6935 271.672 65.5706C271.745 65.5478 271.817 65.5221 271.888 65.4935C272.089 65.4062 272.369 65.2361 272.474 64.9336C272.528 64.7852 272.555 64.5508 272.388 64.2788Z" fill="#0A231D"/>
<path fill-rule="evenodd" clip-rule="evenodd" d="M282.933 94.0577L282.72 94.8316L282.599 94.6985L282.096 94.1526C282.019 94.0672 281.937 93.9865 281.85 93.9112C281.745 94.0075 281.644 94.1089 281.549 94.215L281.492 94.2762L281.136 94.689C280.801 95.0896 280.421 95.5438 280.008 95.7776C279.112 96.2827 278.588 95.4387 278.239 94.8807C278.06 94.5928 277.875 94.294 277.687 94.18C277.311 93.9513 276.92 94.2736 276.32 94.8304C275.804 95.3075 275.274 95.8018 274.626 95.7393C274.23 95.6998 273.875 95.4597 273.54 95.0017C273.443 94.8673 273.366 94.738 273.296 94.624C273.059 94.2303 273.045 94.2342 272.831 94.3144C272.572 94.4106 272.361 94.6609 272.139 94.9253C271.754 95.3833 271.224 96.0094 270.323 95.561C269.95 95.375 269.742 95.0387 269.556 94.7425C269.426 94.5316 269.303 94.3335 269.161 94.2571C269.004 94.1743 268.823 94.3838 268.5 94.8533C268.352 95.068 268.2 95.2896 268.03 95.4444C267.543 95.882 267.138 96.0909 266.773 96.0909C266.711 96.0909 266.65 96.0859 266.59 96.0731C266.065 95.9674 265.823 95.4514 265.608 94.996C265.289 94.3182 265.184 94.252 264.935 94.3494C264.714 94.4354 264.468 94.6705 264.232 94.896C263.722 95.382 263.025 96.0451 262.137 95.4744C261.794 95.254 261.643 94.8444 261.512 94.4826C261.412 94.2125 261.301 93.9055 261.156 93.8602C260.807 93.7545 260.507 94.0469 260.069 94.5546C259.995 94.2953 259.925 94.035 259.859 93.7736C260.259 93.3621 260.74 93.0226 261.356 93.2112C261.821 93.3551 261.993 93.829 262.148 94.2488C262.247 94.5221 262.352 94.8062 262.503 94.9043C262.901 95.1597 263.193 94.9476 263.763 94.4036C264.048 94.1322 264.344 93.8513 264.688 93.7163C265.59 93.3647 265.971 94.1717 266.22 94.7068C266.367 95.0164 266.533 95.3686 266.724 95.4068C266.805 95.424 267.051 95.4107 267.576 94.9393C267.689 94.8386 267.817 94.6501 267.941 94.4692C268.268 93.9934 268.762 93.2749 269.479 93.6583C269.781 93.8201 269.96 94.1068 270.133 94.3819C270.282 94.624 270.426 94.8533 270.624 94.9527C271.017 95.1482 271.19 94.9992 271.621 94.487C271.879 94.1826 272.17 93.836 272.595 93.6787C273.349 93.3972 273.654 93.9029 273.877 94.2724L274.088 94.5998C274.298 94.889 274.502 95.0438 274.693 95.0629C275.035 95.0954 275.454 94.7068 275.86 94.3322C276.456 93.7781 277.199 93.0889 278.037 93.5997C278.366 93.7978 278.594 94.1647 278.815 94.5221C279.25 95.2215 279.403 95.3387 279.676 95.1852C279.98 95.0125 280.319 94.6093 280.616 94.2533L280.999 93.8106L281.054 93.7507C281.369 93.415 281.559 93.2124 281.847 93.2112H281.849C282.124 93.2112 282.321 93.3997 282.591 93.687L282.933 94.0577ZM282.344 96.0604L282.097 96.7916L281.913 96.5923L281.664 96.3502C281.559 96.4468 281.459 96.5489 281.364 96.6559L281.306 96.7152L280.95 97.1286C280.615 97.5292 280.236 97.9828 279.822 98.2165C278.926 98.7229 278.402 97.8783 278.055 97.3197C277.874 97.0318 277.689 96.733 277.501 96.619C277.125 96.391 276.733 96.7126 276.134 97.2694C275.618 97.7477 275.086 98.2407 274.441 98.1783C274.044 98.1401 273.689 97.8987 273.356 97.4407C273.258 97.3063 273.18 97.177 273.11 97.063C272.873 96.6693 272.859 96.6744 272.645 96.7547C272.387 96.8502 272.177 97.0999 271.954 97.3649C271.568 97.8223 271.038 98.4503 270.137 98.0006C269.764 97.8146 269.555 97.4789 269.371 97.1815C269.24 96.9706 269.117 96.7725 268.975 96.6967C268.818 96.6133 268.638 96.8241 268.314 97.2942C268.168 97.5076 268.014 97.7286 267.843 97.8834C267.357 98.321 266.953 98.5306 266.588 98.5306C266.525 98.5306 266.464 98.5248 266.404 98.5127C265.88 98.407 265.637 97.8904 265.422 97.4369C265.103 96.7572 264.998 96.691 264.749 96.7884C264.527 96.8757 264.282 97.1095 264.046 97.3362C263.536 97.821 262.839 98.4853 261.951 97.9146C261.608 97.6949 261.457 97.2834 261.326 96.9222C261.226 96.6515 261.114 96.3445 260.97 96.2999C260.85 96.2625 260.721 96.2733 260.608 96.3298C260.537 96.1143 260.468 95.8984 260.4 95.682C260.645 95.5815 260.917 95.5709 261.17 95.6521C261.635 95.7941 261.809 96.2699 261.962 96.6884C262.062 96.963 262.166 97.2464 262.317 97.3433C262.715 97.5987 263.007 97.3878 263.577 96.8432C263.862 96.5712 264.157 96.2916 264.502 96.1559C265.404 95.8037 265.784 96.612 266.036 97.1458C266.182 97.4573 266.347 97.8089 266.538 97.8471C266.619 97.863 266.866 97.8509 267.39 97.3783C267.502 97.2776 267.63 97.0904 267.756 96.9082C268.082 96.433 268.576 95.7145 269.293 96.0973C269.596 96.2591 269.774 96.5458 269.947 96.8228C270.096 97.0649 270.24 97.2929 270.44 97.3917C270.831 97.5878 271.004 97.4394 271.436 96.9273C271.693 96.6216 271.984 96.275 272.409 96.1177C273.163 95.8362 273.468 96.3432 273.691 96.7126L273.902 97.04C274.112 97.328 274.316 97.484 274.507 97.5019C274.849 97.5356 275.269 97.1471 275.674 96.7712C276.27 96.2183 277.013 95.5285 277.854 96.0387C278.179 96.2375 278.409 96.6056 278.629 96.9611C279.065 97.6611 279.218 97.7789 279.49 97.6242C279.794 97.4515 280.133 97.0483 280.43 96.6923L280.813 96.2508L280.869 96.191C281.183 95.854 281.373 95.6521 281.661 95.6521H281.664C281.916 95.6521 282.104 95.8107 282.344 96.0604Z" fill="#FAC73D"/>
<path fill-rule="evenodd" clip-rule="evenodd" d="M236.696 175.084C236.223 174.601 235.986 173.079 235.872 171.072C235.847 170.614 235.828 170.155 235.814 169.696L235.781 164.557L235.793 163.133L235.771 157.987C235.757 157.532 235.731 157.078 235.693 156.624C235.649 156.113 235.586 155.698 235.503 155.404C234.675 152.487 234.357 150.146 236.231 150.264L240.301 150.43C246.262 150.64 256.915 150.93 260.114 150.562C260.328 150.538 260.508 150.511 260.652 150.481C263.733 149.823 261.635 155.11 261.452 156.648C261.447 156.685 261.443 156.723 261.442 156.761C261.416 157.097 261.415 157.756 261.429 158.629L261.576 163.359L261.657 165.348C261.757 167.612 261.869 169.875 261.993 172.137L262.007 172.394L262.028 172.762L262.124 174.194C262.303 176.336 238.388 176.81 236.696 175.084Z" fill="#AFC5F8"/>
<path fill-rule="evenodd" clip-rule="evenodd" d="M195.521 93.8996V77.4648H204.158V87.5559H206.432V93.8996H195.521ZM205.059 86.652H206.432V77.4648H205.059V86.652Z" fill="#9DD1C7"/>
</svg>
