<svg width="51" height="51" viewBox="0 0 51 51" fill="none" xmlns="http://www.w3.org/2000/svg">
<g clip-path="url(#clip0_128_8)">
<g clip-path="url(#clip1_128_8)">
<path d="M46.4531 20.7761C46.4534 20.4917 46.3976 20.21 46.2889 19.9471C46.1802 19.6843 46.0207 19.4455 45.8197 19.2443C45.6186 19.0431 45.3798 18.8836 45.117 18.7747C44.8542 18.6659 44.5726 18.61 44.2881 18.6101C44.0036 18.6098 43.7218 18.6657 43.4589 18.7744C43.196 18.8832 42.9571 19.0427 42.756 19.2439C42.5548 19.4451 42.3952 19.684 42.2865 19.9469C42.1777 20.2098 42.1219 20.4916 42.1221 20.7761C42.1221 21.7601 42.7921 22.5861 43.6971 22.8461V24.2091C43.2456 24.3366 42.8478 24.6075 42.5637 24.9809C42.2796 25.3543 42.1246 25.8099 42.1221 26.2791V28.0511H4.72114V26.2881C4.72114 25.3031 4.05114 24.4771 3.14614 24.2171V22.8541C3.59765 22.7266 3.99545 22.4557 4.27955 22.0823C4.56364 21.7089 4.71863 21.2533 4.72114 20.7841C4.7214 20.4996 4.66555 20.2178 4.5568 19.9549C4.44804 19.692 4.2885 19.4531 4.08732 19.2519C3.88613 19.0507 3.64725 18.8912 3.38434 18.7824C3.12143 18.6737 2.83965 18.6178 2.55514 18.6181C1.36014 18.6181 0.390137 19.5781 0.390137 20.7761C0.390137 21.7601 1.06014 22.5861 1.96514 22.8461V24.2091C1.51363 24.3366 1.11583 24.6075 0.831728 24.9809C0.547631 25.3543 0.392643 25.8099 0.390137 26.2791L0.390137 49.9021C0.390137 50.2241 0.658137 50.4921 0.980137 50.4921H4.13014C4.45314 50.4921 4.72014 50.2251 4.72014 49.9021V48.9171H42.1221V49.9101C42.1221 50.2321 42.3901 50.5001 42.7121 50.5001H45.8621C46.1851 50.5001 46.4531 50.2321 46.4531 49.9101V26.2881C46.4531 25.3031 45.7831 24.4771 44.8781 24.2171V22.8541C45.7841 22.5871 46.4531 21.7601 46.4531 20.7761ZM43.3031 20.7761C43.3031 20.5149 43.4069 20.2643 43.5916 20.0796C43.7764 19.8949 44.0269 19.7911 44.2881 19.7911C44.5494 19.7911 44.7999 19.8949 44.9846 20.0796C45.1694 20.2643 45.2731 20.5149 45.2731 20.7761C45.2731 21.0373 45.1694 21.2879 44.9846 21.4726C44.7999 21.6573 44.5494 21.7611 44.2881 21.7611C44.0269 21.7611 43.7764 21.6573 43.5916 21.4726C43.4069 21.2879 43.3031 21.0373 43.3031 20.7761ZM32.2801 43.0201V32.3901H36.6101V43.0201H32.2801ZM26.7681 43.0201V32.3901H31.0981V43.0201H26.7681ZM21.2561 43.0201V32.3901H25.5861V43.0201H21.2561ZM15.7441 43.0201V32.3901H20.0751V43.0201H15.7441ZM10.2331 43.0201V32.3901H14.5631V43.0201H10.2331ZM4.72114 43.0201V32.3901H9.05114V43.0201H4.72114ZM37.7901 32.3901H42.1211V43.0201H37.7911L37.7901 32.3901ZM42.1211 29.2401V31.2091H4.72114V29.2401H42.1211ZM1.57114 20.7761C1.56514 20.6432 1.58615 20.5104 1.6329 20.3858C1.67964 20.2612 1.75116 20.1473 1.84312 20.0511C1.93508 19.9549 2.04559 19.8783 2.16797 19.826C2.29034 19.7737 2.42205 19.7467 2.55514 19.7467C2.68822 19.7467 2.81993 19.7737 2.94231 19.826C3.06468 19.8783 3.17519 19.9549 3.26715 20.0511C3.35912 20.1473 3.43063 20.2612 3.47738 20.3858C3.52412 20.5104 3.54513 20.6432 3.53914 20.7761C3.53099 21.0318 3.42369 21.2743 3.23995 21.4522C3.05621 21.6302 2.81044 21.7297 2.55464 21.7297C2.29883 21.7297 2.05306 21.6302 1.86932 21.4522C1.68558 21.2743 1.57829 21.0318 1.57014 20.7761H1.57114ZM3.54014 49.3191H1.57014V26.2871C1.57829 26.0314 1.68558 25.789 1.86932 25.611C2.05306 25.433 2.29883 25.3335 2.55464 25.3335C2.81044 25.3335 3.05621 25.433 3.23995 25.611C3.42369 25.789 3.53099 26.0314 3.53914 26.2871V49.3201L3.54014 49.3191ZM4.72014 47.7441V44.2011H42.1221V47.7441H4.72014ZM45.2721 26.2881V49.3191H43.3031V26.2871C43.3113 26.0314 43.4186 25.789 43.6023 25.611C43.7861 25.433 44.0318 25.3335 44.2876 25.3335C44.5434 25.3335 44.7892 25.433 44.973 25.611C45.1567 25.789 45.264 26.0324 45.2721 26.2881Z" fill="#9A0000"/>
<path d="M39.563 2.07502C33.595 2.07502 28.736 6.93302 28.736 12.902V13.13C27.3149 13.2703 25.9878 13.904 24.9852 14.921C23.9827 15.938 23.368 17.274 23.248 18.697C22.7906 18.8205 22.3864 19.0908 22.0977 19.4665C21.8089 19.8421 21.6517 20.3022 21.65 20.776C21.65 21.3502 21.8781 21.9009 22.2842 22.3069C22.6902 22.7129 23.2408 22.941 23.815 22.941C24.3892 22.941 24.9399 22.7129 25.3459 22.3069C25.7519 21.9009 25.98 21.3502 25.98 20.776C25.98 19.799 25.327 18.98 24.43 18.712C24.5435 17.6001 25.0315 16.5597 25.8138 15.7616C26.5962 14.9634 27.6266 14.4547 28.736 14.319V17.129C28.2845 17.257 27.8867 17.5283 27.6028 17.902C27.3189 18.2758 27.1642 18.7317 27.162 19.201C27.162 20.398 28.13 21.366 29.327 21.366C29.6114 21.3662 29.893 21.3102 30.1557 21.2015C30.4184 21.0927 30.6572 20.9333 30.8582 20.7322C31.0593 20.5311 31.2188 20.2924 31.3275 20.0297C31.4363 19.767 31.4922 19.4854 31.492 19.201C31.492 18.216 30.823 17.39 29.917 17.13V14.319C31.0268 14.4543 32.0577 14.9628 32.8405 15.761C33.6232 16.5592 34.1115 17.5998 34.225 18.712C33.779 18.8438 33.3873 19.1157 33.1078 19.4874C32.8283 19.8592 32.6759 20.311 32.673 20.776C32.673 21.972 33.642 22.941 34.839 22.941C35.1234 22.9412 35.405 22.8852 35.6677 22.7765C35.9304 22.6677 36.1692 22.5083 36.3702 22.3072C36.5713 22.1061 36.7308 21.8674 36.8395 21.6047C36.9483 21.342 37.0042 21.0604 37.004 20.776C37.004 19.776 36.319 18.941 35.406 18.696C35.2843 17.2737 34.6691 15.9388 33.6668 14.9223C32.6646 13.9058 31.3385 13.2718 29.918 13.13V12.9C29.918 7.58602 34.248 3.25502 39.563 3.25502C44.878 3.25502 49.209 7.58502 49.209 12.901V49.908C49.209 50.231 49.476 50.498 49.799 50.498C50.122 50.498 50.389 50.231 50.389 49.908V12.901C50.389 6.93302 45.532 2.07502 39.563 2.07502ZM24.799 20.775C24.8032 20.9069 24.7809 21.0384 24.7333 21.1615C24.6857 21.2846 24.6139 21.3969 24.522 21.4917C24.4302 21.5865 24.3203 21.6619 24.1987 21.7134C24.0772 21.7649 23.9465 21.7914 23.8145 21.7914C23.6825 21.7914 23.5519 21.7649 23.4304 21.7134C23.3088 21.6619 23.1989 21.5865 23.107 21.4917C23.0152 21.3969 22.9434 21.2846 22.8958 21.1615C22.8482 21.0384 22.8258 20.9069 22.83 20.775C22.83 20.5138 22.9338 20.2632 23.1185 20.0785C23.3033 19.8938 23.5538 19.79 23.815 19.79C24.0763 19.79 24.3268 19.8938 24.5115 20.0785C24.6963 20.2632 24.799 20.5138 24.799 20.775ZM35.823 20.775C35.823 20.9044 35.7976 21.0325 35.7481 21.152C35.6986 21.2715 35.626 21.3801 35.5345 21.4715C35.4431 21.563 35.3345 21.6355 35.215 21.685C35.0955 21.7345 34.9674 21.76 34.838 21.76C34.7087 21.76 34.5806 21.7345 34.4611 21.685C34.3416 21.6355 34.233 21.563 34.1415 21.4715C34.0501 21.3801 33.9775 21.2715 33.928 21.152C33.8785 21.0325 33.853 20.9044 33.853 20.775C33.853 20.5138 33.9568 20.2632 34.1415 20.0785C34.3263 19.8938 34.5768 19.79 34.838 19.79C35.0993 19.79 35.3498 19.8938 35.5345 20.0785C35.7193 20.2632 35.823 20.5138 35.823 20.775ZM30.311 19.201C30.3152 19.333 30.2928 19.4644 30.2451 19.5875C30.1975 19.7106 30.1256 19.8228 30.0337 19.9176C29.9418 20.0123 29.8318 20.0877 29.7102 20.1391C29.5887 20.1905 29.458 20.217 29.326 20.2169C29.194 20.2168 29.0634 20.1902 28.9419 20.1387C28.8204 20.0872 28.7105 20.0117 28.6187 19.9169C28.5269 19.822 28.4551 19.7097 28.4076 19.5865C28.3601 19.4634 28.3378 19.3319 28.342 19.2C28.342 18.9388 28.4458 18.6882 28.6305 18.5035C28.8153 18.3188 29.0658 18.215 29.327 18.215C29.5883 18.215 29.8388 18.3188 30.0235 18.5035C30.2083 18.6882 30.312 18.9388 30.312 19.2L30.311 19.201ZM4.13004 15.854H19.878C20.201 15.854 20.468 15.587 20.468 15.264V1.09002C20.467 0.933776 20.4045 0.78421 20.2941 0.67363C20.1837 0.563051 20.0343 0.500333 19.878 0.499023H4.13004C3.97397 0.50033 3.82465 0.562909 3.71429 0.673274C3.60393 0.783639 3.54135 0.93295 3.54004 1.08902V15.263C3.54004 15.586 3.80704 15.853 4.13004 15.853V15.854ZM19.288 14.674H12.595V1.68002H19.288V14.672V14.674ZM4.72004 1.68002H11.413V14.672H4.72004V1.68102V1.68002Z" fill="#9A0000"/>
<path d="M7.65028 3.035L6.07528 4.61C5.96542 4.72118 5.90381 4.87119 5.90381 5.0275C5.90381 5.1838 5.96542 5.33381 6.07528 5.445C6.12995 5.50018 6.19507 5.54391 6.26685 5.57362C6.33862 5.60332 6.4156 5.61841 6.49328 5.618C6.64328 5.618 6.79228 5.563 6.91028 5.445L8.48528 3.87C8.59514 3.75881 8.65675 3.6088 8.65675 3.4525C8.65675 3.29619 8.59514 3.14618 8.48528 3.035C8.3741 2.92514 8.22409 2.86353 8.06778 2.86353C7.91147 2.86353 7.76147 2.92514 7.65028 3.035ZM14.3663 5.618C14.5163 5.618 14.6663 5.563 14.7843 5.445L16.3593 3.87C16.4691 3.75881 16.5308 3.6088 16.5308 3.4525C16.5308 3.29619 16.4691 3.14618 16.3593 3.035C16.2481 2.92514 16.0981 2.86353 15.9418 2.86353C15.7855 2.86353 15.6355 2.92514 15.5243 3.035L13.9493 4.61C13.8394 4.72118 13.7778 4.87119 13.7778 5.0275C13.7778 5.1838 13.8394 5.33381 13.9493 5.445C14.0038 5.50006 14.0688 5.54372 14.1404 5.57342C14.212 5.60312 14.2888 5.61828 14.3663 5.618Z" fill="#9A0000"/>
</g>
</g>
<defs>
<clipPath id="clip0_128_8">
<rect width="50" height="50" fill="white" transform="translate(0.390137 0.5)"/>
</clipPath>
<clipPath id="clip1_128_8">
<rect width="50" height="50" fill="white" transform="translate(0.390137 0.5)"/>
</clipPath>
</defs>
</svg>
