<svg width="85" height="85" viewBox="0 0 85 85" fill="none" xmlns="http://www.w3.org/2000/svg">
<g clip-path="url(#clip0_100_249)">
<path d="M41.5679 54.2328L41.6529 54.1505C38.3226 53.0778 35.2998 51.2184 32.8403 48.7297V62.885L41.5679 54.2328Z" fill="#9A0000"/>
<path d="M50.9204 55.0306C50.7202 54.751 46.4511 47.2189 46.1988 46.9694C46.1988 46.9694 44.056 51.8596 41.654 54.1519C41.6252 54.1793 41.5951 54.2053 41.5677 54.2341L32.8415 62.8849L32.8401 7.45396C32.8401 4.16775 30.0296 1.37097 26.705 1.37097C23.316 1.37097 20.5699 4.09508 20.5699 7.45396V62.8849L11.8451 54.2327C9.50759 51.9144 5.52219 51.8994 3.1696 54.2327C2.60048 54.7951 2.14863 55.4648 1.84024 56.203C1.53184 56.9413 1.37305 57.7334 1.37305 58.5335C1.37305 59.3335 1.53184 60.1257 1.84024 60.8639C2.14863 61.6022 2.60048 62.2719 3.1696 62.8342L22.3673 81.8701C24.7308 84.2144 28.6819 84.2144 31.0455 81.8715L50.2459 62.8356C51.2669 61.8267 51.8956 60.4874 52.0194 59.0574C52.1432 57.6274 51.7542 56.2 50.9218 55.0306H50.9204Z" fill="#9A0000"/>
<path d="M48.2924 11.7122C45.417 11.7106 42.5699 12.2811 39.9171 13.3904C37.2643 14.4996 34.8586 16.1256 32.8402 18.1735C28.8076 22.2349 26.5458 27.7269 26.5488 33.4502C26.5488 39.4002 28.9535 44.8005 32.8416 48.7297C35.3004 51.2186 38.3228 53.0785 41.6528 54.1518C42.8147 53.0468 44.361 52.4373 45.9644 52.4524C47.5678 52.4675 49.1024 53.106 50.2433 54.2327C50.4955 54.4836 50.7204 54.751 50.9192 55.0306C61.6744 53.7282 70.0359 44.5482 70.0359 33.4516C70.0359 21.4639 60.2815 11.7122 48.2924 11.7122ZM78.4002 76.0476H37.725C37.6269 76.0476 37.5298 76.0282 37.4392 75.9907C37.3487 75.9531 37.2664 75.898 37.1971 75.8286C37.1278 75.7592 37.0729 75.6769 37.0355 75.5862C36.9981 75.4956 36.979 75.3984 36.9792 75.3004V69.2106C36.9792 68.7993 37.3137 68.4647 37.725 68.4647H78.4002C78.8115 68.4647 79.146 68.7979 79.146 69.2106V75.3004C79.146 75.7117 78.8129 76.0476 78.4002 76.0476Z" fill="#9A0000"/>
<path d="M61.813 68.4648H54.3125V76.0462H61.813V68.4648ZM82.8835 68.4648H66.2961L62.5451 66.81L58.7955 68.4648H42.2082C42.0104 68.4648 41.8207 68.3862 41.6808 68.2463C41.541 68.1065 41.4624 67.9168 41.4624 67.719V61.6278C41.4624 61.2165 41.7969 60.882 42.2082 60.882H58.7955L62.5451 62.5367L66.2961 60.882H82.8835C83.2947 60.882 83.6293 61.2165 83.6293 61.6278V67.719C83.6293 68.1303 83.2947 68.4648 82.8835 68.4648Z" fill="#9A0000"/>
<path d="M66.2961 60.882H58.7955V68.4634H66.2961V60.882ZM82.8835 83.6291H66.2961L62.5451 81.9743L58.7955 83.6291H42.2082C42.0104 83.6291 41.8207 83.5505 41.6808 83.4106C41.541 83.2708 41.4624 83.0811 41.4624 82.8833V76.7934C41.4624 76.3807 41.7969 76.0462 42.2082 76.0462H58.7955L62.5451 77.701L66.2961 76.0462H82.8835C83.2947 76.0462 83.6293 76.3807 83.6293 76.7934V82.8819C83.6293 83.2945 83.2947 83.6291 82.8835 83.6291Z" fill="#9A0000"/>
<path d="M66.2961 76.0476H58.7955V83.6291H66.2961V76.0476ZM41.5679 54.2328L41.6529 54.1505C38.3226 53.0778 35.2998 51.2184 32.8403 48.7297V62.885L41.5679 54.2328Z" fill="#9A0000"/>
<path d="M51.6277 60.7311C52.0563 59.631 52.1535 58.4295 51.9075 57.2748C51.6614 56.12 51.0828 55.0625 50.243 54.2327C49.1023 53.1058 47.5678 52.4671 45.9644 52.4517C44.361 52.4364 42.8146 53.0456 41.6525 54.1505L41.5675 54.2327L32.8413 62.8835V48.7283" fill="#9A0000"/>
<path d="M51.6277 60.7311C52.0563 59.631 52.1535 58.4295 51.9075 57.2748C51.6614 56.12 51.0828 55.0625 50.243 54.2327C49.1023 53.1058 47.5678 52.4671 45.9644 52.4517C44.361 52.4364 42.8146 53.0456 41.6525 54.1505L41.5675 54.2327L32.8413 62.8835V48.7283" stroke="white" stroke-width="1.20968" stroke-miterlimit="10" stroke-linecap="round" stroke-linejoin="round"/>
<path d="M20.5699 18.6904V62.8863L11.8451 54.2328C9.50759 51.9145 5.52219 51.8994 3.1696 54.2328C2.60048 54.7951 2.14863 55.4648 1.84024 56.2031C1.53184 56.9413 1.37305 57.7334 1.37305 58.5335C1.37305 59.3336 1.53184 60.1257 1.84024 60.8639C2.14863 61.6022 2.60048 62.2719 3.1696 62.8342L22.3673 81.8701C24.7308 84.2145 28.6819 84.2145 31.0455 81.8715L36.9215 76.0462" fill="#9A0000"/>
<path d="M20.5699 18.6904V62.8863L11.8451 54.2328C9.50759 51.9145 5.52219 51.8994 3.1696 54.2328C2.60048 54.7951 2.14863 55.4648 1.84024 56.2031C1.53184 56.9413 1.37305 57.7334 1.37305 58.5335C1.37305 59.3336 1.53184 60.1257 1.84024 60.8639C2.14863 61.6022 2.60048 62.2719 3.1696 62.8342L22.3673 81.8701C24.7308 84.2145 28.6819 84.2145 31.0455 81.8715L36.9215 76.0462" stroke="white" stroke-width="1.20968" stroke-miterlimit="10" stroke-linecap="round" stroke-linejoin="round"/>
<path d="M32.8404 18.1736V7.45396C32.8404 4.16775 30.0299 1.37097 26.7039 1.37097C23.3163 1.37097 20.5688 4.09508 20.5688 7.45396V13.7563" fill="#9A0000"/>
<path d="M32.8404 18.1736V7.45396C32.8404 4.16775 30.0299 1.37097 26.7039 1.37097C23.3163 1.37097 20.5688 4.09508 20.5688 7.45396V13.7563" stroke="white" stroke-width="1.20968" stroke-miterlimit="10" stroke-linecap="round" stroke-linejoin="round"/>
<path d="M50.9192 55.0306C61.6744 53.7282 70.0359 44.5482 70.0359 33.4516C70.0359 21.4639 60.2815 11.7122 48.2924 11.7122C45.417 11.7106 42.5699 12.2811 39.9171 13.3904C37.2643 14.4996 34.8586 16.1256 32.8402 18.1735C28.8076 22.2349 26.5458 27.7269 26.5488 33.4502C26.5488 39.4002 28.9535 44.8005 32.8416 48.7297C35.3004 51.2186 38.3228 53.0785 41.6528 54.1518" fill="#9A0000"/>
<path d="M50.9192 55.0306C61.6744 53.7282 70.0359 44.5482 70.0359 33.4516C70.0359 21.4639 60.2815 11.7122 48.2924 11.7122C45.417 11.7106 42.5699 12.2811 39.9171 13.3904C37.2643 14.4996 34.8586 16.1256 32.8402 18.1735C28.8076 22.2349 26.5458 27.7269 26.5488 33.4502C26.5488 39.4002 28.9535 44.8005 32.8416 48.7297C35.3004 51.2186 38.3228 53.0785 41.6528 54.1518M52.2092 24.2154L44.6196 42.2985" stroke="white" stroke-width="1.20968" stroke-miterlimit="10" stroke-linecap="round" stroke-linejoin="round"/>
<path d="M41.6034 31.1662C43.4556 31.1662 44.9568 29.421 44.9568 27.2699C44.9568 25.1175 43.4556 23.3737 41.6034 23.3737C39.7526 23.3737 38.25 25.1175 38.25 27.2699C38.25 29.4224 39.7512 31.1662 41.6034 31.1662ZM54.9813 43.5283C56.8321 43.5283 58.3347 41.7844 58.3347 39.632C58.3347 37.4795 56.8335 35.7357 54.9813 35.7357C53.1291 35.7357 51.6279 37.4795 51.6279 39.632C51.6279 41.7844 53.1291 43.5283 54.9813 43.5283Z" fill="#9A0000" stroke="white" stroke-width="1.20968" stroke-miterlimit="10" stroke-linecap="round" stroke-linejoin="round"/>
<path d="M78.4001 76.0475H37.7248C37.6268 76.0475 37.5297 76.0282 37.4391 75.9906C37.3485 75.9531 37.2662 75.898 37.197 75.8286C37.1277 75.7592 37.0728 75.6768 37.0354 75.5862C36.998 75.4956 36.9788 75.3984 36.979 75.3004V69.2105C36.979 68.7992 37.3135 68.4647 37.7248 68.4647H78.4001C78.8113 68.4647 79.1459 68.7979 79.1459 69.2105V75.3004C79.1459 75.7117 78.8127 76.0475 78.4001 76.0475Z" fill="#9A0000" stroke="white" stroke-width="1.20968" stroke-miterlimit="10" stroke-linecap="round" stroke-linejoin="round"/>
<path d="M61.813 68.4648H54.3125V76.0462H61.813V68.4648ZM82.8835 68.4648H42.2082C42.0104 68.4648 41.8207 68.3862 41.6808 68.2463C41.541 68.1065 41.4624 67.9168 41.4624 67.719V61.6278C41.4624 61.2165 41.7969 60.882 42.2082 60.882H82.8835C83.2947 60.882 83.6293 61.2165 83.6293 61.6278V67.719C83.6293 68.1303 83.2947 68.4648 82.8835 68.4648Z" fill="#9A0000" stroke="white" stroke-width="1.20968" stroke-miterlimit="10" stroke-linecap="round" stroke-linejoin="round"/>
<path d="M66.296 60.882H58.7954V68.4634H66.296V60.882Z" fill="#9A0000" stroke="white" stroke-width="1.20968" stroke-miterlimit="10" stroke-linecap="round" stroke-linejoin="round"/>
<path d="M77.2501 83.6291H82.8835C83.2947 83.6291 83.6293 83.2946 83.6293 82.8833V76.7934C83.6293 76.3808 83.2947 76.0463 82.8835 76.0463H42.2082C41.7969 76.0463 41.4624 76.3808 41.4624 76.7934V82.8819C41.4624 83.2946 41.7969 83.6291 42.2082 83.6291H72.2927" fill="#9A0000"/>
<path d="M77.2501 83.6291H82.8835C83.2947 83.6291 83.6293 83.2946 83.6293 82.8833V76.7934C83.6293 76.3808 83.2947 76.0463 82.8835 76.0463H42.2082C41.7969 76.0463 41.4624 76.3808 41.4624 76.7934V82.8819C41.4624 83.2946 41.7969 83.6291 42.2082 83.6291H72.2927" stroke="white" stroke-width="1.20968" stroke-miterlimit="10" stroke-linecap="round" stroke-linejoin="round"/>
<path d="M66.296 76.0476H58.7954V83.6291H66.296V76.0476Z" fill="#9A0000" stroke="white" stroke-width="1.20968" stroke-miterlimit="10" stroke-linecap="round" stroke-linejoin="round"/>
</g>
<defs>
<clipPath id="clip0_100_249">
<rect width="85" height="85" fill="white"/>
</clipPath>
</defs>
</svg>
