<svg width="85" height="91" viewBox="0 0 85 91" fill="none" xmlns="http://www.w3.org/2000/svg">
<g clip-path="url(#clip0_99_220)">
<path d="M56.4743 53.5007C57.5775 53.5007 58.659 53.1622 59.5777 52.5288C60.5008 51.8896 61.2161 50.9906 61.634 49.9444C62.0574 48.8884 62.168 47.7316 61.9523 46.6138C61.739 45.5019 61.2071 44.477 60.4223 43.6654C59.6484 42.8632 58.6529 42.3135 57.5649 42.0875C56.4807 41.8648 55.3549 41.9791 54.3367 42.4151C53.3102 42.8561 52.4376 43.5949 51.8301 44.5372C51.217 45.4836 50.8896 46.5992 50.8896 47.7404C50.8896 49.2674 51.4774 50.7325 52.5264 51.8135C53.0391 52.3458 53.6526 52.7693 54.3307 53.0591C55.0088 53.3489 55.7377 53.499 56.4743 53.5007ZM56.4743 45.1087C56.9789 45.1087 57.4708 45.2634 57.8904 45.5527C58.31 45.8403 58.6373 46.2516 58.8308 46.7321C59.0224 47.2128 59.0721 47.739 58.9739 48.2474C58.8758 48.7559 58.6339 49.225 58.2774 49.5986C57.9268 49.9664 57.4731 50.2179 56.9768 50.3197C56.4805 50.4214 55.9652 50.3686 55.4995 50.1683C55.0308 49.9671 54.6323 49.6301 54.3548 49.2C54.0261 48.6921 53.8784 48.0869 53.9359 47.4836C53.9934 46.8802 54.2527 46.3143 54.6712 45.8785C55.1487 45.3871 55.7979 45.1087 56.4743 45.1087ZM61.2542 63.2541C61.2542 64.3952 61.5816 65.509 62.1946 66.4573C62.8095 67.4037 63.6812 68.1426 64.7012 68.5776C65.7231 69.0144 66.8443 69.129 67.9276 68.9052C69.0168 68.6804 70.0137 68.1313 70.7887 67.329C71.5729 66.5172 72.104 65.4924 72.3169 64.3806C72.5326 63.2628 72.422 62.106 71.9986 61.05C71.5806 60.0038 70.8654 59.1049 69.9423 58.4656C69.0291 57.8337 67.9472 57.4949 66.8389 57.4938C66.1022 57.4954 65.3734 57.6456 64.6953 57.9353C64.0172 58.2251 63.4037 58.6486 62.8909 59.1809C61.839 60.2723 61.2518 61.7336 61.2542 63.2541ZM69.3889 63.2541C69.3889 63.7746 69.2388 64.2842 68.9585 64.7155C68.6817 65.1459 68.2838 65.4837 67.8155 65.6856C67.3489 65.8858 66.8371 65.9367 66.3416 65.8348C65.8445 65.7324 65.3896 65.4819 65.0358 65.1159C64.6776 64.7451 64.4349 64.277 64.3377 63.7691C64.239 63.2585 64.2892 62.7301 64.4824 62.2476C64.6759 61.7671 65.0033 61.3558 65.4228 61.0682C65.9113 60.731 66.5027 60.5788 67.092 60.6388C67.6814 60.6988 68.2305 60.967 68.642 61.3958C69.1194 61.8872 69.3889 62.557 69.3889 63.2541ZM68.2857 42.941L52.1104 66.2716L54.579 68.0916L70.7543 44.7647L68.2857 42.941Z" fill="#9A0000"/>
<path d="M72.2573 0C71.6567 3.66759 70.1192 7.11513 67.7957 10.0045C66.6881 8.80842 65.2199 8.01273 63.618 7.74046C62.0236 7.47312 60.3861 7.74649 58.9629 8.5176L45.7137 8.76876C43.9533 8.79658 42.2157 9.17466 40.6011 9.88121C38.9864 10.5878 37.5267 11.6088 36.3059 12.8856L2.22088 48.0662C0.79169 49.5505 -0.00516984 51.5377 2.52431e-05 53.6045C2.52431e-05 55.6793 0.799387 57.6703 2.22088 59.1391L11.5546 68.7851C12.0748 70.7526 13.3384 72.4376 15.0758 73.4807L40.0386 88.3555C41.0695 88.9853 42.2269 89.3565 43.4242 89.4366C44.7233 90.4588 46.3271 91.0103 47.9762 91.0018H76.8075C78.8203 91.0018 80.75 90.1774 82.1733 88.7086C83.6023 87.2255 84.3997 85.2398 84.396 83.174V33.4279C84.3887 29.7879 83.0197 26.2935 80.571 23.6727L69.9478 12.3068C72.7858 8.89989 74.635 4.77118 75.2919 0.37492L72.2573 0ZM4.36215 50.2902L38.4616 15.0933C40.3972 13.1249 43.0238 12.0007 45.7752 11.9629L49.2964 11.8846L44.4858 13.3078C41.0672 14.3384 38.1823 16.6691 36.4433 19.8052L12.3286 62.8191C12.052 63.316 11.8278 63.8406 11.6595 64.3843L4.36215 56.915C3.51091 56.0261 3.03623 54.839 3.03832 53.6045C3.03832 52.3632 3.51396 51.1711 4.36215 50.2902ZM16.6239 70.8016C16.1029 70.4916 15.6481 70.0809 15.2856 69.5932C14.7377 68.849 14.4149 67.9615 14.3558 67.0372C14.2968 66.1129 14.5041 65.1911 14.9528 64.3825L39.0675 21.3104C40.4181 18.8696 42.6608 17.0546 45.3195 16.2508L53.3312 13.8884L44.2271 23.6436C41.7569 26.2946 40.3838 29.7937 40.3877 33.4279V83.174C40.3931 83.8347 40.4853 84.4935 40.6608 85.1305L16.6239 70.8016ZM81.3613 33.4279V83.174C81.3613 84.4189 80.882 85.6128 80.0284 86.4937C79.6104 86.9278 79.1102 87.2732 78.5573 87.5096C78.0043 87.7459 77.41 87.8683 76.8093 87.8696H47.9762C47.3755 87.8683 46.7811 87.7459 46.2282 87.5096C45.6753 87.2732 45.1751 86.9278 44.757 86.4937C43.8991 85.6038 43.4202 84.4121 43.4224 83.1722V33.4316C43.4322 30.5975 44.5186 27.8745 46.4589 25.8203L59.1745 12.2122C60.0314 11.3542 61.1903 10.8715 62.3991 10.869C63.6017 10.869 64.7574 11.3513 65.6236 12.2122C65.2386 12.5051 64.8383 12.7773 64.4246 13.0276C63.9235 12.5828 63.2884 12.3203 62.6213 12.2824C61.9542 12.2444 61.2938 12.4331 60.7461 12.8183C60.1912 13.2089 59.7784 13.7713 59.5706 14.4199C59.3626 15.0696 59.3662 15.7758 59.5814 16.4255C59.7984 17.0752 60.2144 17.6322 60.7696 18.0144C61.3212 18.3942 61.9837 18.5763 62.6506 18.5314C63.3174 18.4865 63.9499 18.2172 64.4463 17.7668C64.9512 17.3109 65.2953 16.7022 65.4265 16.0324C66.2494 15.5774 67.0361 15.0532 67.7776 14.4672L78.4008 25.8822C80.2972 27.932 81.3558 30.6272 81.3613 33.4279Z" fill="#9A0000"/>
</g>
<defs>
<clipPath id="clip0_99_220">
<rect width="85" height="91" fill="white"/>
</clipPath>
</defs>
</svg>
