<svg width="51" height="51" viewBox="0 0 51 51" fill="none" xmlns="http://www.w3.org/2000/svg">
<g clip-path="url(#clip0_128_30)">
<g clip-path="url(#clip1_128_30)">
<path fill-rule="evenodd" clip-rule="evenodd" d="M38.8821 25.739C39.5401 25.58 40.2841 25.4 41.3821 25.532C41.4746 25.5428 41.5632 25.5748 41.6413 25.6255C41.7194 25.6761 41.7847 25.7441 41.8323 25.824C41.8799 25.904 41.9084 25.9939 41.9157 26.0866C41.9229 26.1794 41.9087 26.2726 41.8741 26.359C41.1331 28.243 40.7451 29.264 40.7451 30.069V33.002H45.4081C45.6321 33.002 45.8381 33.125 45.9431 33.322L49.0771 39.156C49.9376 40.7597 50.3886 42.5511 50.3901 44.371V49.891C50.3903 49.9709 50.3746 50.0501 50.3441 50.124C50.3136 50.1979 50.2689 50.265 50.2124 50.3216C50.1559 50.3781 50.0889 50.423 50.015 50.4536C49.9412 50.4842 49.8621 50.5 49.7821 50.5H0.998137C0.918293 50.5 0.839231 50.4843 0.765465 50.4537C0.691699 50.4232 0.624674 50.3784 0.568216 50.3219C0.511758 50.2655 0.466973 50.1984 0.436418 50.1247C0.405863 50.0509 0.390137 49.9718 0.390137 49.892V44.37C0.390137 42.556 0.843137 40.752 1.70214 39.155L4.83614 33.321C4.88821 33.2242 4.96555 33.1433 5.05993 33.087C5.15432 33.0306 5.26221 33.0009 5.37214 33.001H10.0341V30.068C10.0341 29.263 9.64614 28.242 8.90514 26.358C8.87078 26.2716 8.85673 26.1784 8.86408 26.0857C8.87142 25.993 8.89997 25.9033 8.94751 25.8234C8.99506 25.7434 9.06033 25.6755 9.13829 25.6248C9.21624 25.5741 9.3048 25.542 9.39714 25.531C10.4961 25.399 11.2401 25.579 11.8971 25.738C12.6201 25.913 13.1921 26.052 14.1851 25.785C14.8723 25.6064 15.5802 25.5196 16.2901 25.527C16.9998 25.5196 17.7073 25.6064 18.3941 25.785C19.3881 26.052 19.9601 25.913 20.6841 25.738C21.3401 25.579 22.0841 25.399 23.1821 25.531C23.2746 25.5417 23.3634 25.5736 23.4416 25.6242C23.5198 25.6748 23.5853 25.7427 23.633 25.8227C23.6807 25.9027 23.7093 25.9926 23.7166 26.0854C23.7239 26.1783 23.7097 26.2715 23.6751 26.358C22.9331 28.242 22.5451 29.263 22.5451 30.068V33.001H28.2331V30.068C28.2331 29.263 27.8461 28.242 27.1031 26.358C27.0694 26.2714 27.0559 26.1783 27.0636 26.0856C27.0713 25.993 27.1001 25.9034 27.1478 25.8236C27.1955 25.7439 27.2607 25.676 27.3386 25.6253C27.4165 25.5746 27.5049 25.5423 27.5971 25.531C28.6951 25.399 29.4391 25.579 30.0951 25.738C30.8201 25.913 31.3911 26.052 32.3851 25.785C33.072 25.6064 33.7795 25.5196 34.4891 25.527C35.1991 25.5196 35.907 25.6063 36.5941 25.785C37.5881 26.052 38.1591 25.914 38.8821 25.739ZM45.0451 34.218H5.73514L2.77214 39.732C2.00728 41.1587 1.60643 42.7522 1.60514 44.371V49.283H49.1751V44.371C49.1739 42.7521 48.7727 41.1585 48.0071 39.732L45.0451 34.218ZM44.3051 41.142C44.4623 41.1484 44.6108 41.2153 44.7197 41.3287C44.8286 41.4421 44.8895 41.5933 44.8895 41.7505C44.8895 41.9077 44.8286 42.0589 44.7197 42.1723C44.6108 42.2857 44.4623 42.3526 44.3051 42.359H6.47614C6.31475 42.359 6.15998 42.2949 6.04586 42.1808C5.93175 42.0667 5.86764 41.9119 5.86764 41.7505C5.86764 41.5891 5.93175 41.4343 6.04586 41.3202C6.15998 41.2061 6.31475 41.142 6.47614 41.142H44.3051ZM22.2341 26.709C21.7631 26.731 21.3741 26.824 20.9701 26.923C20.1851 27.113 19.3741 27.308 18.0811 26.963C17.4967 26.8116 16.8948 26.7383 16.2911 26.745C15.6311 26.745 15.0451 26.817 14.5011 26.963C13.2081 27.308 12.3971 27.112 11.6121 26.923C11.2091 26.824 10.8191 26.731 10.3471 26.709C10.9421 28.246 11.2501 29.187 11.2501 30.069V33.002H21.3301V30.07C21.3301 29.187 21.6411 28.246 22.2341 26.709ZM40.4341 26.709C39.9631 26.731 39.5731 26.824 39.1691 26.923C38.3841 27.112 37.5731 27.308 36.2791 26.963C35.695 26.8117 35.0935 26.7383 34.4901 26.745C33.8301 26.745 33.2451 26.817 32.7001 26.963C31.4081 27.308 30.5961 27.112 29.8101 26.923C29.4071 26.824 29.0181 26.731 28.5471 26.709C29.1411 28.246 29.4501 29.187 29.4501 30.069V33.002H39.5301V30.07C39.5301 29.187 39.8391 28.246 40.4341 26.709ZM39.9901 20.365C41.6001 20.365 43.1131 20.992 44.2511 22.131C44.813 22.6899 45.2584 23.3548 45.5615 24.0871C45.8647 24.8193 46.0195 25.6045 46.0171 26.397V29.559C46.0205 29.6409 46.0072 29.7225 45.9782 29.7991C45.9491 29.8757 45.9049 29.9457 45.8482 30.0048C45.7914 30.0639 45.7234 30.1109 45.648 30.143C45.5726 30.1751 45.4916 30.1917 45.4096 30.1917C45.3277 30.1917 45.2466 30.1751 45.1713 30.143C45.0959 30.1109 45.0278 30.0639 44.9711 30.0048C44.9143 29.9457 44.8701 29.8757 44.8411 29.7991C44.8121 29.7225 44.7988 29.6409 44.8021 29.559V26.397C44.8021 25.11 44.3011 23.901 43.3921 22.992C42.9466 22.5435 42.4165 22.1879 41.8325 21.9458C41.2485 21.7038 40.6223 21.5801 39.9901 21.582H10.7901C9.51431 21.5844 8.2915 22.0926 7.38982 22.9952C6.48814 23.8978 5.98119 25.1212 5.98014 26.397V29.559C5.98014 29.7203 5.91608 29.8749 5.80206 29.9889C5.68804 30.1029 5.53339 30.167 5.37214 30.167C5.21089 30.167 5.05624 30.1029 4.94222 29.9889C4.82819 29.8749 4.76414 29.7203 4.76414 29.559V26.397C4.76414 23.071 7.46714 20.365 10.7911 20.365H39.9911H39.9901ZM37.7531 0.5C38.0891 0.5 38.3611 0.773 38.3611 1.108V14.832C38.3611 14.9933 38.2971 15.1479 38.1831 15.2619C38.069 15.3759 37.9144 15.44 37.7531 15.44H13.0261C12.8651 15.4397 12.7107 15.3756 12.5969 15.2616C12.4831 15.1476 12.4191 14.9931 12.4191 14.832V1.108C12.4191 0.773 12.6901 0.5 13.0261 0.5H37.7531ZM18.3521 6.005L13.6341 11.381V14.224H25.5651L18.3521 6.005ZM25.7301 1.717H13.6341V9.537L17.8951 4.681C17.9524 4.61642 18.0227 4.56473 18.1013 4.52932C18.18 4.49392 18.2653 4.47561 18.3516 4.47561C18.4379 4.47561 18.5232 4.49392 18.6019 4.52932C18.6806 4.56473 18.7509 4.61642 18.8081 4.681L24.3181 10.959L26.9961 7.909C27.0527 7.84341 27.1228 7.79079 27.2016 7.75472C27.2804 7.71865 27.366 7.69998 27.4526 7.69998C27.5393 7.69998 27.6249 7.71865 27.7037 7.75472C27.7825 7.79079 27.8525 7.84341 27.9091 7.909L33.4521 14.224H37.1451V1.717H34.8051C34.6573 2.81624 34.1161 3.82464 33.2817 4.55534C32.4473 5.28605 31.3763 5.68952 30.2671 5.691C29.1582 5.68907 28.0876 5.28541 27.2534 4.55477C26.4193 3.82412 25.8781 2.81598 25.7301 1.717ZM27.4521 9.231L25.1271 11.881L27.1831 14.224H31.8331L27.4531 9.23L27.4521 9.231ZM33.5751 1.717H26.9611C27.1038 2.49016 27.5124 3.18907 28.1162 3.69261C28.72 4.19614 29.4809 4.47257 30.2671 4.474C31.0536 4.47265 31.8148 4.19629 32.4189 3.69278C33.0231 3.18927 33.4321 2.49033 33.5751 1.717Z" fill="#9A0000"/>
</g>
</g>
<defs>
<clipPath id="clip0_128_30">
<rect width="50" height="50" fill="white" transform="translate(0.390137 0.5)"/>
</clipPath>
<clipPath id="clip1_128_30">
<rect width="50" height="50" fill="white" transform="translate(0.390137 0.5)"/>
</clipPath>
</defs>
</svg>
