<svg width="74" height="75" viewBox="0 0 74 75" fill="none" xmlns="http://www.w3.org/2000/svg">
<g clip-path="url(#clip0_100_272)">
<path fill-rule="evenodd" clip-rule="evenodd" d="M13.2441 8.5464C13.1433 8.54659 13.0435 8.56667 12.9504 8.60548C12.8573 8.6443 12.7728 8.70108 12.7017 8.7726C12.6306 8.84411 12.5743 8.92894 12.536 9.02224C12.4978 9.11553 12.4783 9.21546 12.4786 9.31631V14.0033C12.4786 14.4294 12.821 14.7718 13.2441 14.7718H41.2634C41.3641 14.7716 41.4638 14.7515 41.5568 14.7128C41.6498 14.6741 41.7342 14.6174 41.8053 14.5461C41.8764 14.4747 41.9327 14.3901 41.9711 14.2969C42.0095 14.2038 42.0291 14.104 42.0289 14.0033V9.31631C42.0293 9.21546 42.0098 9.11553 41.9715 9.02224C41.9332 8.92894 41.8769 8.84411 41.8058 8.7726C41.7347 8.70108 41.6502 8.6443 41.5572 8.60548C41.4641 8.56667 41.3643 8.54659 41.2634 8.5464H33.8288C33.1677 8.5464 32.5741 8.12471 32.3507 7.49733C31.5794 5.32279 29.5297 3.85791 27.2523 3.85791C24.9749 3.85791 22.9238 5.32132 22.1539 7.4988C22.0458 7.80432 21.8458 8.06897 21.5815 8.2565C21.3172 8.44403 21.0014 8.54528 20.6773 8.5464H13.2441ZM3.9039 74.1735C2.86693 74.1704 1.87354 73.7561 1.14167 73.0215C0.409802 72.2868 -0.000780381 71.2919 2.50444e-06 70.2549V14.0033C-0.00116977 12.9661 0.409241 11.9708 1.14115 11.2358C1.87306 10.5009 2.86667 10.0864 3.9039 10.0833H8.57329C8.77683 10.0829 8.97191 10.0018 9.1157 9.85768C9.25949 9.71362 9.34025 9.51838 9.34025 9.31484V6.97132C9.34025 6.10445 10.044 5.39625 10.9095 5.39625H19.1962C19.3304 5.39602 19.4621 5.36045 19.5782 5.29313C19.6943 5.22581 19.7906 5.12912 19.8574 5.01277C20.6052 3.71005 21.6823 2.62676 22.9807 1.87145C24.2791 1.11614 25.7532 0.715345 27.2553 0.709229C30.2849 0.709229 33.1177 2.35924 34.6487 5.01424C34.7868 5.24932 35.0395 5.39625 35.3128 5.39625H43.5996C44.4635 5.39625 45.1673 6.10298 45.1673 6.97132V9.31631C45.1673 9.73946 45.5111 10.0847 45.9343 10.0847H50.6037C51.6406 10.0879 52.634 10.5022 53.3659 11.2368C54.0978 11.9714 54.5084 12.9664 54.5076 14.0033V32.7544C54.5076 33.6212 53.8023 34.328 52.9384 34.328C52.5219 34.3268 52.123 34.1604 51.829 33.8654C51.5351 33.5704 51.3703 33.1708 51.3706 32.7544V14.0033C51.3708 13.9024 51.3512 13.8025 51.3127 13.7091C51.2743 13.6158 51.2178 13.531 51.1466 13.4595C51.0754 13.388 50.9908 13.3313 50.8976 13.2925C50.8045 13.2537 50.7046 13.2336 50.6037 13.2334H45.9343C45.8334 13.2336 45.7335 13.2537 45.6403 13.2925C45.5472 13.3313 45.4626 13.388 45.3913 13.4595C45.3201 13.531 45.2637 13.6158 45.2253 13.7091C45.1868 13.8025 45.1671 13.9024 45.1673 14.0033V16.3468C45.1673 17.2152 44.4621 17.9204 43.5996 17.9204H10.9095C10.493 17.9197 10.0939 17.7537 9.79968 17.4589C9.50548 17.1642 9.34025 16.7648 9.34025 16.3483V14.0019C9.34064 13.9009 9.32109 13.8008 9.28272 13.7074C9.24435 13.6141 9.18791 13.5292 9.11666 13.4576C9.0454 13.3861 8.96072 13.3293 8.86747 13.2906C8.77423 13.2519 8.67425 13.232 8.57329 13.232H3.9039C3.80305 13.2321 3.70324 13.2522 3.61016 13.291C3.51709 13.3298 3.43258 13.3866 3.36148 13.4581C3.29037 13.5297 3.23407 13.6145 3.19579 13.7078C3.15751 13.8011 3.13801 13.901 3.1384 14.0019V70.2535C3.1384 70.6781 3.48074 71.0234 3.9039 71.0234H38.9273C39.3448 71.0234 39.7452 71.1892 40.0405 71.4845C40.3357 71.7797 40.5016 72.1802 40.5016 72.5977C40.5016 73.0153 40.3357 73.4157 40.0405 73.7109C39.7452 74.0062 39.3448 74.1721 38.9273 74.1721L3.9039 74.1735Z" fill="#9A0000"/>
<path fill-rule="evenodd" clip-rule="evenodd" d="M13.3997 31.5172C12.5446 31.5172 11.8496 30.9853 11.8496 30.3315C11.8496 29.6791 12.5446 29.1472 13.3997 29.1472H41.1046C41.9597 29.1472 42.6561 29.6791 42.6561 30.3315C42.6561 30.9853 41.9597 31.5172 41.1046 31.5172H13.3997ZM13.3762 40.997C12.5343 40.997 11.8481 40.4651 11.8481 39.8113C11.8481 39.1589 12.5343 38.627 13.3762 38.627H29.2812C30.1217 38.627 30.8078 39.1589 30.8078 39.8113C30.8078 40.4651 30.1217 40.9955 29.2798 40.9955H13.3777L13.3762 40.997ZM13.3762 50.4739C12.5343 50.4739 11.8481 49.945 11.8481 49.2911C11.8481 48.6373 12.5343 48.1054 13.3762 48.1054H29.2812C30.1217 48.1054 30.8078 48.6373 30.8078 49.2911C30.8078 49.945 30.1217 50.4754 29.2798 50.4754H13.3777L13.3762 50.4739ZM13.3762 57.5852C12.5343 57.5852 11.8481 57.0534 11.8481 56.3995C11.8481 55.7457 12.5343 55.2153 13.3762 55.2153H29.2812C30.1217 55.2153 30.8078 55.7457 30.8078 56.3995C30.8078 57.0534 30.1217 57.5852 29.2798 57.5852H13.3762ZM53.4304 59.9537C53.0264 59.9537 52.6443 59.7995 52.3578 59.5188L47.8398 55.0831C47.6993 54.9459 47.5877 54.7821 47.5114 54.6012C47.4352 54.4202 47.396 54.2259 47.396 54.0296C47.396 53.8333 47.4352 53.6389 47.5114 53.458C47.5877 53.2771 47.6993 53.1132 47.8398 52.9761C48.1263 52.6955 48.5083 52.5397 48.9124 52.5397C49.3193 52.5397 49.6999 52.6955 49.9849 52.9761L52.9088 55.8441C53.0483 55.9821 53.2365 56.0594 53.4326 56.0594C53.6287 56.0594 53.817 55.9821 53.9564 55.8441L61.3954 48.5418C61.6819 48.2597 62.0639 48.1054 62.468 48.1054C62.8735 48.1054 63.2541 48.2597 63.5406 48.5418C63.681 48.6788 63.7926 48.8425 63.8688 49.0233C63.945 49.2041 63.9843 49.3983 63.9843 49.5945C63.9843 49.7907 63.945 49.9849 63.8688 50.1657C63.7926 50.3465 63.681 50.5103 63.5406 50.6473L54.5045 59.5188C54.2179 59.799 53.8312 59.9552 53.4304 59.9537Z" fill="#9A0000"/>
<path fill-rule="evenodd" clip-rule="evenodd" d="M55.6904 39.369C47.6064 39.369 41.0299 45.9456 41.0299 54.0296C41.0299 62.1136 47.6064 68.6916 55.6904 68.6916C63.7759 68.6916 70.3524 62.1136 70.3524 54.0281C70.3524 45.947 63.7759 39.369 55.6904 39.369ZM55.6904 71.8035C45.8903 71.8035 37.9164 63.8297 37.9164 54.0296C37.9164 44.2294 45.8903 36.2571 55.6904 36.2571C65.4905 36.2571 73.4643 44.2294 73.4643 54.0296C73.4643 63.8297 65.492 71.8035 55.6904 71.8035ZM27.2524 7.81906C27.0967 7.81896 26.9425 7.7882 26.7987 7.72852C26.6548 7.66884 26.5242 7.58142 26.4141 7.47125C26.3041 7.36108 26.2169 7.23031 26.1574 7.08642C26.0979 6.94253 26.0673 6.78832 26.0674 6.63261C26.0675 6.4769 26.0982 6.32273 26.1579 6.17891C26.2176 6.03509 26.305 5.90444 26.4152 5.7944C26.5254 5.68436 26.6561 5.59711 26.8 5.53761C26.9439 5.47811 27.0981 5.44754 27.2538 5.44763C27.5683 5.44783 27.8698 5.57294 28.092 5.79544C28.3143 6.01794 28.439 6.31961 28.4388 6.63408C28.4386 6.94855 28.3135 7.25006 28.091 7.47229C27.8685 7.69452 27.5668 7.81925 27.2524 7.81906Z" fill="#9A0000"/>
</g>
<defs>
<clipPath id="clip0_100_272">
<rect width="73.4643" height="73.4643" fill="white" transform="translate(0 0.709229)"/>
</clipPath>
</defs>
</svg>
