<svg width="81" height="78" viewBox="0 0 81 78" fill="none" xmlns="http://www.w3.org/2000/svg">
<g clip-path="url(#clip0_100_278)">
<path d="M80.8441 42.7534C80.1062 35.393 76.8558 28.5129 71.6413 23.2736C67.3602 18.9673 61.9368 15.9795 56.013 14.664V10.633C57.2874 10.3128 58.4012 9.53737 59.1448 8.45253C59.8885 7.3677 60.2108 6.04817 60.0512 4.74203C59.8917 3.43589 59.2611 2.23312 58.2782 1.35986C57.2953 0.486601 56.0278 0.00300622 54.7138 0L43.324 0C42.0102 0.00338255 40.7429 0.487245 39.7603 1.36063C38.7776 2.23401 38.1474 3.43677 37.988 4.7428C37.8287 6.04883 38.1511 7.36819 38.8948 8.45286C39.6385 9.53753 40.7521 10.3128 42.0264 10.633V14.6765C36.1214 15.9966 30.7159 18.9788 26.4464 23.2721C25.4871 24.2339 24.5896 25.2557 23.7594 26.3312C23.72 26.3276 23.6805 26.3255 23.641 26.325H12.3664C11.9461 26.325 11.5429 26.4922 11.2457 26.7899C10.9484 27.0876 10.7815 27.4913 10.7815 27.9123C10.7815 28.3333 10.9484 28.737 11.2457 29.0347C11.5429 29.3324 11.9461 29.4996 12.3664 29.4996H21.6066C20.4589 31.428 19.518 33.4726 18.7997 35.5992H1.58251C1.16216 35.5992 0.759017 35.7664 0.46178 36.0641C0.164544 36.3618 -0.00244141 36.7655 -0.00244141 37.1865C-0.00244141 37.6075 0.164544 38.0112 0.46178 38.3089C0.759017 38.6066 1.16216 38.7738 1.58251 38.7738H17.9071C17.4519 40.7773 17.1885 42.8198 17.1205 44.8734H10.1265C9.7061 44.8734 9.30296 45.0406 9.00572 45.3383C8.70849 45.636 8.5415 46.0397 8.5415 46.4607C8.5415 46.8817 8.70849 47.2854 9.00572 47.5831C9.30296 47.8808 9.7061 48.048 10.1265 48.048H17.1719C17.3059 50.1025 17.6345 52.1461 18.1595 54.1476H7.90986C7.4895 54.1476 7.08636 54.3148 6.78913 54.6125C6.49189 54.9102 6.32491 55.3139 6.32491 55.7349C6.32491 56.1559 6.49189 56.5596 6.78913 56.8573C7.08636 57.155 7.4895 57.3222 7.90986 57.3222H19.1689C20.7662 61.5605 23.2472 65.4093 26.4464 68.6119C31.6676 73.8441 38.5355 77.1059 45.8848 77.844C53.1135 78.56 60.3703 76.7912 66.462 72.8286C67.1941 72.3497 67.3997 71.3653 66.923 70.6321C66.8099 70.4576 66.6635 70.3071 66.4923 70.1893C66.321 70.0714 66.1282 69.9885 65.925 69.9454C65.7217 69.9022 65.5119 69.8996 65.3077 69.9376C65.1034 69.9757 64.9086 70.0537 64.7345 70.1672C53.4132 77.5616 38.2521 75.9642 28.6832 66.3655C17.457 55.1023 17.457 36.7786 28.6832 25.5169C39.9095 14.2537 58.1766 14.2537 69.4044 25.5169C78.9593 35.1016 80.5622 50.2991 73.2146 61.6496C72.9859 62.0025 72.9064 62.4317 72.9934 62.8432C73.0804 63.2547 73.3269 63.6149 73.6787 63.8446C74.4124 64.3219 75.3922 64.1129 75.8673 63.3781C79.8051 57.2637 81.5593 49.9939 80.8441 42.7534ZM41.1074 5.39604C41.1074 4.17144 42.1012 3.1746 43.3224 3.1746H54.7138C55.2877 3.19614 55.831 3.43962 56.2294 3.85386C56.6278 4.26811 56.8504 4.82088 56.8504 5.39604C56.8504 5.9712 56.6278 6.52397 56.2294 6.93822C55.831 7.35246 55.2877 7.59594 54.7138 7.61748H43.324C42.7364 7.61624 42.1732 7.3817 41.758 6.96528C41.3428 6.54886 41.1094 5.98454 41.109 5.39604H41.1074ZM45.1886 14.1305V10.7921H52.8477V14.1242C50.3035 13.821 47.7323 13.8231 45.1886 14.1305Z" fill="#9A0000"/>
<path d="M70.523 65.9021C70.1035 65.9038 69.7017 66.0715 69.4052 66.3687C69.1087 66.666 68.9416 67.0685 68.9404 67.4887C68.9407 67.7493 69.0051 68.0058 69.1281 68.2355C69.251 68.4652 69.4285 68.661 69.6451 68.8056C69.8616 68.9501 70.1103 69.039 70.3693 69.0643C70.6283 69.0896 70.8896 69.0506 71.1299 68.9506C71.3702 68.8507 71.5822 68.693 71.7472 68.4914C71.9121 68.2898 72.0248 68.0506 72.0754 67.7949C72.126 67.5393 72.1129 67.2751 72.0372 67.0258C71.9615 66.7764 71.8255 66.5496 71.6414 66.3655C71.3439 66.0699 70.9421 65.9034 70.523 65.9021ZM49.044 21.322C35.5107 21.322 24.501 32.3668 24.501 45.9419C24.501 59.5171 35.5107 70.5619 49.044 70.5619C62.5772 70.5619 73.5854 59.5171 73.5854 45.9419C73.5854 32.3668 62.5756 21.322 49.044 21.322ZM49.044 67.3888C37.2554 67.3888 27.6662 57.7667 27.6662 45.9419C27.6662 34.1171 37.2554 24.4966 49.044 24.4966C60.8326 24.4966 70.4217 34.1171 70.4217 45.9419C70.4217 57.7667 60.831 67.3873 49.044 67.3873V67.3888Z" fill="#9A0000"/>
<path d="M59.0521 33.6586L51.2169 41.5194C50.542 41.1833 49.7985 41.0084 49.0447 41.0084C48.291 41.0084 47.5474 41.1833 46.8725 41.5194L43.3662 38.0016C43.2193 37.8542 43.0448 37.7373 42.8528 37.6575C42.6608 37.5777 42.4549 37.5367 42.247 37.5367C42.039 37.5367 41.8332 37.5777 41.6411 37.6575C41.4491 37.7373 41.2746 37.8542 41.1278 38.0016C40.8315 38.2996 40.6652 38.7029 40.6652 39.1233C40.6652 39.5437 40.8315 39.947 41.1278 40.2449L44.6357 43.7643C44.2666 44.5155 44.0945 45.3484 44.1356 46.1846C44.1767 47.0208 44.4297 47.8327 44.8706 48.544C45.3116 49.2552 45.926 49.8424 46.6561 50.2502C47.3863 50.6579 48.208 50.8729 49.0439 50.8748C49.8801 50.873 50.7021 50.6581 51.4324 50.2502C52.1627 49.8424 52.7773 49.2551 53.2183 48.5436C53.6593 47.8321 53.9122 47.0199 53.9531 46.1835C53.994 45.3471 53.8216 44.514 53.4522 43.7627L61.0584 36.1343L61.289 35.9034C61.5861 35.6054 61.753 35.2014 61.753 34.7802C61.753 34.3591 61.5861 33.9551 61.289 33.657C61.1422 33.5097 60.9679 33.3928 60.776 33.313C60.5841 33.2332 60.3783 33.1922 60.1705 33.1922C59.9627 33.1922 59.757 33.2332 59.5651 33.313C59.3732 33.3928 59.1988 33.5113 59.0521 33.6586ZM49.0439 47.6986C48.5876 47.685 48.1545 47.4939 47.8365 47.1658C47.5186 46.8377 47.3407 46.3985 47.3407 45.9413C47.3407 45.484 47.5186 45.0448 47.8365 44.7167C48.1545 44.3887 48.5876 44.1975 49.0439 44.1839C49.5095 44.1839 49.9561 44.3692 50.2853 44.6989C50.6145 45.0286 50.7995 45.4758 50.7995 45.942C50.7995 46.4083 50.6145 46.8555 50.2853 47.1852C49.9561 47.5149 49.5095 47.6986 49.0439 47.6986ZM65.9589 44.3742H64.4947C64.0743 44.3742 63.6712 44.5415 63.374 44.8392C63.0767 45.1368 62.9097 45.5406 62.9097 45.9615C62.9097 46.3825 63.0767 46.7863 63.374 47.0839C63.6712 47.3816 64.0743 47.5488 64.4947 47.5488H65.9589C66.3793 47.5488 66.7824 47.3816 67.0797 47.0839C67.3769 46.7863 67.5439 46.3825 67.5439 45.9615C67.5439 45.5406 67.3769 45.1368 67.0797 44.8392C66.7824 44.5415 66.3793 44.3742 65.9589 44.3742ZM33.5947 44.3352H32.129C31.7086 44.3352 31.3055 44.5025 31.0082 44.8002C30.711 45.0978 30.544 45.5016 30.544 45.9225C30.544 46.3435 30.711 46.7473 31.0082 47.0449C31.3055 47.3426 31.7086 47.5098 32.129 47.5098H33.5932C34.0135 47.5098 34.4167 47.3426 34.7139 47.0449C35.0112 46.7473 35.1781 46.3435 35.1781 45.9225C35.1781 45.5016 35.0112 45.0978 34.7139 44.8002C34.4167 44.5025 34.0151 44.3352 33.5947 44.3352ZM49.0626 32.03C49.9365 32.03 50.6453 31.3202 50.6453 30.4434V28.9739C50.6569 28.7586 50.6247 28.5432 50.5505 28.3409C50.4763 28.1385 50.3616 27.9534 50.2136 27.7968C50.0656 27.6403 49.8872 27.5156 49.6895 27.4304C49.4917 27.3452 49.2787 27.3013 49.0634 27.3013C48.8481 27.3013 48.6351 27.3452 48.4374 27.4304C48.2396 27.5156 48.0613 27.6403 47.9132 27.7968C47.7652 27.9534 47.6506 28.1385 47.5764 28.3409C47.5021 28.5432 47.4699 28.7586 47.4816 28.9739V30.4434C47.4816 31.3202 48.1888 32.03 49.0626 32.03ZM49.0253 59.8541C48.1514 59.8541 47.4426 60.5639 47.4426 61.4406V62.9117C47.436 63.1239 47.472 63.3353 47.5485 63.5334C47.625 63.7314 47.7404 63.912 47.888 64.0645C48.0355 64.2169 48.2122 64.3382 48.4074 64.421C48.6026 64.5037 48.8125 64.5464 49.0245 64.5464C49.2365 64.5464 49.4463 64.5037 49.6416 64.421C49.8368 64.3382 50.0134 64.2169 50.161 64.0645C50.3085 63.912 50.424 63.7314 50.5005 63.5334C50.577 63.3353 50.613 63.1239 50.6063 62.9117V61.4406C50.6063 60.5639 49.8976 59.8541 49.0253 59.8541ZM1.58262 54.1476C1.16671 54.1476 0.757039 54.3177 0.464192 54.6125C0.168231 54.9089 0 55.3176 0 55.7357C0 56.1538 0.169788 56.5625 0.464192 56.8574C0.758596 57.1522 1.16515 57.3222 1.58262 57.3222C1.99852 57.3222 2.40663 57.1506 2.70104 56.8574C2.99388 56.561 3.16367 56.1522 3.16367 55.7342C3.16367 55.3176 2.99544 54.9074 2.70104 54.6125C2.40393 54.3161 2.00201 54.149 1.58262 54.1476Z" fill="#9A0000"/>
</g>
<defs>
<clipPath id="clip0_100_278">
<rect width="81" height="78" fill="white"/>
</clipPath>
</defs>
</svg>
