<svg width="30" height="30" viewBox="0 0 30 30" fill="none" xmlns="http://www.w3.org/2000/svg">
<path d="M13.3798 0C10.1251 0 7.14162 1.73275 4.82177 4.61113C5.57313 4.17323 6.36435 3.86331 7.18099 3.68381C7.74399 3.56045 8.31852 3.49727 8.8949 3.49533C10.6284 3.48761 12.406 4.01572 14.0924 5.02314C18.5471 7.68458 22.4314 13.6586 23.7597 22.3115L20.6501 23.1055L25.3251 30L30 20.7185L26.7395 21.5509C26.775 21.0148 26.7961 20.4729 26.7961 19.9234C26.7961 8.92333 20.7677 0 13.38 0H13.3798ZM8.90383 4.6683C8.40545 4.67081 7.91423 4.72484 7.43364 4.83052C5.51721 5.25176 3.73632 6.49415 2.3167 8.71883C0.85513 11.9117 0 15.7692 0 19.9232C0 20.9274 0.0849093 21.8946 0.181328 22.8591C1.08621 14.3711 6.01189 7.86753 11.9657 7.86753C14.149 7.86753 16.1908 8.74559 17.946 10.2759C16.5869 8.39314 15.0581 6.96811 13.489 6.03075C11.9583 5.11625 10.3989 4.66051 8.90377 4.66817L8.90383 4.6683Z" fill="#9A0000"/>
</svg>
