<svg width="39" height="45" viewBox="0 0 39 45" fill="none" xmlns="http://www.w3.org/2000/svg">
<path d="M30.462 14.05V2.24C30.462 1.005 29.433 0 28.168 0H9.815C8.55 0 7.521 1.005 7.521 2.24V14.05C7.521 15.285 8.551 16.29 9.815 16.29H28.168C29.433 16.29 30.462 15.285 30.462 14.05ZM9.189 14.05V12.82L13.764 9.816C13.8984 9.72833 14.0549 9.68041 14.2153 9.67776C14.3758 9.6751 14.5338 9.71782 14.671 9.801L17.449 11.488C18.344 12.032 19.5 11.968 20.326 11.328L24.596 8.021C24.7245 7.92203 24.8787 7.8619 25.0403 7.84773C25.2019 7.83355 25.3642 7.86592 25.508 7.941C25.7029 8.04295 25.9299 8.06489 26.1407 8.00215C26.3515 7.9394 26.5296 7.79693 26.637 7.605C26.6883 7.51039 26.7201 7.40645 26.7306 7.29932C26.741 7.1922 26.7299 7.08407 26.6978 6.98132C26.6657 6.87858 26.6134 6.78331 26.5439 6.70116C26.4743 6.619 26.389 6.55162 26.293 6.503C25.8617 6.27889 25.3754 6.1826 24.8912 6.22547C24.4071 6.26835 23.9452 6.44859 23.56 6.745L19.29 10.052C19.1539 10.1565 18.9895 10.2174 18.8182 10.2269C18.6469 10.2363 18.4768 10.1938 18.33 10.105L15.552 8.417C15.1402 8.16843 14.6666 8.04108 14.1856 8.04957C13.7046 8.05806 13.2358 8.20205 12.833 8.465L9.19 10.857V2.24C9.19 1.903 9.47 1.629 9.815 1.629H28.168C28.513 1.629 28.794 1.903 28.794 2.239V14.049C28.794 14.387 28.514 14.661 28.168 14.661H9.815C9.65125 14.6623 9.49362 14.5988 9.37652 14.4844C9.25943 14.3699 9.19137 14.2137 9.189 14.05ZM18.992 3.767C18.129 3.767 17.427 4.452 17.427 5.294C17.427 6.136 18.129 6.821 18.992 6.821C19.854 6.821 20.556 6.136 20.556 5.294C20.556 4.452 19.854 3.767 18.992 3.767ZM18.887 5.294C18.887 5.16 19.096 5.16 19.096 5.294C19.096 5.429 18.887 5.429 18.887 5.294ZM39 34.297V41.348C39 43.362 37.322 45 35.26 45H31.075C30.8564 45.0024 30.6457 44.9179 30.4893 44.7651C30.333 44.6123 30.2436 44.4036 30.241 44.185V38.993H12.409C12.1905 38.9954 11.98 38.9111 11.8237 38.7584C11.6673 38.6058 11.5779 38.3975 11.575 38.179C11.575 37.729 11.948 37.364 12.409 37.364H31.075C31.567 37.364 31.965 37.784 31.902 38.281C31.913 38.368 31.909 38.041 31.909 43.371H35.259C36.402 43.371 37.331 42.464 37.331 41.348V34.297C37.331 33.181 36.402 32.274 35.26 32.274H33.98C32.838 32.274 31.908 33.181 31.908 34.297V35.023C31.908 35.473 31.535 35.837 31.074 35.837C30.8554 35.8394 30.6447 35.7549 30.4883 35.6021C30.332 35.4493 30.2426 35.2406 30.24 35.022V34.297C30.24 32.417 31.703 30.863 33.577 30.667V25.334C33.577 23.827 32.321 22.602 30.778 22.602H20.334V31.765C20.334 32.215 19.961 32.579 19.5 32.579C19.2815 32.5814 19.071 32.4971 18.9147 32.3444C18.7583 32.1918 18.6689 31.9835 18.666 31.765V22.602H8.012C6.469 22.602 5.214 23.827 5.214 25.334V27.285C5.214 27.735 4.84 28.099 4.38 28.099C4.16136 28.1017 3.95061 28.0174 3.79404 27.8648C3.63747 27.7122 3.5479 27.5036 3.545 27.285V25.334C3.545 22.929 5.549 20.973 8.012 20.973H30.78C33.243 20.973 35.247 22.929 35.247 25.334V30.644C37.351 30.644 39 32.305 39 34.297ZM27.634 44.185C27.634 44.635 27.26 45 26.799 45H3.74C1.678 45 0 43.362 0 41.348V34.297C0 32.283 1.678 30.645 3.74 30.645H5.02C7.082 30.645 8.76 32.283 8.76 34.297V38.891C8.76 39.341 8.387 39.706 7.926 39.706C7.70736 39.7084 7.49672 39.6239 7.34034 39.4711C7.18396 39.3183 7.09464 39.1096 7.092 38.891V34.297C7.092 33.181 6.162 32.274 5.02 32.274H3.74C2.598 32.274 1.668 33.181 1.668 34.297V41.348C1.668 42.464 2.598 43.371 3.74 43.371H26.8C27.26 43.371 27.634 43.736 27.634 44.185Z" fill="#9A0000"/>
</svg>
